{
.appVersion = "3108";
.formatVersion = 3;
DisplayStrings = (
"Ḡĉ ",
"ĉ",
A,
"Ü",
"ĥ",
"/g.alt3",
"ώ",
"/lcommaaccent.loclMAH",
"Á",
"Ă",
"",
"□",
"",
"‖",
"❘",
"/s_t"
);
axes = (
{
name = Weight;
tag = wght;
},
{
name = Width;
tag = wdth;
}
);
classes = (
{
code = "A B C D E F G H I J K L M N O P Q R S T U V W X Y Z a b c d e f g h i j k l m n o p q r s t u v w x y z";
name = DEFAULT;
},
{
code = "A.alt1 B.alt1 C.alt1 D.alt1 E.alt1 F.alt1 G.alt1 H.alt1 I.alt1 J.alt1 K.alt1 L.alt1 M.alt1 N.alt1 O.alt1 P.alt1 Q.alt1 R.alt1 S.alt1 T.alt1 U.alt1 V.alt1 W.alt1 X.alt1 Y.alt1 Z.alt1 a.alt1 b.alt1 c.alt1 d.alt1 e.alt1 f.alt1 g.alt1 h.alt1 i.alt1 j.alt1 k.alt1 l.alt1 m.alt1 n.alt1 o.alt1 p.alt1 q.alt1 r.alt1 s.alt1 t.alt1 u.alt1 v.alt1 w.alt1 x.alt1 y.alt1 z.alt1";
name = ALT1;
},
{
code = "B C D F G H J K L M N P Q R S T V W X Y Z b c d f g h j k l m n p q r s t v w x y z";
name = Con0;
},
{
code = "B.alt1 C.alt1 D.alt1 F.alt1 G.alt1 H.alt1 J.alt1 K.alt1 L.alt1 M.alt1 N.alt1 P.alt1 Q.alt1 R.alt1 S.alt1 T.alt1 V.alt1 W.alt1 X.alt1 Y.alt1 Z.alt1 b.alt1 c.alt1 d.alt1 f.alt1 g.alt1 h.alt1 j.alt1 k.alt1 l.alt1 m.alt1 n.alt1 p.alt1 q.alt1 r.alt1 s.alt1 t.alt1 v.alt1 w.alt1 x.alt1 y.alt1 z.alt1";
name = Con1;
},
{
code = "A E I O U a e i o u";
name = Voc0;
},
{
code = "A.alt1 E.alt1 I.alt1 O.alt1 U.alt1 a.alt1 e.alt1 i.alt1 o.alt1 u.alt1";
name = Voc1;
},
{
code = "space comma
";
name = Etc;
},
{
code = "A.alt2 B.alt2 C.alt2 D.alt2 E.alt2 F.alt2 G.alt2 H.alt2 I.alt2 J.alt2 K.alt2 L.alt2 M.alt2 N.alt2 O.alt2 P.alt2 Q.alt2 R.alt2 S.alt2 T.alt2 U.alt2 V.alt2 W.alt2 X.alt2 Y.alt2 Z.alt2 a.alt2 b.alt2 c.alt2 d.alt2 e.alt2 f.alt2 g.alt2 h.alt2 i.alt2 j.alt2 k.alt2 l.alt2 m.alt2 n.alt2 o.alt2 p.alt2 q.alt2 r.alt2 s.alt2 t.alt2 u.alt2 v.alt2 w.alt2 x.alt2 y.alt2 z.alt2";
name = ALT2;
},
{

glyphs = (
{
glyphname = .notdef;
lastChange = "2022-05-30 09:55:51 +0000";
layers = (
{
layerId = "D6A4831D-747C-4592-93C0-305F4CD57904";
shapes = (
{
closed = 1;
nodes = (
(196.333,-187,o),
(227.667,-181,o),
(271,-179,c),
(286.333,-176.333,o),
(311.667,-173,o),
(347,-169,cs),
(433,-161,o),
(497.667,-151.667,o),
(541,-141,cs),
(551.667,-138.333,o),
(569,-108.667,o),
(569,-90,cs),
(569,32.667,o),
(566.333,218,o),
(565,278,cs),
(563,368,l),
(563,448,ls),
(563,473.333,o),
(563.667,598.667,o),
(557,684,cs),
(554.333,721.333,o),
(539,764.333,o),
(519,791,cs),
(511,801.667,o),
(496.667,809,o),
(482,809,cs),
(475.333,809,o),
(468.333,806.667,o),
(461,802,c),
(351,772,o),
(292.167,754.833,o),
(284.5,750.5,cs),
(276.833,746.167,o),
(271.667,731.333,o),
(269,706,cs),
(263.975,658.26,o),
(271.365,673,o),
(319,673,cs),
(380.333,673,o),
(429,673,o),
(465,673,c),
(470.333,671,o),
(472.333,643,o),
(471,589,cs),
(469.667,535,o),
(469,474,o),
(469,406,cs),
(469,276,o),
(471.833,188.167,o),
(477.5,142.5,cs),
(483.167,96.833,o),
(482.333,49.333,o),
(475,0,c),
(413.667,-16,o),
(250,-33.667,o),
(182,-39,c),
(180.667,-17,o),
(179.667,-0.333,o),
(179,11,cs),
(175,67.667,o),
(173.333,108.667,o),
(174,134,cs),
(174,153.333,o),
(174.333,168,o),
(175,178,cs),
(176.333,323.333,o),
(179.667,440.333,o),
(185,529,cs),
(185.667,535.667,o),
(187.333,554,o),
(190,584,cs),
(192.667,606.667,o),
(194,624.333,o),
(194,637,cs),
(194,663.667,o),
(187.667,678.667,o),
(169,684,cs),
(164.333,686,o),
(156.667,687,o),
(146,687,cs),
(116,687,o),
(90,678,o),
(68,660,cs),
(64.667,657.333,o),
(62.667,651.167,o),
(62,641.5,cs),
(61.333,631.833,o),
(61,615.333,o),
(61,592,cs),
(61,575.333,o),
(60.667,564,o),
(60,558,cs),
(58.667,543.333,o),
(61.667,523.333,o),
(63,514,c),
(64,308,ls),
(66.667,125.333,o),
(68,-11,o),
(68,-101,cs),
(68,-115.667,o),
(70.333,-133.667,o),
(77,-139,c),
(83.667,-147,o),
(89,-153.333,o),
(93,-158,cs),
(110.333,-178,o),
(127.5,-190.167,o),
(144.5,-194.5,cs),
(161.5,-198.833,o),
(172.333,-199.667,o),
(177,-197,cs)
);
}
);
userData = {
assembly = "NPUSHB[ ]	/* 54 values pushed */
49 41 22 3 0 2 1 76 0 4 3 4 133 0 1 3 2 3 1 2 128 0 0 2 0 134 0 3 1 2 3 89 0 3 3 2 95 0 2 3 2 79 70 68 66 65 61 58 33 31 25 5 6 23 
CALL[ ]	/* CallFunction */";
};
width = 619;
}
);
note = ".notdef";
},
{
glyphname = exclam;
lastChange = "2022-05-30 09:55:51 +0000";
layers = (
{
layerId = "D6A4831D-747C-4592-93C0-305F4CD57904";
shapes = (
{
closed = 1;
nodes = (
(138.667,110,o),
(145.333,112.333,o),
(150,117,cs),
(167.333,133,o),
(180.667,151,o),
(190,171,cs),
(198.667,187.667,o),
(208.333,214.667,o),
(219,252,cs),
(242.333,342,o),
(258.333,406.667,o),
(267,446,cs),
(270.333,462,o),
(275,490,o),
(281,530,cs),
(287,566,l),
(277,642,ls),
(273,675.333,o),
(240.667,715,o),
(218,715,cs),
(190,715,o),
(178.667,693,o),
(176,641,cs),
(175,626,ls),
(169.667,504.667,o),
(150,373.333,o),
(116,232,cs),
(109.333,203.333,o),
(105,177.667,o),
(103,155,cs),
(103,141.667,o),
(110,122,o),
(118,114,c),
(122,111.333,o),
(126,110,o),
(130,110,cs)
);
},
{
closed = 1;
nodes = (
(134.667,-34,o),
(146.667,-27.333,o),
(156,-14,cs),
(161.333,-6.667,o),
(164,1.333,o),
(164,10,cs),
(164,24,o),
(157.667,36.333,o),
(145,47,cs),
(136.333,54.333,o),
(126.333,59.667,o),
(115,63,cs),
(106.333,65.667,o),
(95.667,68.333,o),
(83,71,cs),
(70.333,73.667,o),
(61,75.667,o),
(55,77,c),
(51.667,65.667,o),
(50,53.333,o),
(50,40,cs),
(50,6.667,o),
(65.333,-14.667,o),
(96,-28,cs),
(104,-32,o),
(112,-34,o),
(120,-34,cs)
);
}
);
userData = {
assembly = "NPUSHB[ ]	/* 10 values pushed */
15 1 0 1 32 1 2 0 2 76 
MPPEM[ ]	/* MeasurePixelPerEm */
PUSHB[ ]	/* 1 value pushed */
21 
LT[ ]	/* LessThan */
IF[ ]	/* If */
NPUSHB[ ]	/* 19 values pushed */
0 0 1 2 1 0 2 128 0 1 1 36 77 0 2 2 31 2 78 
ELSE[ ]	/* Else */
MPPEM[ ]	/* MeasurePixelPerEm */
PUSHB[ ]	/* 1 value pushed */
31 
LT[ ]	/* LessThan */
IF[ ]	/* If */
NPUSHB[ ]	/* 16 values pushed */
0 1 0 1 133 0 0 2 0 133 0 2 2 31 2 78 
ELSE[ ]	/* Else */
NPUSHB[ ]	/* 14 values pushed */
0 1 0 1 133 0 0 2 0 133 0 2 2 118 
EIF[ ]	/* EndIf */
EIF[ ]	/* EndIf */
PUSHB[ ]	/* 7 values pushed */
44 42 44 25 3 8 24 
CALL[ ]	/* CallFunction */";
};
width = 337;
}
);
note = exclam;
unicode = 33;
},
{
glyphname = quotedbl;
lastChange = "2022-05-30 09:55:51 +0000";
layers = (
{
layerId = "D6A4831D-747C-4592-93C0-305F4CD57904";
shapes = (
{
closed = 1;
nodes = (
(75.667,389.667,o),
(78.667,390,o),
(82,392,c),
(136.667,445.333,o),
(171.333,531.333,o),
(190,614,cs),
(194,632,o),
(196.667,649,o),
(198,665,cs),
(198.667,668.333,o),
(199,672.5,o),
(199,677.5,cs),
(199,682.5,o),
(199.667,689,o),
(201,697,cs),
(201.667,702.333,o),
(197.833,706.333,o),
(189.5,709,cs),
(181.167,711.667,o),
(170.667,713,o),
(158,713,cs),
(144.667,713,o),
(132,711.667,o),
(120,709,cs),
(108,706.333,o),
(101.667,703.667,o),
(101,701,cs),
(96.333,683,o),
(94,663,o),
(94,641,cs),
(94.667,633,o),
(95.667,615,o),
(97,587,cs),
(98,565,l),
(94.667,547.667,o),
(89,526.333,o),
(81,501,cs),
(66.333,453,o),
(60,429.667,o),
(60,399,cs),
(60,396.333,o),
(64.333,393.667,o),
(73,391,cs)
);
},
{
closed = 1;
nodes = (
(223.333,390.333,o),
(228.167,394.5,o),
(236.5,403.5,cs),
(244.833,412.5,o),
(250,418,o),
(252,420,c),
(333.333,537.333,o),
(324.333,547.333,o),
(339,614,cs),
(342.333,629.333,o),
(344,639.333,o),
(344,644,cs),
(344,646,o),
(343.833,648.333,o),
(343.5,651,cs),
(343.167,653.667,o),
(343,657,o),
(343,661,cs),
(343,668.333,o),
(343.333,675,o),
(344,681,cs),
(345.333,697,o),
(307.667,706,o),
(273,706,cs),
(257.667,706,o),
(250,704.333,o),
(250,701,c),
(241.333,668.333,o),
(236,626.333,o),
(234,575,cs),
(232,555,ls),
(228,533.667,o),
(225.333,519,o),
(224,511,cs),
(214,466.333,o),
(209,429,o),
(209,399,cs),
(209,396.333,o),
(213.333,393.667,o),
(222,391,cs)
);
}
);
userData = {
assembly = "MPPEM[ ]	/* MeasurePixelPerEm */
PUSHB[ ]	/* 1 value pushed */
34 
LT[ ]	/* LessThan */
IF[ ]	/* If */
PUSHB[ ]	/* 7 values pushed */
48 29 25 22 4 0 73 
ELSE[ ]	/* Else */
PUSHB[ ]	/* 7 values pushed */
48 29 25 22 4 1 73 
EIF[ ]	/* EndIf */
MPPEM[ ]	/* MeasurePixelPerEm */
PUSHB[ ]	/* 1 value pushed */
21 
LT[ ]	/* LessThan */
IF[ ]	/* If */
PUSHB[ ]	/* 7 values pushed */
1 1 0 0 36 0 78 
ELSE[ ]	/* Else */
MPPEM[ ]	/* MeasurePixelPerEm */
PUSHB[ ]	/* 1 value pushed */
34 
LT[ ]	/* LessThan */
IF[ ]	/* If */
PUSHB[ ]	/* 5 values pushed */
1 1 0 0 118 
ELSE[ ]	/* Else */
NPUSHB[ ]	/* 9 values pushed */
0 0 1 0 133 0 1 1 118 
EIF[ ]	/* EndIf */
EIF[ ]	/* EndIf */
PUSHB[ ]	/* 6 values pushed */
53 52 33 2 8 23 
CALL[ ]	/* CallFunction */";
};
width = 394;
}
);
note = quotedbl;
unicode = 34;
},
{
glyphname = numbersign;
lastChange = "2022-05-30 09:55:51 +0000";
layers = (
{
layerId = "D6A4831D-747C-4592-93C0-305F4CD57904";
shapes = (
{
closed = 1;
nodes = (
(216.333,4,o),
(222.167,7.333,o),
(226.5,14,cs),
(230.833,20.667,o),
(235.667,32.667,o),
(241,50,cs),
(252.333,88,o),
(269,145.667,o),
(291,223,c),
(293,238,l),
(423,260,l),
(389,92,l),
(385,55,ls),
(383.667,39.667,o),
(383,30.333,o),
(383,27,cs),
(383,9,o),
(386,0,o),
(392,0,cs),
(398,0,o),
(406,3.667,o),
(416,11,cs),
(446.667,31,o),
(465,75.667,o),
(481,141,cs),
(496.333,200.333,o),
(507.667,245,o),
(515,275,c),
(590,288,ls),
(606,290.667,o),
(622.667,294.833,o),
(640,300.5,cs),
(657.333,306.167,o),
(668,309.333,o),
(672,310,c),
(681.333,314,o),
(691.333,323.667,o),
(690,329,cs),
(687.333,338.333,o),
(680.333,347,o),
(671,351,cs),
(661.667,355,o),
(648.333,357,o),
(631,357,cs),
(609.667,355.667,o),
(577,353.333,o),
(533,350,c),
(538.333,373.333,o),
(546,407.667,o),
(556,453,c),
(568.667,455.667,o),
(582.667,459.167,o),
(598,463.5,cs),
(613.333,467.833,o),
(625,471,o),
(633,473,cs),
(655,480,l),
(663,481.333,o),
(675,491,o),
(675,495,c),
(671,501.667,o),
(660.333,508.333,o),
(647,511,cs),
(643,512.333,o),
(634.667,513,o),
(622,513,cs),
(610.667,513,o),
(602.333,512.667,o),
(597,512,cs),
(570,509,l),
(583,571,ls),
(585.667,585,o),
(587,597.333,o),
(587,608,cs),
(587,626,o),
(583.667,638.333,o),
(577,645,cs),
(562.333,659,o),
(544.333,669.333,o),
(523,676,cs),
(515.667,678,o),
(509.5,675,o),
(504.5,667,cs),
(499.5,659,o),
(495.667,646.667,o),
(493,630,cs),
(489,603.333,o),
(482,560.667,o),
(478,542,cs),
(470,501,l),
(360,493,l),
(374,535,ls),
(377.333,547.667,o),
(382.833,566.833,o),
(390.5,592.5,cs),
(398.167,618.167,o),
(404.667,641,o),
(410,661,cs),
(413.333,671,o),
(415,679.333,o),
(415,686,cs),
(415,706,o),
(401,717.333,o),
(369,724,c),
(365.667,725.333,o),
(360.333,726,o),
(353,726,cs),
(324,725,l),
(308,658,ls),
(283.333,556.667,o),
(269.333,499,o),
(266,485,c),
(200,479,ls),
(171.333,475.667,o),
(138.333,469.667,o),
(101,461,cs),
(85,457,o),
(65.667,447.667,o),
(67,441,cs),
(68.333,430.333,o),
(81.667,417.667,o),
(95,411,cs),
(114.333,403,o),
(135.667,399,o),
(159,399,cs),
(166.333,399,o),
(178.667,400,o),
(196,402,cs),
(223,406,ls),
(227.667,406.667,o),
(232.333,407.167,o),
(237,407.5,cs),
(241.667,407.833,o),
(245.667,408.333,o),
(249,409,c),
(245,387,ls),
(240.333,362.333,o),
(234.667,339.667,o),
(228,319,c),
(228,318,l),
(117,297,ls),
(106.333,295.667,o),
(95.333,292.667,o),
(84,288,cs),
(68,280,o),
(60,271.333,o),
(60,262,cs),
(60,253.333,o),
(67.667,244.333,o),
(83,235,cs),
(109,221.667,o),
(133.333,215,o),
(156,215,cs),
(164,215,o),
(172.667,216,o),
(182,218,cs),
(185.333,219.333,o),
(191.667,220.667,o),
(201,222,c),
(187.667,176,o),
(178,141.667,o),
(172,119,cs),
(167.333,101.667,o),
(164,80.333,o),
(162,55,cs),
(160.667,41,o),
(159.667,31.333,o),
(159,26,c),
(172.333,18,o),
(182.667,12.333,o),
(190,9,cs),
(197.333,5.667,o),
(203.667,4,o),
(209,4,cs)
);
},
{
closed = 1;
nodes = (
(323,350,ls),
(330.333,378,o),
(336.333,402,o),
(341,422,c),
(458,437,l),
(458,434.333,o),
(457.333,431.667,o),
(456,429,c),
(441,344,l),
(406,343,l),
(318,332,l),
(318,332,l)
);
}
);
userData = {
assembly = "NPUSHB[ ]	/* 25 values pushed */
128 100 85 64 53 5 3 5 118 1 7 6 132 36 19 3 2 7 30 15 2 0 2 4 76 
MPPEM[ ]	/* MeasurePixelPerEm */
PUSHB[ ]	/* 1 value pushed */
21 
LT[ ]	/* LessThan */
IF[ ]	/* If */
NPUSHB[ ]	/* 48 values pushed */
0 5 4 3 4 5 3 128 0 3 6 4 3 6 126 0 6 7 4 6 7 126 0 7 2 4 7 2 126 0 2 0 4 2 0 126 0 4 4 36 77 1 1 0 0 40 0 78 
ELSE[ ]	/* Else */
MPPEM[ ]	/* MeasurePixelPerEm */
PUSHB[ ]	/* 1 value pushed */
44 
LT[ ]	/* LessThan */
IF[ ]	/* If */
NPUSHB[ ]	/* 37 values pushed */
0 4 5 4 133 0 5 3 5 133 0 3 6 3 133 0 6 7 6 133 0 7 2 7 133 0 2 0 2 133 1 1 0 0 40 0 78 
ELSE[ ]	/* Else */
NPUSHB[ ]	/* 35 values pushed */
0 4 5 4 133 0 5 3 5 133 0 3 6 3 133 0 6 7 6 133 0 7 2 7 133 0 2 0 2 133 1 1 0 0 118 
EIF[ ]	/* EndIf */
EIF[ ]	/* EndIf */
NPUSHB[ ]	/* 16 values pushed */
134 133 121 119 104 102 75 73 60 58 44 28 44 8 8 25 
CALL[ ]	/* CallFunction */";
};
width = 752;
}
);
metricLeft = H;
metricRight = H;
note = numbersign;
unicode = 35;
},
{
glyphname = dollar;
lastChange = "2022-05-30 09:55:51 +0000";
layers = (
{
layerId = "D6A4831D-747C-4592-93C0-305F4CD57904";
shapes = (
{
closed = 1;
nodes = (
(325.333,-157,o),
(339,-137.667,o),
(339,-99,cs),
(339,-24,ls),
(339.667,5.333,o),
(339.333,30.333,o),
(338,51,cs),
(337,68,ls),
(336.333,75.333,o),
(339.333,81.167,o),
(346,85.5,cs),
(352.667,89.833,o),
(364.333,97,o),
(381,107,cs),
(423,131.667,o),
(456.667,171,o),
(482,225,c),
(494,244.333,o),
(498.333,264.667,o),
(495,286,cs),
(491,310,o),
(482.667,332,o),
(464,344,cs),
(444,357.333,o),
(412.667,369.667,o),
(390,375,c),
(349.333,380.333,o),
(326.833,384.333,o),
(322.5,387,cs),
(318.167,389.667,o),
(316,394.333,o),
(316,401,cs),
(316,409.667,o),
(318.667,439,o),
(324,489,c),
(352,486,ls),
(365.333,484.667,o),
(379.333,483.667,o),
(394,483,cs),
(400.667,483,o),
(405.333,483.333,o),
(408,484,cs),
(438.667,492,o),
(437.667,492,o),
(463,508,cs),
(473,514.667,o),
(478,522.667,o),
(478,532,cs),
(478,541.333,o),
(473.333,549,o),
(464,555,c),
(426.667,585,o),
(390.667,597.333,o),
(356,592,cs),
(314.667,585.333,o),
(316.333,594,o),
(315,630,cs),
(314.333,649.333,o),
(314.167,666.667,o),
(314.5,682,cs),
(314.833,697.333,o),
(312.333,713.333,o),
(307,730,cs),
(299,754,o),
(285.333,766,o),
(266,766,cs),
(262,766,o),
(255.667,765.333,o),
(247,764,cs),
(221.667,758.667,o),
(219.667,744.667,o),
(221,722,cs),
(222,700,ls),
(222.667,688.667,o),
(222.833,679.167,o),
(222.5,671.5,cs),
(222.167,663.833,o),
(222,657.667,o),
(222,653,cs),
(222,632,l),
(227,570,l),
(225.667,562.667,o),
(211,552,o),
(183,538,c),
(143,524.667,o),
(110.667,504.667,o),
(86,478,cs),
(58,448,o),
(46.667,413,o),
(52,373,cs),
(56,342.333,o),
(72.667,318.667,o),
(102,292,cs),
(130,266.667,o),
(151.667,263.667,o),
(169,265,cs),
(179.667,265.667,o),
(188.333,266.667,o),
(195,268,cs),
(233.667,274.667,o),
(239,263,o),
(239,239,cs),
(239,234.333,o),
(238.833,228.167,o),
(238.5,220.5,cs),
(238.167,212.833,o),
(238,206.333,o),
(238,201,cs),
(238.667,197.667,o),
(239,192.667,o),
(239,186,cs),
(239,155.333,o),
(244.333,138.667,o),
(199,132,cs),
(189,130.667,o),
(170,134.333,o),
(142,143,cs),
(135.333,144.333,o),
(121.333,140.333,o),
(116,139,c),
(116.667,137.667,o),
(117.333,131,o),
(118,119,cs),
(118.667,107,o),
(120.333,100.333,o),
(123,99,cs),
(147,85,o),
(163.667,75.667,o),
(173,71,cs),
(182.333,66.333,o),
(192.333,62.667,o),
(203,60,cs),
(215,57.333,o),
(225.167,55.167,o),
(233.5,53.5,cs),
(241.833,51.833,o),
(246,42,o),
(246,24,cs),
(248,1.333,o),
(249.333,-16,o),
(250,-28,cs),
(251.333,-45.333,o),
(253,-67.333,o),
(253,-102,cs),
(254.333,-146,o),
(254,-157,o),
(298,-157,cs)
);
},
{
closed = 1;
nodes = (
(168.667,339,o),
(151.333,362.667,o),
(154,392,c),
(152.667,399.333,o),
(152,404.333,o),
(152,407,cs),
(152,437.667,o),
(181.333,456.333,o),
(224,471,c),
(228,471,o),
(231,460.5,o),
(233,439.5,cs),
(235,418.5,o),
(236,399.333,o),
(236,382,cs),
(236,373.333,o),
(235.333,365.333,o),
(234,358,cs),
(232.667,347.333,o),
(214,339,o),
(194,339,cs)
);
},
{
closed = 1;
nodes = (
(321.667,195.667,o),
(318.333,230.667,o),
(315,268,cs),
(311.667,305.333,o),
(328.667,318.667,o),
(366,308,c),
(376,308,o),
(390,305.333,o),
(408,300,c),
(410.667,250.667,o),
(383.667,189.667,o),
(325,163,c)
);
}
);
userData = {
assembly = "NPUSHB[ ]	/* 89 values pushed */
122 120 2 7 0 131 1 4 8 137 1 3 4 43 41 2 2 3 4 76 0 5 6 5 133 0 8 7 4 7 8 4 128 0 3 4 2 4 3 2 128 0 2 2 132 0 6 1 1 0 7 6 0 105 0 7 8 4 7 89 0 7 7 4 97 0 4 7 4 81 134 132 126 124 104 102 96 94 71 70 59 57 35 33 17 17 9 8 24 
CALL[ ]	/* CallFunction */";
};
width = 545;
}
);
note = dollar;
unicode = 36;
},
{
glyphname = percent;
lastChange = "2022-05-30 09:55:51 +0000";
layers = (
{
layerId = "D6A4831D-747C-4592-93C0-305F4CD57904";
shapes = (
{
closed = 1;
nodes = (
(100,99.333,o),
(125,111.667,o),
(137,121,cs),
(165,145,ls),
(233.667,203.667,o),
(284.333,249.333,o),
(317,282,cs),
(379.667,344.667,o),
(478.667,447,o),
(524,495,cs),
(574.667,545.667,o),
(623.667,596.667,o),
(671,648,cs),
(679,656.667,o),
(683,665.333,o),
(683,674,cs),
(683,684.667,o),
(675,696,o),
(663,700,c),
(653,705.333,o),
(640,708,o),
(624,708,cs),
(617.333,708,o),
(609.333,707.333,o),
(600,706,cs),
(564,700.667,o),
(543.333,683.333,o),
(514,646,cs),
(504.667,634,o),
(497,625,o),
(491,619,cs),
(424.333,551,o),
(337.667,458,o),
(231,340,c),
(197.667,306.667,o),
(150.333,251,o),
(89,173,cs),
(67,145,ls),
(62.333,138.333,o),
(60,130,o),
(60,120,cs),
(60,116.667,o),
(60.333,114,o),
(61,112,cs),
(61.667,108.667,o),
(65.333,105.5,o),
(72,102.5,cs),
(78.667,99.5,o),
(84,96.667,o),
(88,94,c)
);
},
{
closed = 1;
nodes = (
(672,76,o),
(724,110,o),
(724,182,cs),
(724,260.667,o),
(679.667,321,o),
(617,321,cs),
(602,321,ls),
(580.667,321,o),
(565,324.333,o),
(553,343,c),
(552.333,345,o),
(549.333,346,o),
(544,346,cs),
(539.333,346,o),
(536,345,o),
(534,343,cs),
(514,328.333,o),
(500.5,317.833,o),
(493.5,311.5,cs),
(486.5,305.167,o),
(480.667,298.333,o),
(476,291,cs),
(462,268.333,o),
(455,244.333,o),
(455,219,cs),
(455,153.667,o),
(500.333,94.667,o),
(559,80,c),
(575.667,77.333,o),
(590.667,76,o),
(604,76,cs)
);
},
{
closed = 1;
nodes = (
(567,154.333,o),
(548,193.333,o),
(548,232,cs),
(548,260,o),
(556.667,283.333,o),
(574,302,c),
(619.333,279.333,o),
(642,241,o),
(642,205,cs),
(642,177.667,o),
(629,153.667,o),
(603,133,c)
);
},
{
closed = 1;
nodes = (
(334,548,ls),
(361.333,556.667,o),
(380.667,565.667,o),
(392,575,cs),
(421.333,599,o),
(436.667,628.667,o),
(438,664,cs),
(438.667,682.667,o),
(434.333,706,o),
(425,734,cs),
(409,783.333,o),
(354.667,833,o),
(308,833,cs),
(274,833,ls),
(256.667,833,o),
(245,830.667,o),
(239,826,cs),
(210.333,803.333,o),
(190.667,779.333,o),
(180,754,cs),
(172,735.333,o),
(168.333,714.667,o),
(169,692,cs),
(171.667,614.667,o),
(211.333,547,o),
(290,547,cs),
(296.667,547,o),
(302,547.333,o),
(306,548,c),
(309,539,l),
(309,539,l)
);
},
{
closed = 1;
nodes = (
(267.333,607,o),
(261.333,613.333,o),
(258,626,cs),
(242.667,684,o),
(232,734.667,o),
(226,778,cs),
(223.333,796.667,o),
(250.667,815,o),
(276,815,c),
(312,797.667,o),
(334.167,783,o),
(342.5,771,cs),
(350.833,759,o),
(355.333,749,o),
(356,741,c),
(350.667,671.667,o),
(338,637,o),
(294,613,cs),
(286.667,609,o),
(280.667,607,o),
(276,607,cs)
);
}
);
userData = {
assembly = "NPUSHB[ ]	/* 15 values pushed */
25 1 4 2 94 1 6 0 110 105 2 5 6 3 76 
MPPEM[ ]	/* MeasurePixelPerEm */
PUSHB[ ]	/* 1 value pushed */
21 
LT[ ]	/* LessThan */
IF[ ]	/* If */
NPUSHB[ ]	/* 31 values pushed */
0 1 0 2 4 1 2 105 0 3 7 1 0 6 3 0 105 8 1 6 0 5 6 5 101 0 4 4 36 4 78 
ELSE[ ]	/* Else */
NPUSHB[ ]	/* 43 values pushed */
0 4 2 3 2 4 3 128 0 1 0 2 4 1 2 105 0 3 7 1 0 6 3 0 105 8 1 6 5 5 6 89 8 1 6 6 5 97 0 5 6 5 81 
EIF[ ]	/* EndIf */
NPUSHB[ ]	/* 25 values pushed */
76 76 2 0 76 100 76 98 82 80 61 59 36 35 30 28 12 9 0 22 2 22 9 8 22 
CALL[ ]	/* CallFunction */";
};
width = 774;
}
);
note = percent;
unicode = 37;
},
{
glyphname = ampersand;
lastChange = "2022-05-30 09:55:51 +0000";
layers = (
{
layerId = "D6A4831D-747C-4592-93C0-305F4CD57904";
shapes = (
{
closed = 1;
nodes = (
(634,-65,o),
(651,-41.667,o),
(651,-7,cs),
(651,70.333,o),
(615,129.333,o),
(543,170,cs),
(527,180,o),
(519,190,o),
(519,200,cs),
(519,206.667,o),
(521.667,215.667,o),
(527,227,cs),
(539.667,258.333,o),
(554,301,o),
(570,355,cs),
(572,362.333,o),
(573,369.667,o),
(573,377,cs),
(573,399.667,o),
(560.333,411,o),
(535,411,cs),
(509.667,411,o),
(493.333,396.667,o),
(486,368,cs),
(482,352.667,o),
(476.333,336.667,o),
(469,320,cs),
(461.667,303.333,o),
(457,292.667,o),
(455,288,cs),
(453,282.667,o),
(450.5,276.5,o),
(447.5,269.5,cs),
(444.5,262.5,o),
(441,254,o),
(437,244,c),
(395,274.667,o),
(364.333,297.333,o),
(345,312,cs),
(329.667,323.333,o),
(322,335,o),
(322,347,cs),
(322,359.667,o),
(329.667,372.333,o),
(345,385,cs),
(385.667,421.667,o),
(411.333,470,o),
(422,530,cs),
(423.333,537.333,o),
(424,543.333,o),
(424,548,cs),
(424,594.667,o),
(398.333,655.333,o),
(365,678,cs),
(345.667,690.667,o),
(321,697,o),
(291,697,c),
(189,678.333,o),
(126.667,651.167,o),
(104,615.5,cs),
(81.333,579.833,o),
(70,545,o),
(70,511,cs),
(70,453.667,o),
(99,408,o),
(147,364,cs),
(158.333,353.333,o),
(164,344.333,o),
(164,337,cs),
(164,331,o),
(159.333,322,o),
(150,310,cs),
(109.333,260.667,o),
(89,211.333,o),
(89,162,cs),
(89,152.667,o),
(90.333,142.333,o),
(93,131,c),
(105,47,o),
(176,-11,o),
(256,-11,cs),
(280.667,-11,o),
(305,-5.333,o),
(329,6,cs),
(358.333,19.333,o),
(380,40,o),
(416,76,cs),
(436,96,ls),
(450.667,110.667,o),
(455.333,116,o),
(466,116,cs),
(469.333,116,o),
(475,114.333,o),
(483,111,cs),
(521.667,92.333,o),
(564,28.333,o),
(564,-13,cs),
(564,-17.667,o),
(563.667,-21,o),
(563,-23,cs),
(562.333,-25,o),
(562,-28.333,o),
(562,-33,cs),
(562,-49,o),
(572.667,-58,o),
(590,-62,cs),
(596,-64,o),
(601.333,-65,o),
(606,-65,cs)
);
},
{
closed = 1;
nodes = (
(226,64,o),
(203.333,84,o),
(198,112,cs),
(195.333,130.667,o),
(194,144.667,o),
(194,154,cs),
(194,196,o),
(207,234.667,o),
(233,270,c),
(291,242,ls),
(300.333,238,o),
(310.667,231.5,o),
(322,222.5,cs),
(333.333,213.5,o),
(346.333,203.667,o),
(361,193,c),
(366.333,190.333,o),
(369,180,o),
(369,172,cs),
(369,167.333,o),
(368.333,164.333,o),
(367,163,cs),
(341.667,127,o),
(318,97.667,o),
(296,75,c),
(276.667,67.667,o),
(261.333,64,o),
(250,64,cs)
);
},
{
closed = 1;
nodes = (
(225,407,o),
(213,413.667,o),
(205,427,c),
(182.333,453.667,o),
(171.667,482.667,o),
(173,514,cs),
(173,547.333,o),
(189,580.667,o),
(217,606,cs),
(233,620,o),
(250.667,629,o),
(270,633,c),
(296.17,633,o),
(317,608.476,o),
(317,550,c),
(303,503,l),
(298.333,493.667,o),
(293.333,482.667,o),
(288,470,cs),
(282.667,457.333,o),
(276,443,o),
(268,427,c),
(257.333,413.667,o),
(248.333,407,o),
(241,407,cs)
);
}
);
userData = {
assembly = "MPPEM[ ]	/* MeasurePixelPerEm */
PUSHB[ ]	/* 1 value pushed */
46 
LT[ ]	/* LessThan */
IF[ ]	/* If */
NPUSHB[ ]	/* 18 values pushed */
82 70 2 0 5 116 103 1 3 2 0 33 29 2 1 3 3 76 
ELSE[ ]	/* Else */
NPUSHB[ ]	/* 18 values pushed */
82 70 2 6 5 116 103 1 3 2 0 33 29 2 1 3 3 76 
EIF[ ]	/* EndIf */
MPPEM[ ]	/* MeasurePixelPerEm */
PUSHB[ ]	/* 1 value pushed */
26 
LT[ ]	/* LessThan */
IF[ ]	/* If */
NPUSHB[ ]	/* 40 values pushed */
6 1 0 5 2 5 0 2 128 0 2 7 5 2 7 126 0 4 0 5 0 4 5 105 0 7 7 3 98 0 3 3 34 77 0 1 1 31 1 78 
ELSE[ ]	/* Else */
MPPEM[ ]	/* MeasurePixelPerEm */
PUSHB[ ]	/* 1 value pushed */
46 
LT[ ]	/* LessThan */
IF[ ]	/* If */
NPUSHB[ ]	/* 40 values pushed */
6 1 0 5 2 5 0 2 128 0 2 7 5 2 7 126 0 1 3 1 134 0 4 0 5 0 4 5 105 0 7 7 3 98 0 3 3 34 3 78 
ELSE[ ]	/* Else */
NPUSHB[ ]	/* 46 values pushed */
0 6 5 0 5 6 0 128 0 0 2 5 0 2 126 0 2 7 5 2 7 126 0 1 3 1 134 0 4 0 5 6 4 5 105 0 7 7 3 98 0 3 3 34 3 78 
EIF[ ]	/* EndIf */
EIF[ ]	/* EndIf */
NPUSHB[ ]	/* 15 values pushed */
111 109 98 96 89 87 66 64 39 45 29 40 8 8 26 
CALL[ ]	/* CallFunction */";
};
width = 701;
}
);
note = ampersand;
unicode = 38;
},
{
glyphname = quotesingle;
lastChange = "2022-05-30 09:55:51 +0000";
layers = (
{
layerId = "D6A4831D-747C-4592-93C0-305F4CD57904";
shapes = (
{
closed = 1;
nodes = (
(96,464,o),
(119,473,o),
(125,488,cs),
(143,531,o),
(155,577,o),
(167,622,cs),
(176,660,o),
(143,691,o),
(94,679,c),
(92,677,o),
(77,669,o),
(76,659,cs),
(69,598,o),
(64,537,o),
(60,476,cs),
(59,469,o),
(76,454,o),
(79,455,c)
);
}
);
userData = {
assembly = "NPUSHB[ ]	/* 12 values pushed */
14 1 0 73 0 0 0 118 34 1 8 23 
CALL[ ]	/* CallFunction */";
};
width = 218;
}
);
note = quotesingle;
unicode = 39;
},
{
glyphname = parenleft;
lastChange = "2022-05-30 09:55:51 +0000";
layers = (
{
layerId = "D6A4831D-747C-4592-93C0-305F4CD57904";
shapes = (
{
closed = 1;
nodes = (
(344,-124,o),
(371.667,-119.333,o),
(381,-102,c),
(343,-77,l),
(310,-62,ls),
(267.333,-42.667,o),
(232.333,-25,o),
(205,-9,c),
(183.667,6.333,o),
(164,30,o),
(146,62,c),
(144.667,95.333,o),
(146,120.667,o),
(150,138,cs),
(167.333,215.333,o),
(194,285,o),
(238,369,cs),
(270.667,433,o),
(316.333,488.333,o),
(375,535,cs),
(387.667,545,o),
(394,555.667,o),
(394,567,cs),
(394,571,o),
(393,575,o),
(391,579,cs),
(380.333,608.333,o),
(355,625.333,o),
(331,632,c),
(280,593,ls),
(272.667,587.667,o),
(266.667,581.667,o),
(262,575,c),
(154.667,460.333,o),
(88,320,o),
(62,154,cs),
(60.667,143.333,o),
(60,135.667,o),
(60,131,cs),
(60.667,110.333,o),
(65.667,83,o),
(75,49,cs),
(89.667,-3,o),
(124,-32.667,o),
(184,-74,cs),
(232,-107.333,o),
(280,-124,o),
(328,-124,cs)
);
}
);
userData = {
assembly = "NPUSHB[ ]	/* 12 values pushed */
16 1 0 74 0 0 0 118 33 1 8 23 
CALL[ ]	/* CallFunction */";
};
width = 429;
}
);
note = parenleft;
unicode = 40;
},
{
glyphname = parenright;
lastChange = "2022-05-30 09:55:51 +0000";
layers = (
{
layerId = "D6A4831D-747C-4592-93C0-305F4CD57904";
shapes = (
{
closed = 1;
nodes = (
(165,-113.333,o),
(214.667,-91.667,o),
(244,-41,cs),
(291.333,41.667,o),
(315,120,o),
(315,194,cs),
(315,202.667,o),
(314.333,215.667,o),
(313,233,cs),
(310,256,ls),
(299.333,342.667,o),
(291.667,403,o),
(261,451,cs),
(247.667,470.333,o),
(220.333,505,o),
(179,555,cs),
(151,589,ls),
(135,607.667,o),
(109.333,609,o),
(60,609,c),
(62.667,587.667,o),
(72,571,o),
(80,559,cs),
(78.667,561,o),
(87,550.667,o),
(105,528,c),
(111.667,521.333,o),
(118,514,o),
(124,506,cs),
(128,501.333,o),
(136.167,491.833,o),
(148.5,477.5,cs),
(160.833,463.167,o),
(170.333,449,o),
(177,435,cs),
(209,368.333,o),
(225,302,o),
(225,236,cs),
(225.667,155.333,o),
(202.333,76.667,o),
(155,0,cs),
(81,-120,l),
(81,-120,l)
);
}
);
userData = {
assembly = "NPUSHB[ ]	/* 12 values pushed */
19 1 0 73 0 0 0 118 18 1 8 23 
CALL[ ]	/* CallFunction */";
};
width = 356;
}
);
note = parenright;
unicode = 41;
},
{
glyphname = asterisk;
lastChange = "2022-05-30 09:55:51 +0000";
layers = (
{
layerId = "D6A4831D-747C-4592-93C0-305F4CD57904";
shapes = (
{
closed = 1;
nodes = (
(343.333,-31.333,o),
(349.833,-28.167,o),
(357.5,-24.5,cs),
(365.167,-20.833,o),
(369.333,-17.667,o),
(370,-15,cs),
(377.333,47,o),
(384.667,117,o),
(392,195,cs),
(396,232,l),
(498,180,ls),
(501.333,178,o),
(506.5,174.667,o),
(513.5,170,cs),
(520.5,165.333,o),
(526.667,163,o),
(532,163,cs),
(540,163,o),
(547,167,o),
(553,175,c),
(534.333,215,o),
(505,236.333,o),
(453,267,cs),
(433,279,o),
(418.333,288.333,o),
(409,295,c),
(440,313,l),
(485,338,ls),
(523,358.667,o),
(547,372,o),
(557,378,cs),
(560.333,380,o),
(563.333,383.667,o),
(566,389,cs),
(568.667,394.333,o),
(570.667,398.333,o),
(572,401,c),
(569.333,402.333,o),
(565.333,404.5,o),
(560,407.5,cs),
(554.667,410.5,o),
(550,412,o),
(546,412,cs),
(537.333,412.667,o),
(524.333,413,o),
(507,413,cs),
(465,413,l),
(473,432,ls),
(485.667,459.333,o),
(495,482.667,o),
(501,502,cs),
(502.333,508.667,o),
(503,514.333,o),
(503,519,cs),
(503,535,o),
(501.333,547.667,o),
(500,557,c),
(496.667,555.667,o),
(489.5,552.833,o),
(478.5,548.5,cs),
(467.5,544.167,o),
(458,539.333,o),
(450,534,cs),
(444,530,o),
(438.167,524.333,o),
(432.5,517,cs),
(426.833,509.667,o),
(422.667,504.333,o),
(420,501,cs),
(374,443,l),
(357,465,ls),
(335,494.333,o),
(315,519,o),
(297,539,cs),
(294.333,541.667,o),
(289,543,o),
(281,543,cs),
(271.667,543,o),
(263.667,541.333,o),
(257,538,cs),
(250.333,534.667,o),
(247,523.333,o),
(247,504,cs),
(247.667,482,o),
(250,450.333,o),
(254,409,c),
(243,405,l),
(221,431,l),
(189,475,o),
(159.667,501.667,o),
(117,511,cs),
(103.667,513.667,o),
(82.667,506.667,o),
(72,496,c),
(70.667,493.333,o),
(70,490.333,o),
(70,487,cs),
(70,475,o),
(74.333,460.667,o),
(81,454,cs),
(112.333,421.333,o),
(147,389.333,o),
(185,358,cs),
(196.333,349.333,o),
(202,342,o),
(202,336,cs),
(202,332,o),
(200.167,328.5,o),
(196.5,325.5,cs),
(192.833,322.5,o),
(187,318.667,o),
(179,314,cs),
(143,296,o),
(109,275,o),
(77,251,cs),
(65.667,242.333,o),
(60,233,o),
(60,223,cs),
(60,212.333,o),
(70,200.333,o),
(86,195,cs),
(96.667,191.667,o),
(113.667,190,o),
(137,190,cs),
(158,190,ls),
(159.333,190,o),
(168.667,191.333,o),
(186,194,c),
(173,168,ls),
(171,164.667,o),
(167.5,157.667,o),
(162.5,147,cs),
(157.5,136.333,o),
(152.333,127.333,o),
(147,120,cs),
(139.667,108.667,o),
(136,98.333,o),
(136,89,cs),
(136,77,o),
(142.333,66.667,o),
(155,58,cs),
(167.667,50,o),
(181.333,46,o),
(196,46,cs),
(216.667,46,o),
(231.667,53,o),
(241,67,cs),
(266,107,ls),
(268.667,111,o),
(271.833,116.167,o),
(275.5,122.5,cs),
(279.167,128.833,o),
(283.667,136,o),
(289,144,c),
(338,-34,l),
(338,-34,l)
);
}
);
userData = {
assembly = "NPUSHB[ ]	/* 27 values pushed */
86 12 2 3 0 4 96 64 41 30 4 3 0 35 1 1 3 48 1 2 1 4 76 47 1 2 73 
MPPEM[ ]	/* MeasurePixelPerEm */
PUSHB[ ]	/* 1 value pushed */
39 
LT[ ]	/* LessThan */
IF[ ]	/* If */
NPUSHB[ ]	/* 30 values pushed */
0 4 0 4 133 0 3 0 1 0 3 1 128 0 1 2 0 1 2 126 0 2 2 132 0 0 0 33 0 78 
ELSE[ ]	/* Else */
NPUSHB[ ]	/* 24 values pushed */
0 4 0 4 133 0 0 3 0 133 0 3 1 3 133 0 1 2 1 133 0 2 2 118 
EIF[ ]	/* EndIf */
NPUSHB[ ]	/* 13 values pushed */
103 101 68 65 55 53 37 36 19 17 5 8 22 
CALL[ ]	/* CallFunction */";
};
width = 622;
}
);
note = asterisk;
unicode = 42;
},
{
glyphname = plus;
lastChange = "2022-05-30 09:55:51 +0000";
layers = (
{
layerId = "D6A4831D-747C-4592-93C0-305F4CD57904";
shapes = (
{
closed = 1;
nodes = (
(248,-34,o),
(255,-31.333,o),
(263,-26,cs),
(290.333,-8,o),
(307.333,8.667,o),
(314,24,cs),
(328.667,60,o),
(347.333,115.667,o),
(370,191,cs),
(378,219,o),
(391.333,232,o),
(422,236,cs),
(438,238,o),
(462.333,241.333,o),
(495,246,cs),
(550,255,l),
(584.667,272.333,o),
(623,315.667,o),
(623,341,cs),
(623,357,o),
(610,365,o),
(584,365,cs),
(571,364,ls),
(543,360.667,o),
(500,357,o),
(442,353,cs),
(436.667,352.333,o),
(430.5,353,o),
(423.5,355,cs),
(416.5,357,o),
(411.333,358.333,o),
(408,359,c),
(409,420,ls),
(409,433.333,o),
(408.667,443.333,o),
(408,450,cs),
(404,488.667,o),
(381.333,515.333,o),
(340,530,cs),
(334,532.667,o),
(327.667,534,o),
(321,534,cs),
(299.667,534,o),
(285.667,516.667,o),
(283,490,cs),
(283,486.667,o),
(283.667,482.167,o),
(285,476.5,cs),
(286.333,470.833,o),
(287,466.333,o),
(287,463,cs),
(288,405,ls),
(288,387.667,o),
(287.333,375,o),
(286,367,cs),
(275.333,315,o),
(270.667,323,o),
(240,315,cs),
(172,296.333,o),
(123.667,278,o),
(81,242,cs),
(67,230,o),
(60,218,o),
(60,206,cs),
(60,183.333,o),
(72.667,168.333,o),
(98,161,cs),
(117.333,155.667,o),
(132.333,153,o),
(143,153,cs),
(162.333,153,o),
(180,158.333,o),
(196,169,cs),
(212.667,181.667,o),
(232,188,o),
(254,188,c),
(249,154,l),
(243,116,ls),
(234.333,61.333,o),
(228.667,21.333,o),
(226,-4,cs),
(224.667,-22.667,o),
(231.333,-34,o),
(242,-34,cs)
);
}
);
userData = {
assembly = "NPUSHB[ ]	/* 14 values pushed */
43 1 5 3 56 1 4 5 19 1 0 2 3 76 
MPPEM[ ]	/* MeasurePixelPerEm */
PUSHB[ ]	/* 1 value pushed */
26 
LT[ ]	/* LessThan */
IF[ ]	/* If */
NPUSHB[ ]	/* 37 values pushed */
0 3 5 3 133 0 1 4 2 4 1 2 128 0 2 0 4 2 0 126 6 1 5 5 33 77 0 4 4 33 77 0 0 0 31 0 78 
ELSE[ ]	/* Else */
MPPEM[ ]	/* MeasurePixelPerEm */
PUSHB[ ]	/* 1 value pushed */
31 
LT[ ]	/* LessThan */
IF[ ]	/* If */
NPUSHB[ ]	/* 39 values pushed */
0 3 5 3 133 0 4 5 1 5 4 1 128 0 1 2 5 1 2 126 0 2 0 5 2 0 126 6 1 5 5 33 77 0 0 0 31 0 78 
ELSE[ ]	/* Else */
NPUSHB[ ]	/* 38 values pushed */
0 3 5 3 133 0 4 5 1 5 4 1 128 0 1 2 5 1 2 126 0 2 0 5 2 0 126 0 0 0 132 6 1 5 5 33 5 78 
EIF[ ]	/* EndIf */
EIF[ ]	/* EndIf */
NPUSHB[ ]	/* 16 values pushed */
0 0 0 62 0 62 60 59 50 48 34 22 47 7 8 25 
CALL[ ]	/* CallFunction */";
};
width = 673;
}
);
note = plus;
unicode = 43;
},
{
glyphname = comma;
lastChange = "2022-05-30 09:55:51 +0000";
layers = (
{
layerId = "D6A4831D-747C-4592-93C0-305F4CD57904";
shapes = (
{
closed = 1;
nodes = (
(156.667,-148,o),
(199,-90.5,o),
(221,-35.5,cs),
(243,19.5,o),
(256,58.333,o),
(260,81,cs),
(267.37,115.395,o),
(170.995,119.658,o),
(158,98,c),
(120,12,l),
(90,-86,l),
(80.667,-130,o),
(70.667,-162.667,o),
(60,-184,cs),
(59.333,-185.333,o),
(59.167,-190.5,o),
(59.5,-199.5,cs),
(59.833,-208.5,o),
(71.333,-211.333,o),
(94,-208,c)
);
}
);
userData = {
assembly = "PUSHB[ ]	/* 4 values pushed */
10 2 1 50 
CALL[ ]	/* CallFunction */";
};
width = 330;
}
);
note = comma;
unicode = 44;
},
{
glyphname = hyphen;
lastChange = "2022-05-30 09:55:51 +0000";
layers = (
{
layerId = "D6A4831D-747C-4592-93C0-305F4CD57904";
shapes = (
{
closed = 1;
nodes = (
(179.333,199,o),
(186.667,199.667,o),
(196,201,cs),
(228,207,ls),
(251.333,212.333,o),
(270,215.667,o),
(284,217,cs),
(324,220,ls),
(368.667,224.667,o),
(407,227,o),
(439,227,cs),
(481,227,o),
(516.333,223.333,o),
(545,216,cs),
(547,215.333,o),
(553.333,216,o),
(564,218,c),
(568.667,225.333,o),
(571,232.333,o),
(571,239,cs),
(571,252.333,o),
(563,260,o),
(547,272,cs),
(496.333,310.667,o),
(436,323,o),
(364,323,cs),
(318,323,o),
(259.667,320,o),
(189,314,cs),
(141,311,ls),
(123,309,o),
(105.667,304.333,o),
(89,297,cs),
(69.667,287.667,o),
(60,276.667,o),
(60,264,cs),
(60,252.667,o),
(66.667,242.333,o),
(80,233,cs),
(110,210.333,o),
(141.333,199,o),
(174,199,cs)
);
}
);
userData = {
assembly = "NPUSHB[ ]	/* 31 values pushed */
0 2 0 1 2 87 0 3 0 0 1 3 0 105 0 2 2 1 97 0 1 2 1 81 33 23 38 39 4 8 26 
CALL[ ]	/* CallFunction */";
};
width = 621;
}
);
note = hyphen;
unicode = 45;
},
{
glyphname = period;
lastChange = "2022-05-30 09:55:51 +0000";
layers = (
{
layerId = "D6A4831D-747C-4592-93C0-305F4CD57904";
shapes = (
{
closed = 1;
nodes = (
(148.667,-34,o),
(174,-10.667,o),
(182,16,cs),
(183.333,21.333,o),
(184,25.333,o),
(184,28,cs),
(184,52,o),
(169.333,84.333,o),
(152,95,cs),
(145.333,99.667,o),
(139,102,o),
(133,102,c),
(120.333,97.333,o),
(111.667,92.667,o),
(107,88,cs),
(102.333,83.333,o),
(99.333,80.333,o),
(98,79,c),
(98,79,o),
(95,77,o),
(89,73,cs),
(70.333,61,o),
(60,50,o),
(60,34,cs),
(60,0.667,o),
(95.333,-32.667,o),
(126,-34,cs)
);
}
);
userData = {
assembly = "PUSHB[ ]	/* 6 values pushed */
19 1 0 1 1 76 
MPPEM[ ]	/* MeasurePixelPerEm */
PUSHB[ ]	/* 1 value pushed */
31 
LT[ ]	/* LessThan */
IF[ ]	/* If */
NPUSHB[ ]	/* 11 values pushed */
0 1 1 0 97 0 0 0 31 0 78 
ELSE[ ]	/* Else */
NPUSHB[ ]	/* 16 values pushed */
0 1 0 0 1 89 0 1 1 0 97 0 0 1 0 81 
EIF[ ]	/* EndIf */
PUSHB[ ]	/* 5 values pushed */
42 33 2 8 24 
CALL[ ]	/* CallFunction */";
};
width = 234;
}
);
note = period;
unicode = 46;
},
{
glyphname = slash;
lastChange = "2022-05-30 09:55:51 +0000";
layers = (
{
layerId = "D6A4831D-747C-4592-93C0-305F4CD57904";
shapes = (
{
closed = 1;
nodes = (
(136.333,-80,o),
(144,-75.5,o),
(150,-66.5,cs),
(156,-57.5,o),
(162.333,-41.667,o),
(169,-19,cs),
(189,49,o),
(217.667,151.667,o),
(227,185,cs),
(228.333,189.667,o),
(229.667,194.167,o),
(231,198.5,cs),
(232.333,202.833,o),
(233.333,206.667,o),
(234,210,cs),
(272,356,ls),
(288.667,421.333,o),
(301,470,o),
(309,502,cs),
(321,542.667,o),
(335.667,592.333,o),
(353,651,cs),
(381,746,ls),
(384.333,759.333,o),
(386,769.667,o),
(386,777,cs),
(386,806.333,o),
(367.333,819.667,o),
(326,829,cs),
(318.667,831,o),
(311.333,832,o),
(304,832,cs),
(298,832,o),
(292,831.667,o),
(286,831,cs),
(280,830.333,o),
(273.333,830,o),
(266,830,c),
(262,815.333,o),
(254.667,784.667,o),
(244,738,cs),
(197,534,ls),
(187.667,494,o),
(181,464,o),
(177,444,cs),
(170.333,406.667,o),
(162.333,371,o),
(153,337,cs),
(120,221,ls),
(103.333,165.667,o),
(89.333,115.667,o),
(78,71,cs),
(74,53,o),
(69.667,26,o),
(65,-10,cs),
(60,-50,l),
(91.333,-70,o),
(113.667,-80,o),
(127,-80,cs)
);
}
);
userData = {
assembly = "PUSHB[ ]	/* 6 values pushed */
4 1 0 1 1 76 
MPPEM[ ]	/* MeasurePixelPerEm */
PUSHB[ ]	/* 1 value pushed */
31 
LT[ ]	/* LessThan */
IF[ ]	/* If */
NPUSHB[ ]	/* 12 values pushed */
2 1 1 0 1 133 0 0 0 31 0 78 
ELSE[ ]	/* Else */
NPUSHB[ ]	/* 10 values pushed */
2 1 1 0 1 133 0 0 0 118 
EIF[ ]	/* EndIf */
PUSHB[ ]	/* 6 values pushed */
33 30 33 3 8 25 
CALL[ ]	/* CallFunction */";
};
width = 436;
}
);
note = slash;
unicode = 47;
},
{
glyphname = zero;
lastChange = "2022-05-30 09:55:51 +0000";
layers = (
{
layerId = "D6A4831D-747C-4592-93C0-305F4CD57904";
shapes = (
{
closed = 1;
nodes = (
(295,-35,o),
(330.333,-22.667,o),
(363,2,cs),
(399,29.333,o),
(431.333,72.333,o),
(460,131,cs),
(493.333,199,o),
(514,251.667,o),
(514,309,cs),
(513.333,347.667,o),
(503,384.667,o),
(483,420,cs),
(477.667,429.333,o),
(466.333,445.667,o),
(449,469,cs),
(442.333,477,o),
(435.667,486,o),
(429,496,cs),
(419,508,l),
(434,511,l),
(444,512,l),
(453,514,l),
(465,519,ls),
(475.667,523.667,o),
(481.667,526.667,o),
(483,528,c),
(485.667,538.667,o),
(478.333,559,o),
(473,563,c),
(439.667,580.333,o),
(422,590,o),
(402,590,cs),
(399,590,ls),
(338.333,587.333,o),
(284.667,566.667,o),
(238,528,cs),
(192.667,490.667,o),
(141.667,433.667,o),
(115,395,cs),
(78.333,347,o),
(60,291.333,o),
(60,228,cs),
(60,196,o),
(64.667,160,o),
(74,120,cs),
(90,53.333,o),
(135,-0.333,o),
(195,-23,cs),
(216.333,-31,o),
(237,-35,o),
(257,-35,cs)
);
},
{
closed = 1;
nodes = (
(215.333,53,o),
(211,53.667,o),
(207,55,cs),
(187,61.667,o),
(169,99,o),
(165,127,cs),
(162.333,144.333,o),
(161.333,160.667,o),
(162,176,cs),
(164.667,268,o),
(197.667,345.667,o),
(261,409,cs),
(291,439,o),
(318.667,462.333,o),
(344,479,cs),
(360,491,o),
(372.667,497,o),
(382,497,cs),
(386,497,o),
(389.333,496.333,o),
(392,495,cs),
(403.333,488.333,o),
(409.667,470.333,o),
(411,441,c),
(411.667,438.333,o),
(412,434,o),
(412,428,cs),
(413,422,l),
(413,421,ls),
(407,275.667,o),
(363.667,162.667,o),
(283,82,cs),
(267,66,o),
(241.333,53,o),
(220,53,cs)
);
}
);
userData = {
assembly = "PUSHB[ ]	/* 6 values pushed */
17 1 3 0 1 76 
MPPEM[ ]	/* MeasurePixelPerEm */
PUSHB[ ]	/* 1 value pushed */
29 
LT[ ]	/* LessThan */
IF[ ]	/* If */
NPUSHB[ ]	/* 19 values pushed */
0 0 0 3 2 0 3 105 0 2 2 1 97 0 1 1 31 1 78 
ELSE[ ]	/* Else */
NPUSHB[ ]	/* 24 values pushed */
0 0 0 3 2 0 3 105 0 2 1 1 2 89 0 2 2 1 97 0 1 2 1 81 
EIF[ ]	/* EndIf */
NPUSHB[ ]	/* 10 values pushed */
63 62 50 49 32 30 51 4 8 23 
CALL[ ]	/* CallFunction */";
};
width = 564;
}
);
note = zero;
unicode = 48;
},
{
glyphname = one;
lastChange = "2022-05-30 09:55:51 +0000";
layers = (
{
layerId = "D6A4831D-747C-4592-93C0-305F4CD57904";
shapes = (
{
closed = 1;
nodes = (
(357,-1.667,o),
(366,25.333,o),
(366,40,cs),
(366,181,ls),
(366,217,o),
(366.333,244,o),
(367,262,cs),
(373,420,ls),
(373.667,437.333,o),
(374.833,459,o),
(376.5,485,cs),
(378.167,511,o),
(379,542,o),
(379,578,cs),
(379,600,ls),
(379,622.667,o),
(374.333,635.333,o),
(353,642,cs),
(346.333,644.667,o),
(315.667,656,o),
(293,656,cs),
(275,656,o),
(259.667,648,o),
(247,632,cs),
(149,502,l),
(77,408,l),
(63.667,394,o),
(58.333,381.667,o),
(61,371,cs),
(77,297.667,o),
(118.667,322,o),
(140,350,cs),
(149.333,364.667,o),
(158.667,379,o),
(168,393,cs),
(186,419.667,o),
(219,459.333,o),
(267,512,c),
(269.667,510.667,o),
(272.167,509.667,o),
(274.5,509,cs),
(276.833,508.333,o),
(279,507.667,o),
(281,507,c),
(281,503.667,o),
(281.333,500.333,o),
(282,497,cs),
(282.667,493.667,o),
(283,490.667,o),
(283,488,cs),
(283,453.333,o),
(282.333,401.667,o),
(281,333,cs),
(278.333,232.333,o),
(277.667,156.667,o),
(279,106,cs),
(279.667,74,o),
(281,50,o),
(283,34,cs),
(287,-0.667,o),
(311.667,-4.333,o),
(353,-3,c)
);
}
);
userData = {
assembly = "PUSHB[ ]	/* 6 values pushed */
45 1 0 1 1 76 
MPPEM[ ]	/* MeasurePixelPerEm */
PUSHB[ ]	/* 1 value pushed */
21 
LT[ ]	/* LessThan */
IF[ ]	/* If */
NPUSHB[ ]	/* 19 values pushed */
0 0 1 2 1 0 2 128 0 1 1 36 77 0 2 2 40 2 78 
ELSE[ ]	/* Else */
MPPEM[ ]	/* MeasurePixelPerEm */
PUSHB[ ]	/* 1 value pushed */
36 
LT[ ]	/* LessThan */
IF[ ]	/* If */
NPUSHB[ ]	/* 16 values pushed */
0 1 0 1 133 0 0 2 0 133 0 2 2 40 2 78 
ELSE[ ]	/* Else */
NPUSHB[ ]	/* 14 values pushed */
0 1 0 1 133 0 0 2 0 133 0 2 2 118 
EIF[ ]	/* EndIf */
EIF[ ]	/* EndIf */
PUSHB[ ]	/* 7 values pushed */
37 35 40 39 3 8 24 
CALL[ ]	/* CallFunction */";
};
width = 469;
}
);
note = one;
unicode = 49;
},
{
glyphname = two;
lastChange = "2022-05-30 09:55:51 +0000";
layers = (
{
layerId = "D6A4831D-747C-4592-93C0-305F4CD57904";
shapes = (
{
closed = 1;
nodes = (
(331.333,-31,o),
(368,-25,o),
(404,-13,cs),
(470.667,9.667,o),
(574,53,o),
(574,89,cs),
(574,90.333,o),
(573.333,93.333,o),
(572,98,c),
(567.333,107.333,o),
(558,112,o),
(544,112,cs),
(510.667,112,o),
(457.333,86,o),
(448,82,cs),
(366.667,54,o),
(304,44.333,o),
(216,39,c),
(274.667,147.667,o),
(331.667,257.667,o),
(387,369,cs),
(389.667,374.333,o),
(398.667,391.667,o),
(414,421,cs),
(422,436.333,o),
(426,451.333,o),
(426,466,c),
(382,572.667,o),
(345.667,578,o),
(295,578,cs),
(274.333,578,o),
(251.667,573.667,o),
(227,565,c),
(155.667,524.333,o),
(110,492.833,o),
(90,470.5,cs),
(70,448.167,o),
(60,426.667,o),
(60,406,cs),
(60,386.667,o),
(73.333,368.667,o),
(100,352,cs),
(105.333,348.667,o),
(110.333,347,o),
(115,347,cs),
(137.667,347,o),
(162,371,o),
(198,411,cs),
(213,428,l),
(229,450,ls),
(245,472.667,o),
(256.333,487,o),
(263,493,cs),
(270.333,498.333,o),
(277.667,501,o),
(285,501,cs),
(303.667,501,o),
(315.667,475.333,o),
(313,450,c),
(289.667,395.333,o),
(269,350.833,o),
(251,316.5,cs),
(233,282.167,o),
(221.667,261,o),
(217,253,cs),
(181,191.667,o),
(154.333,141.167,o),
(137,101.5,cs),
(119.667,61.833,o),
(111,35.333,o),
(111,22,cs),
(111,18,o),
(112,15.333,o),
(114,14,cs),
(180,-16,o),
(240,-31,o),
(294,-31,cs)
);
}
);
userData = {
assembly = "PUSHB[ ]	/* 6 values pushed */
1 1 5 3 1 76 
MPPEM[ ]	/* MeasurePixelPerEm */
PUSHB[ ]	/* 1 value pushed */
39 
LT[ ]	/* LessThan */
IF[ ]	/* If */
NPUSHB[ ]	/* 34 values pushed */
0 1 0 4 0 1 4 128 0 4 3 0 4 3 126 0 2 0 0 1 2 0 105 0 3 3 5 97 0 5 5 31 5 78 
ELSE[ ]	/* Else */
NPUSHB[ ]	/* 39 values pushed */
0 1 0 4 0 1 4 128 0 4 3 0 4 3 126 0 2 0 0 1 2 0 105 0 3 5 5 3 89 0 3 3 5 97 0 5 3 5 81 
EIF[ ]	/* EndIf */
NPUSHB[ ]	/* 9 values pushed */
39 36 25 41 23 42 6 8 28 
CALL[ ]	/* CallFunction */";
};
width = 624;
}
);
note = two;
unicode = 50;
},
{
glyphname = three;
lastChange = "2022-05-30 09:55:51 +0000";
layers = (
{
layerId = "D6A4831D-747C-4592-93C0-305F4CD57904";
shapes = (
{
closed = 1;
nodes = (
(253.667,-61,o),
(288.667,-38,o),
(330,18,cs),
(384.667,90,o),
(407,174,o),
(407,274,c),
(367,422,o),
(329.333,412.333,o),
(248,423,c),
(251.333,428.333,o),
(260,440,o),
(274,458,cs),
(283.333,471.333,o),
(288.333,478.333,o),
(289,479,cs),
(300.333,498.333,o),
(306,515.667,o),
(306,531,cs),
(306,552.333,o),
(295,572.333,o),
(273,591,cs),
(253,606.333,o),
(229,614,o),
(201,614,cs),
(167,614,o),
(134.667,602.333,o),
(104,579,c),
(82.667,567.667,o),
(70,560.167,o),
(66,556.5,cs),
(62,552.833,o),
(60,548.667,o),
(60,544,cs),
(60,540.667,o),
(60.667,536.333,o),
(62,531,c),
(69.333,525.667,o),
(79,523,o),
(91,523,cs),
(102.333,523,o),
(118.333,526,o),
(139,532,cs),
(156.333,536,o),
(167.333,538,o),
(172,538,cs),
(186,538,o),
(193,531.333,o),
(193,518,cs),
(193,514,o),
(192.333,508.333,o),
(191,501,cs),
(187.667,486.333,o),
(184,476.333,o),
(180,471,cs),
(134,399,l),
(87,326,ls),
(79.667,314.667,o),
(76,306,o),
(76,300,cs),
(76,297.333,o),
(76.333,296,o),
(77,296,c),
(97,281.333,o),
(106.333,275,o),
(121,275,cs),
(129,275,o),
(137,277.667,o),
(145,283,cs),
(233,347,ls),
(246.333,355.667,o),
(256.333,360,o),
(263,360,cs),
(279,360,o),
(289,344.667,o),
(293,314,cs),
(294.333,297.333,o),
(295,284.667,o),
(295,276,cs),
(295,218,o),
(281.333,156.333,o),
(254,91,cs),
(230,31,o),
(194.667,-8.333,o),
(136,-15,cs),
(132.667,-15.667,o),
(127.667,-17.5,o),
(121,-20.5,cs),
(114.333,-23.5,o),
(108.333,-26,o),
(103,-28,c),
(147.667,-50,o),
(183.667,-61,o),
(211,-61,cs)
);
}
);
userData = {
assembly = "NPUSHB[ ]	/* 10 values pushed */
60 1 1 4 4 1 0 2 2 76 
MPPEM[ ]	/* MeasurePixelPerEm */
PUSHB[ ]	/* 1 value pushed */
21 
LT[ ]	/* LessThan */
IF[ ]	/* If */
NPUSHB[ ]	/* 37 values pushed */
0 4 3 1 3 4 1 128 0 1 2 3 1 2 126 0 2 0 3 2 0 126 0 0 0 132 0 3 3 5 97 0 5 5 32 3 78 
ELSE[ ]	/* Else */
NPUSHB[ ]	/* 42 values pushed */
0 4 3 1 3 4 1 128 0 1 2 3 1 2 126 0 2 0 3 2 0 126 0 0 0 132 0 5 3 3 5 89 0 5 5 3 97 0 3 5 3 81 
EIF[ ]	/* EndIf */
NPUSHB[ ]	/* 9 values pushed */
40 35 29 35 44 33 6 8 28 
CALL[ ]	/* CallFunction */";
};
width = 457;
}
);
note = three;
unicode = 51;
},
{
glyphname = four;
lastChange = "2022-05-30 09:55:51 +0000";
layers = (
{
layerId = "D6A4831D-747C-4592-93C0-305F4CD57904";
shapes = (
{
closed = 1;
nodes = (
(353.667,-122,o),
(367,-111.333,o),
(371,-102,cs),
(379,-84.667,o),
(384,-61,o),
(386,-31,cs),
(402,183,ls),
(404.667,252.333,o),
(410,258,o),
(474,274,cs),
(482.667,276,o),
(497.333,282.667,o),
(518,294,cs),
(532.667,301.333,o),
(540.667,306,o),
(542,308,c),
(530.667,333.333,o),
(514,346,o),
(492,346,cs),
(485.333,346,o),
(477.667,344.833,o),
(469,342.5,cs),
(460.333,340.167,o),
(454.333,338.667,o),
(451,338,c),
(443.667,334.667,o),
(435.333,332.333,o),
(426,331,c),
(426,343,o),
(430.667,359.667,o),
(432,365,cs),
(437.333,389.667,o),
(441.667,408.333,o),
(445,421,cs),
(452.333,457.667,o),
(457,485.333,o),
(459,504,cs),
(461,522.667,o),
(462,541,o),
(462,559,cs),
(462,579.667,o),
(460.667,597.667,o),
(458,613,cs),
(454,638.333,o),
(410.333,647,o),
(365,647,cs),
(345,647,o),
(331.667,646,o),
(325,644,cs),
(320.333,642,o),
(312.5,639.5,o),
(301.5,636.5,cs),
(290.5,633.5,o),
(282.667,629,o),
(278,623,cs),
(195.333,527,o),
(128,421.333,o),
(76,306,cs),
(63.333,280,o),
(58,258,o),
(60,240,cs),
(60.667,233.333,o),
(61,228.667,o),
(61,226,c),
(67.667,192.667,o),
(110.333,170,o),
(157,170,cs),
(171,170,o),
(182.333,171.333,o),
(191,174,cs),
(225.667,185.333,o),
(255,193.333,o),
(279,198,cs),
(312,207,l),
(312,201.667,o),
(312.167,195.833,o),
(312.5,189.5,cs),
(312.833,183.167,o),
(312.667,176,o),
(312,168,cs),
(310,132,ls),
(309.333,114.667,o),
(308,88.667,o),
(306,54,cs),
(306.667,5.333,o),
(307.667,-44.667,o),
(309,-96,cs),
(309.667,-120.667,o),
(319.667,-130.667,o),
(339,-126,cs)
);
},
{
closed = 1;
nodes = (
(175,243.667,o),
(164.333,245.667,o),
(159,247,c),
(193,355.667,o),
(258.333,455.333,o),
(355,546,c),
(353,520,ls),
(350.333,497.333,o),
(348.667,479.667,o),
(348,467,cs),
(342.667,419,o),
(335.667,367.333,o),
(327,312,cs),
(325.667,302.667,o),
(319,287.333,o),
(311,286,c),
(266.333,272.667,o),
(222.333,259,o),
(179,245,cs)
);
}
);
userData = {
assembly = "NPUSHB[ ]	/* 17 values pushed */
78 75 2 0 3 65 9 2 1 0 2 76 30 18 2 2 73 
MPPEM[ ]	/* MeasurePixelPerEm */
PUSHB[ ]	/* 1 value pushed */
21 
LT[ ]	/* LessThan */
IF[ ]	/* If */
NPUSHB[ ]	/* 23 values pushed */
0 1 0 2 0 1 2 128 0 2 2 132 0 3 3 32 77 0 0 0 33 0 78 
ELSE[ ]	/* Else */
MPPEM[ ]	/* MeasurePixelPerEm */
PUSHB[ ]	/* 1 value pushed */
44 
LT[ ]	/* LessThan */
IF[ ]	/* If */
NPUSHB[ ]	/* 25 values pushed */
0 0 3 1 3 0 1 128 0 1 2 3 1 2 126 0 2 2 132 0 3 3 32 3 78 
ELSE[ ]	/* Else */
NPUSHB[ ]	/* 19 values pushed */
0 3 0 3 133 0 0 1 0 133 0 1 2 1 133 0 2 2 118 
EIF[ ]	/* EndIf */
EIF[ ]	/* EndIf */
NPUSHB[ ]	/* 10 values pushed */
53 51 39 37 34 32 38 4 8 23 
CALL[ ]	/* CallFunction */";
};
width = 592;
}
);
note = four;
unicode = 52;
},
{
glyphname = five;
lastChange = "2022-05-30 09:55:51 +0000";
layers = (
{
layerId = "D6A4831D-747C-4592-93C0-305F4CD57904";
shapes = (
{
closed = 1;
nodes = (
(259,-13,o),
(273.667,-12,o),
(289,-10,cs),
(347.667,-3.333,o),
(383.667,40,o),
(417,108,cs),
(433.667,142.667,o),
(442,174.667,o),
(442,204,cs),
(442,250,o),
(420.667,290,o),
(378,324,cs),
(369.333,331.333,o),
(361,337.333,o),
(353,342,cs),
(339,351.333,o),
(322,365,o),
(302,383,cs),
(286.667,395,o),
(278.333,401.333,o),
(277,402,c),
(302.333,446,o),
(325.333,478.167,o),
(346,498.5,cs),
(366.667,518.833,o),
(380.667,529.667,o),
(388,531,cs),
(437.333,541,o),
(501.667,551,o),
(581,561,cs),
(638,568,ls),
(652,570.667,o),
(664,573.333,o),
(674,576,cs),
(684.667,580,o),
(690,598,o),
(690,614,cs),
(690,628.667,o),
(685.667,640.667,o),
(679,642,cs),
(637,646,ls),
(625.667,647.333,o),
(618.333,648,o),
(615,648,cs),
(609,648,o),
(595.667,647,o),
(575,645,cs),
(560.333,643.667,o),
(526.667,639,o),
(474,631,cs),
(415.333,621,o),
(370.667,615.333,o),
(340,614,cs),
(293.333,612.667,o),
(264.667,597,o),
(238,557,cs),
(203.333,505,o),
(170.667,464,o),
(140,434,cs),
(130.667,424.667,o),
(123.833,417.167,o),
(119.5,411.5,cs),
(115.167,405.833,o),
(113.333,401,o),
(114,397,cs),
(114.667,391.667,o),
(125.667,383.333,o),
(147,372,cs),
(165.667,361.333,o),
(180.667,355.333,o),
(192,354,cs),
(258.667,344.667,o),
(293.333,302,o),
(320,238,c),
(328,222.667,o),
(332,205.667,o),
(332,187,cs),
(332,161.667,o),
(323,138.333,o),
(305,117,c),
(281,82.333,o),
(250.333,61,o),
(205,61,cs),
(193.667,61,o),
(185,61.667,o),
(179,63,cs),
(167,65.667,o),
(154.333,67,o),
(141,67,cs),
(125.667,67,o),
(109.667,65.667,o),
(93,63,c),
(85.667,63,o),
(75,62.333,o),
(61,61,c),
(60,54,l),
(113.333,9.333,o),
(175,-13,o),
(245,-13,cs)
);
}
);
userData = {
assembly = "NPUSHB[ ]	/* 10 values pushed */
48 1 1 4 25 1 0 1 2 76 
MPPEM[ ]	/* MeasurePixelPerEm */
PUSHB[ ]	/* 1 value pushed */
21 
LT[ ]	/* LessThan */
IF[ ]	/* If */
NPUSHB[ ]	/* 23 values pushed */
0 5 5 32 77 0 4 4 32 77 3 2 2 1 1 0 97 0 0 0 31 0 78 
ELSE[ ]	/* Else */
MPPEM[ ]	/* MeasurePixelPerEm */
PUSHB[ ]	/* 1 value pushed */
41 
LT[ ]	/* LessThan */
IF[ ]	/* If */
NPUSHB[ ]	/* 26 values pushed */
0 4 5 1 5 4 1 128 0 5 5 32 77 3 2 2 1 1 0 97 0 0 0 31 0 78 
ELSE[ ]	/* Else */
NPUSHB[ ]	/* 23 values pushed */
0 5 4 5 133 0 4 1 4 133 3 2 2 1 1 0 97 0 0 0 31 0 78 
EIF[ ]	/* EndIf */
EIF[ ]	/* EndIf */
NPUSHB[ ]	/* 15 values pushed */
62 61 57 55 35 33 31 29 28 27 24 22 6 8 22 
CALL[ ]	/* CallFunction */";
};
width = 700;
}
);
note = five;
unicode = 53;
},
{
glyphname = six;
lastChange = "2022-05-30 09:55:51 +0000";
layers = (
{
layerId = "D6A4831D-747C-4592-93C0-305F4CD57904";
shapes = (
{
closed = 1;
nodes = (
(381.333,-6.667,o),
(418,5,o),
(448,29,cs),
(474.667,50.333,o),
(497,93.333,o),
(497,128,c),
(469.667,182,o),
(445.5,214.167,o),
(424.5,224.5,cs),
(403.5,234.833,o),
(382.333,240,o),
(361,240,cs),
(338.333,240,o),
(319,234,o),
(303,222,cs),
(276.333,202,o),
(259,188,o),
(235,156,cs),
(231,150.667,o),
(226.833,144.5,o),
(222.5,137.5,cs),
(218.167,130.5,o),
(214.667,127,o),
(212,127,cs),
(208,127,o),
(202.333,135,o),
(195,151,cs),
(179.667,183.667,o),
(171.667,220.333,o),
(171,261,cs),
(169.667,321,o),
(192.333,374,o),
(227,438,cs),
(229.667,442,o),
(231.833,445.667,o),
(233.5,449,cs),
(235.167,452.333,o),
(236.667,455.333,o),
(238,458,cs),
(270.667,508.667,o),
(295,538.833,o),
(311,548.5,cs),
(327,558.167,o),
(346.333,563,o),
(369,563,cs),
(375.667,563,o),
(389.333,577.667,o),
(388,583,cs),
(382.667,603,o),
(376.333,614,o),
(367,622,cs),
(353.667,632,o),
(334.333,637,o),
(309,637,cs),
(275.667,637,o),
(242,627.333,o),
(222,606,cs),
(122,499.333,o),
(68.333,382.333,o),
(61,255,cs),
(60.333,250.333,o),
(60,244.333,o),
(60,237,c),
(113.333,126.333,o),
(159.833,59.333,o),
(199.5,36,cs),
(239.167,12.667,o),
(276.333,-1,o),
(311,-5,cs),
(317,-5.667,o),
(326,-6,o),
(338,-6,cs)
);
},
{
closed = 1;
nodes = (
(304,73,o),
(291.667,76,o),
(283,82,c),
(305.667,151.333,o),
(314.333,146.667,o),
(345,164,cs),
(351,167.333,o),
(356.667,169,o),
(362,169,cs),
(374.667,169,o),
(386,161,o),
(396,145,cs),
(400,138.333,o),
(402,132,o),
(402,126,cs),
(402,98,o),
(360,73,o),
(320,73,cs)
);
}
);
userData = {
assembly = "NPUSHB[ ]	/* 10 values pushed */
15 1 1 0 55 1 5 2 2 76 
MPPEM[ ]	/* MeasurePixelPerEm */
PUSHB[ ]	/* 1 value pushed */
44 
LT[ ]	/* LessThan */
IF[ ]	/* If */
NPUSHB[ ]	/* 37 values pushed */
0 2 6 5 6 2 5 128 0 3 0 6 2 3 6 105 0 1 1 0 97 0 0 0 32 77 0 5 5 4 97 0 4 4 31 4 78 
ELSE[ ]	/* Else */
NPUSHB[ ]	/* 34 values pushed */
0 2 6 5 6 2 5 128 0 3 0 6 2 3 6 105 0 5 0 4 5 4 101 0 1 1 0 97 0 0 0 32 1 78 
EIF[ ]	/* EndIf */
NPUSHB[ ]	/* 10 values pushed */
21 38 39 38 44 38 41 7 8 29 
CALL[ ]	/* CallFunction */";
};
width = 547;
}
);
note = six;
unicode = 54;
},
{
glyphname = seven;
lastChange = "2022-05-30 09:55:51 +0000";
layers = (
{
layerId = "D6A4831D-747C-4592-93C0-305F4CD57904";
shapes = (
{
closed = 1;
nodes = (
(307,-32,o),
(313,-31,o),
(319,-29,cs),
(333.667,-24.333,o),
(347.333,-8.333,o),
(360,19,cs),
(370,42.333,o),
(381.667,74.333,o),
(395,115,cs),
(404,142,ls),
(410,160,o),
(416.333,180.667,o),
(423,204,cs),
(437.667,256,o),
(451.333,297.333,o),
(464,328,cs),
(482.667,372.667,o),
(497.5,410,o),
(508.5,440,cs),
(519.5,470,o),
(532.333,499.333,o),
(547,528,cs),
(556.333,546.667,o),
(561,562.333,o),
(561,575,cs),
(561,597.667,o),
(545.333,613.667,o),
(514,623,cs),
(496,628.333,o),
(474,631.333,o),
(448,632,cs),
(338.667,634.667,o),
(257.333,631.667,o),
(204,623,cs),
(188,620.333,o),
(170.333,618.167,o),
(151,616.5,cs),
(131.667,614.833,o),
(118.333,613.667,o),
(111,613,cs),
(99.667,611,o),
(82.667,608.667,o),
(60,606,c),
(92,547.333,o),
(115,532,o),
(159,532,cs),
(165.667,532,o),
(177.667,532.667,o),
(195,534,cs),
(303.667,542.667,o),
(374.333,548,o),
(407,550,cs),
(428.333,551.333,o),
(444,541.333,o),
(444,520,cs),
(444,514.667,o),
(443.667,510.667,o),
(443,508,cs),
(436.333,478.667,o),
(412,429,o),
(408,421,cs),
(394.667,393.667,o),
(385.667,372.667,o),
(381,358,cs),
(371,326.667,o),
(359.5,294.833,o),
(346.5,262.5,cs),
(333.5,230.167,o),
(325.667,210.333,o),
(323,203,cs),
(299,135.667,o),
(279.667,83.667,o),
(265,47,cs),
(261,37,o),
(259.333,27,o),
(260,17,cs),
(261.333,1,o),
(264.667,-11.333,o),
(270,-20,cs),
(275.333,-28,o),
(285.667,-32,o),
(301,-32,cs)
);
}
);
userData = {
assembly = "NPUSHB[ ]	/* 11 values pushed */
4 1 3 1 49 35 2 2 0 2 76 
MPPEM[ ]	/* MeasurePixelPerEm */
PUSHB[ ]	/* 1 value pushed */
36 
LT[ ]	/* LessThan */
IF[ ]	/* If */
NPUSHB[ ]	/* 24 values pushed */
0 0 3 2 3 0 2 128 0 3 3 1 97 0 1 1 32 77 0 2 2 31 2 78 
ELSE[ ]	/* Else */
NPUSHB[ ]	/* 23 values pushed */
0 0 3 2 3 0 2 128 0 2 2 132 0 3 3 1 97 0 1 1 32 3 78 
EIF[ ]	/* EndIf */
NPUSHB[ ]	/* 9 values pushed */
53 51 32 30 40 32 4 8 24 
CALL[ ]	/* CallFunction */";
};
width = 611;
}
);
note = seven;
unicode = 55;
},
{
glyphname = eight;
lastChange = "2022-05-30 09:55:51 +0000";
layers = (
{
layerId = "D6A4831D-747C-4592-93C0-305F4CD57904";
shapes = (
{
closed = 1;
nodes = (
(339.667,2,o),
(403,56.333,o),
(431,139,cs),
(460.333,233.667,o),
(468,265,o),
(468,317,cs),
(468,363.667,o),
(447.667,434.333,o),
(421,461,c),
(413,471,o),
(404.5,480.5,o),
(395.5,489.5,cs),
(386.5,498.5,o),
(382,504,o),
(382,506,cs),
(382,508.667,o),
(386,513,o),
(394,519,cs),
(402,525,o),
(410.667,532,o),
(420,540,cs),
(440,557.333,o),
(459,615.667,o),
(459,649,cs),
(459,657.667,o),
(457.667,663.333,o),
(455,666,cs),
(427,694,o),
(392.667,730,o),
(354,742,cs),
(326.667,750.667,o),
(303,754.333,o),
(283,753,cs),
(217.667,749,o),
(166.333,719.667,o),
(113,657,c),
(89,613,o),
(77,590.667,o),
(77,560,cs),
(77,540,o),
(82.667,520.667,o),
(94,502,cs),
(107.333,475.333,o),
(129.667,462,o),
(167,450,c),
(164.333,446,o),
(159.833,440.667,o),
(153.5,434,cs),
(147.167,427.333,o),
(143.667,422.667,o),
(143,420,c),
(127,390,ls),
(80.333,302,o),
(64.667,263.333,o),
(62,198,c),
(60.667,188.667,o),
(60,181.667,o),
(60,177,c),
(98,93,o),
(132.5,42.833,o),
(163.5,26.5,cs),
(194.5,10.167,o),
(227,2,o),
(261,2,cs)
);
},
{
closed = 1;
nodes = (
(232,73,o),
(225.667,74.667,o),
(219,78,cs),
(197.667,91.333,o),
(180,126,o),
(176,158,cs),
(172.667,184.667,o),
(171,209,o),
(171,231,cs),
(171,291.667,o),
(183,340.333,o),
(207,377,cs),
(232.333,415.667,o),
(261,435.667,o),
(325,477,c),
(359.667,393,o),
(368.667,346.667,o),
(366,312,c),
(354,253.333,o),
(332.333,202.667,o),
(295,124,cs),
(281.667,96,o),
(262,73,o),
(238,73,cs)
);
},
{
closed = 1;
nodes = (
(199,512,o),
(191,524,o),
(191,544,c),
(215.667,613.333,o),
(238.667,654.333,o),
(260,667,cs),
(281.333,679.667,o),
(305,686,o),
(331,686,cs),
(351,686,o),
(364,674,o),
(364,658,cs),
(364,651.333,o),
(362.667,645.333,o),
(360,640,cs),
(330,580,o),
(287.667,538.667,o),
(233,516,cs),
(227,513.333,o),
(221,512,o),
(215,512,cs)
);
}
);
userData = {
assembly = "NPUSHB[ ]	/* 56 values pushed */
20 1 2 3 45 43 2 3 4 2 2 76 0 2 3 4 3 2 4 128 0 0 5 1 3 2 0 3 105 0 4 4 1 97 0 1 1 40 1 78 50 50 82 80 50 65 50 64 57 55 40 38 44 6 8 23 
CALL[ ]	/* CallFunction */";
};
width = 548;
}
);
note = eight;
unicode = 56;
},
{
glyphname = nine;
lastChange = "2022-05-30 09:55:51 +0000";
layers = (
{
layerId = "D6A4831D-747C-4592-93C0-305F4CD57904";
shapes = (
{
closed = 1;
nodes = (
(419.667,-48,o),
(427,-42.667,o),
(427,-28,cs),
(427,-26,o),
(426.333,-21.333,o),
(425,-14,cs),
(411.667,46.667,o),
(405,108.333,o),
(405,171,cs),
(405,266.333,o),
(421.333,371,o),
(454,485,cs),
(458,497.667,o),
(460,506.333,o),
(460,511,cs),
(460,521.667,o),
(454.333,530.333,o),
(443,537,cs),
(427.667,547,o),
(411.333,552,o),
(394,552,cs),
(377.333,552,o),
(365.667,547.333,o),
(359,538,c),
(312.333,484,o),
(263.667,449,o),
(213,433,cs),
(203.667,430.333,o),
(194.667,429,o),
(186,429,cs),
(174.667,429,o),
(166.333,431,o),
(161,435,cs),
(153,443,o),
(149,460.333,o),
(149,475,cs),
(149,481,o),
(149.333,485.333,o),
(150,488,c),
(202,570.667,o),
(243.833,619.833,o),
(275.5,635.5,cs),
(307.167,651.167,o),
(337.667,658,o),
(367,656,c),
(376.333,648,o),
(400.333,625.333,o),
(419,620,c),
(421,618.667,o),
(425,618,o),
(431,618,cs),
(445.667,618,o),
(458.667,622,o),
(470,630,cs),
(472,632,o),
(473,636.333,o),
(473,643,cs),
(473,653.667,o),
(470,667.333,o),
(466,674,cs),
(435.333,715.333,o),
(387.667,735,o),
(333,735,cs),
(229,735,o),
(152.333,675.667,o),
(87,577,cs),
(69,549.667,o),
(60,523,o),
(60,497,cs),
(60,483,o),
(61.667,471.333,o),
(65,462,cs),
(82.333,407.333,o),
(153,357,o),
(209,357,cs),
(223,357,o),
(238.5,360,o),
(255.5,366,cs),
(272.5,372,o),
(284.333,376,o),
(291,378,cs),
(297,380,o),
(302.333,381,o),
(307,381,cs),
(312.333,381,o),
(315.833,378.833,o),
(317.5,374.5,cs),
(319.167,370.167,o),
(319.667,362.667,o),
(319,352,cs),
(313.667,270.667,o),
(311,208.667,o),
(311,166,cs),
(311,132,ls),
(312.333,90.667,o),
(321.667,59.667,o),
(339,-7,cs),
(347,-33.667,o),
(370.333,-48,o),
(401,-48,cs)
);
}
);
userData = {
assembly = "NPUSHB[ ]	/* 70 values pushed */
23 8 2 1 2 1 76 0 7 0 2 0 7 2 128 0 2 1 0 2 1 126 0 4 1 5 1 4 5 128 0 3 5 3 134 0 6 0 0 7 6 0 105 0 1 4 5 1 89 0 1 1 5 97 0 5 1 5 81 40 40 35 42 45 36 41 18 8 8 30 
CALL[ ]	/* CallFunction */";
};
width = 523;
}
);
note = nine;
unicode = 57;
},
{
glyphname = colon;
lastChange = "2022-05-30 09:55:51 +0000";
layers = (
{
layerId = "D6A4831D-747C-4592-93C0-305F4CD57904";
shapes = (
{
closed = 1;
nodes = (
(181.333,27,o),
(192.333,31.333,o),
(203,40,cs),
(211,46,o),
(215,55,o),
(215,67,cs),
(215,84.333,o),
(207.333,102,o),
(190,114,cs),
(172.667,124.667,o),
(147.333,141,o),
(114,163,cs),
(80,185,l),
(63,174,l),
(63,168.667,o),
(62.5,163,o),
(61.5,157,cs),
(60.5,151,o),
(60,145.333,o),
(60,140,cs),
(60,134,o),
(61.333,129,o),
(64,125,cs),
(80.667,99.667,o),
(103.667,72.333,o),
(133,43,cs),
(143.667,32.333,o),
(156,27,o),
(170,27,cs)
);
},
{
closed = 1;
nodes = (
(201,248.333,o),
(217,265,o),
(217,293,c),
(193.667,338.333,o),
(173.833,367.5,o),
(157.5,380.5,cs),
(141.167,393.5,o),
(126.333,400.667,o),
(113,402,c),
(110.333,400,o),
(105.667,396.5,o),
(99,391.5,cs),
(92.333,386.5,o),
(88.333,381.333,o),
(87,376,cs),
(85.667,373.333,o),
(85,368.333,o),
(85,361,cs),
(85,322.333,o),
(120.667,267,o),
(154,251,cs),
(160.667,247.667,o),
(168.333,246.333,o),
(177,247,cs)
);
}
);
userData = {
assembly = "NPUSHB[ ]	/* 29 values pushed */
36 35 2 2 1 1 76 0 0 1 0 133 0 1 2 1 133 0 2 2 34 2 78 47 37 33 3 8 25 
CALL[ ]	/* CallFunction */";
};
width = 267;
}
);
note = colon;
unicode = 58;
},
{
glyphname = semicolon;
lastChange = "2022-05-30 09:55:51 +0000";
layers = (
{
layerId = "D6A4831D-747C-4592-93C0-305F4CD57904";
shapes = (
{
closed = 1;
nodes = (
(105.333,-245.667,o),
(129.667,-213.333,o),
(143,-168,cs),
(153.667,-134.667,o),
(160,-101.333,o),
(162,-68,cs),
(163.333,-48.667,o),
(165.333,-19,o),
(168,21,cs),
(171.333,44.333,o),
(171.667,63,o),
(169,77,cs),
(165.667,93.667,o),
(156,109.333,o),
(140,124,cs),
(131.333,132,o),
(122.333,135,o),
(113,133,cs),
(102.333,130.333,o),
(90.667,116.333,o),
(88,99,cs),
(84,71,o),
(82.667,38.667,o),
(84,2,c),
(86,-11,l),
(82.667,-85.667,o),
(74.667,-155.333,o),
(62,-220,cs),
(60.667,-226.667,o),
(60,-234.667,o),
(60,-244,cs),
(60,-267,l),
(60,-267,l)
);
},
{
closed = 1;
nodes = (
(165.667,174,o),
(171.667,178.333,o),
(173,185,cs),
(180.333,211.667,o),
(182,238.333,o),
(178,265,cs),
(174,282.333,o),
(155.667,294,o),
(133,286,cs),
(125,283.333,o),
(117.833,281.667,o),
(111.5,281,cs),
(105.167,280.333,o),
(99.667,279.333,o),
(95,278,cs),
(72,273,l),
(71.333,263,o),
(72.333,251.333,o),
(75,238,cs),
(79.667,214,o),
(87.667,196.333,o),
(99,185,cs),
(111,173,o),
(136.333,168,o),
(155,172,cs)
);
}
);
userData = {
assembly = "PUSHB[ ]	/* 6 values pushed */
36 24 15 8 2 50 
CALL[ ]	/* CallFunction */";
};
width = 230;
}
);
note = semicolon;
unicode = 59;
},
{
glyphname = less;
lastChange = "2022-05-30 09:55:51 +0000";
layers = (
{
layerId = "D6A4831D-747C-4592-93C0-305F4CD57904";
shapes = (
{
closed = 1;
nodes = (
(531,149,o),
(552.667,150.333,o),
(574,153,cs),
(599.333,155.667,o),
(614,160.667,o),
(618,186,c),
(615.333,188,o),
(611.333,191,o),
(606,195,cs),
(600.667,199,o),
(595.667,201.333,o),
(591,202,cs),
(549.667,211.333,o),
(518,216.333,o),
(496,217,cs),
(413.333,217,o),
(346.333,237.667,o),
(225,279,c),
(241,298,ls),
(271.667,336,o),
(295,363.667,o),
(311,381,cs),
(372.333,444.333,o),
(429,500.333,o),
(481,549,cs),
(491.667,559,o),
(508.667,572.667,o),
(532,590,cs),
(557,609,l),
(567.667,619,o),
(573,631.667,o),
(573,647,cs),
(573,664.333,o),
(565,680.333,o),
(549,687,cs),
(527,697,o),
(506.667,702,o),
(488,702,cs),
(454.667,702,o),
(422.667,684,o),
(392,648,cs),
(384,638.667,o),
(358.667,611.333,o),
(316,566,cs),
(278,524,l),
(71,293,ls),
(63.667,284.333,o),
(60,276.333,o),
(60,269,cs),
(60,259,o),
(64,251.667,o),
(72,247,c),
(98.667,227,o),
(117.667,214.167,o),
(129,208.5,cs),
(140.333,202.833,o),
(153,200.333,o),
(167,201,cs),
(217.667,203.667,o),
(259,192.667,o),
(335,174,cs),
(393,157.333,o),
(451,149,o),
(509,149,cs)
);
}
);
userData = {
assembly = "PUSHB[ ]	/* 6 values pushed */
2 1 0 3 1 76 
MPPEM[ ]	/* MeasurePixelPerEm */
PUSHB[ ]	/* 1 value pushed */
21 
LT[ ]	/* LessThan */
IF[ ]	/* If */
NPUSHB[ ]	/* 21 values pushed */
0 2 0 1 0 2 1 128 0 0 0 1 0 1 101 0 3 3 36 3 78 
ELSE[ ]	/* Else */
NPUSHB[ ]	/* 29 values pushed */
0 3 0 3 133 0 2 0 1 0 2 1 128 0 0 2 1 0 89 0 0 0 1 97 0 1 0 1 81 
EIF[ ]	/* EndIf */
PUSHB[ ]	/* 7 values pushed */
44 35 40 36 4 8 26 
CALL[ ]	/* CallFunction */";
};
width = 668;
}
);
note = less;
unicode = 60;
},
{
glyphname = equal;
lastChange = "2022-05-30 09:55:51 +0000";
layers = (
{
layerId = "D6A4831D-747C-4592-93C0-305F4CD57904";
shapes = (
{
closed = 1;
nodes = (
(363.667,101.333,o),
(423.667,104.667,o),
(497,110,cs),
(520,112,ls),
(534,113.333,o),
(550,117.667,o),
(568,125,cs),
(585.333,131.667,o),
(594,141.333,o),
(594,154,cs),
(594,164,o),
(588,173.333,o),
(576,182,cs),
(548.667,202.667,o),
(520.333,213,o),
(491,213,cs),
(475.667,213,o),
(457.333,210.333,o),
(436,205,cs),
(431.333,204.333,o),
(424.333,203,o),
(415,201,cs),
(405.667,199,o),
(397.333,197.667,o),
(390,197,cs),
(369,196,ls),
(321,191.333,o),
(281,188.333,o),
(249,187,cs),
(213.667,186.333,o),
(181.667,189.667,o),
(153,197,cs),
(150.333,197.667,o),
(147.167,197.667,o),
(143.5,197,cs),
(139.833,196.333,o),
(137.333,196,o),
(136,196,c),
(131.333,189.333,o),
(129,183,o),
(129,177,cs),
(129,167,o),
(136.333,156.667,o),
(151,146,cs),
(197.667,114,o),
(250.333,101.333,o),
(317,100,cs)
);
},
{
closed = 1;
nodes = (
(179,267,o),
(185,267.333,o),
(189,268,cs),
(266.333,274.667,o),
(329,280,o),
(377,284,cs),
(549,296,l),
(545,346.667,o),
(517,376.667,o),
(477,374,cs),
(339.667,366,o),
(237.333,362,o),
(170,362,cs),
(116.667,362,o),
(92,354.667,o),
(60,328,c),
(62.667,324.667,o),
(66.667,319.167,o),
(72,311.5,cs),
(77.333,303.833,o),
(82.333,298.333,o),
(87,295,cs),
(111,276.333,o),
(139,267,o),
(171,267,cs)
);
}
);
userData = {
assembly = "NPUSHB[ ]	/* 58 values pushed */
12 2 2 0 1 1 76 6 1 1 0 0 3 1 0 105 0 2 4 5 2 89 0 3 0 4 5 3 4 105 0 2 2 5 97 0 5 2 5 81 0 0 46 44 42 41 35 33 27 25 0 17 0 14 53 7 8 23 
CALL[ ]	/* CallFunction */";
};
width = 644;
}
);
note = equal;
unicode = 61;
},
{
glyphname = greater;
lastChange = "2022-05-30 09:55:51 +0000";
layers = (
{
layerId = "D6A4831D-747C-4592-93C0-305F4CD57904";
shapes = (
{
closed = 1;
nodes = (
(150.667,200,o),
(162.333,202.667,o),
(171,208,cs),
(183.667,214.667,o),
(195.833,221.333,o),
(207.5,228,cs),
(219.167,234.667,o),
(230.333,241,o),
(241,247,cs),
(266,261,ls),
(288,273.667,o),
(324.833,290.167,o),
(376.5,310.5,cs),
(428.167,330.833,o),
(455.333,341.667,o),
(458,343,cs),
(494.667,359,o),
(513,376.333,o),
(513,395,c),
(493,428.333,o),
(473,452.5,o),
(453,467.5,cs),
(433,482.5,o),
(420.333,492,o),
(415,496,cs),
(366,536,ls),
(344,555.333,o),
(323.667,571.333,o),
(305,584,c),
(289.667,600,o),
(270.667,616.333,o),
(248,633,cs),
(226,649.667,o),
(211.667,660.667,o),
(205,666,c),
(194.333,678,o),
(183,684,o),
(171,684,cs),
(163,684,o),
(155,681,o),
(147,675,cs),
(140.333,670.333,o),
(137,664.667,o),
(137,658,cs),
(137,650,o),
(142,639.667,o),
(152,627,cs),
(189.333,576.333,o),
(218.333,539.333,o),
(239,516,cs),
(252.333,501.333,o),
(279.667,480.333,o),
(305,463,cs),
(335,440.333,o),
(353.333,426,o),
(360,420,c),
(344,411.333,o),
(315.333,399.667,o),
(274,385,cs),
(235.333,372.333,o),
(207,361,o),
(189,351,cs),
(148.333,327,o),
(113,305,o),
(83,285,cs),
(67.667,274.333,o),
(60,262.667,o),
(60,250,cs),
(60,243.333,o),
(62.667,236.333,o),
(68,229,cs),
(81.333,211.667,o),
(109.333,200,o),
(136,200,cs)
);
}
);
userData = {
assembly = "PUSHB[ ]	/* 6 values pushed */
27 1 0 1 1 76 
MPPEM[ ]	/* MeasurePixelPerEm */
PUSHB[ ]	/* 1 value pushed */
21 
LT[ ]	/* LessThan */
IF[ ]	/* If */
NPUSHB[ ]	/* 11 values pushed */
0 0 1 0 134 0 1 1 30 1 78 
ELSE[ ]	/* Else */
NPUSHB[ ]	/* 9 values pushed */
0 1 0 1 133 0 0 0 118 
EIF[ ]	/* EndIf */
PUSHB[ ]	/* 6 values pushed */
41 39 45 2 8 23 
CALL[ ]	/* CallFunction */";
};
width = 563;
}
);
note = greater;
unicode = 62;
},
{
glyphname = question;
lastChange = "2022-05-30 09:55:51 +0000";
layers = (
{
layerId = "D6A4831D-747C-4592-93C0-305F4CD57904";
shapes = (
{
closed = 1;
nodes = (
(127.667,276.667,o),
(150,286,o),
(168,298,cs),
(220,331.333,o),
(257.667,370.667,o),
(319,440,cs),
(319.667,440.667,o),
(331,453,o),
(353,477,cs),
(403.667,531.667,o),
(439.333,586.667,o),
(460,642,cs),
(464.667,654,o),
(467,666.667,o),
(467,680,cs),
(467,696,o),
(463.333,710.333,o),
(456,723,cs),
(418,792.333,o),
(358,831.667,o),
(276,841,c),
(209.333,838.333,o),
(153.667,814,o),
(109,768,cs),
(99.667,758.667,o),
(95,748.667,o),
(95,738,cs),
(95,732,o),
(97,725.333,o),
(101,718,cs),
(114.333,696.667,o),
(137.667,685,o),
(163,685,cs),
(184.333,685,o),
(202,691.667,o),
(216,705,cs),
(239.333,725.667,o),
(259.333,739,o),
(276,745,cs),
(284.667,748.333,o),
(294,750,o),
(304,750,cs),
(315.333,750,o),
(324.333,748,o),
(331,744,cs),
(343,736.667,o),
(349,724.667,o),
(349,708,cs),
(349,699.333,o),
(347.333,690,o),
(344,680,cs),
(333.333,650,o),
(320,625.333,o),
(304,606,cs),
(219,502,l),
(174,449,ls),
(150.667,421.667,o),
(116,379.667,o),
(70,323,cs),
(63.333,314.333,o),
(60,306.667,o),
(60,300,cs),
(60,293.333,o),
(62.667,287.667,o),
(68,283,cs),
(77.333,273.667,o),
(91.667,267.333,o),
(101,270,cs)
);
},
{
closed = 1;
nodes = (
(222,33.333,o),
(248.667,59.667,o),
(230,79,cs),
(188,123,l),
(138,144,ls),
(116,153.333,o),
(102.167,146.667,o),
(96.5,124,cs),
(90.833,101.333,o),
(87,86.333,o),
(85,79,cs),
(71.667,21.667,o),
(98,-9.333,o),
(150,0,c)
);
}
);
userData = {
assembly = "NPUSHB[ ]	/* 38 values pushed */
56 55 54 3 2 73 0 1 0 2 0 1 2 128 0 0 1 2 0 89 0 0 0 2 97 0 2 0 2 81 42 40 36 34 16 3 8 23 
CALL[ ]	/* CallFunction */";
};
width = 517;
}
);
note = question;
unicode = 63;
},
{
glyphname = at;
lastChange = "2022-05-30 09:55:51 +0000";
layers = (
{
layerId = "D6A4831D-747C-4592-93C0-305F4CD57904";
shapes = (
{
closed = 1;
nodes = (
(364,0,o),
(369,1,o),
(373,3,cs),
(378.333,6.333,o),
(383.5,11,o),
(388.5,17,cs),
(393.5,23,o),
(397,27,o),
(399,29,c),
(395,30.333,o),
(390.167,32.167,o),
(384.5,34.5,cs),
(378.833,36.833,o),
(374,38.333,o),
(370,39,cs),
(314.667,41,o),
(269,59,o),
(233,93,c),
(205,129,o),
(186.5,155.333,o),
(177.5,172,cs),
(168.5,188.667,o),
(162.333,199.667,o),
(159,205,cs),
(145,230.333,o),
(138,256,o),
(138,282,cs),
(138,318,o),
(151.667,352.667,o),
(177,394,cs),
(207.667,443.333,o),
(253,487.667,o),
(313,527,cs),
(342.333,546.333,o),
(371.667,556,o),
(401,556,cs),
(423.667,556,o),
(446.333,550,o),
(469,538,cs),
(546.333,498,o),
(584,432.333,o),
(596,343,cs),
(597.333,332.333,o),
(598,324.667,o),
(598,320,cs),
(598,276,o),
(578.333,240.667,o),
(539,214,cs),
(531,209.333,o),
(525,207,o),
(521,207,cs),
(513,207,o),
(506.333,212,o),
(501,222,cs),
(498.333,226.667,o),
(496,231.167,o),
(494,235.5,cs),
(492,239.833,o),
(490,244,o),
(488,248,cs),
(476,272,o),
(454.333,286,o),
(433,286,cs),
(412.333,286,o),
(395,276.667,o),
(381,258,cs),
(371,246,o),
(355,234.333,o),
(333,223,cs),
(328.333,221,o),
(324.333,220,o),
(321,220,cs),
(309.667,220,o),
(304,229,o),
(304,247,cs),
(304,275,o),
(337.667,341.667,o),
(359,351,cs),
(365,353.667,o),
(372,353,o),
(380,349,cs),
(386.667,345,o),
(395.333,334,o),
(398,330,cs),
(404.667,322,o),
(416.333,318,o),
(433,318,cs),
(446.333,318,o),
(455.333,321,o),
(460,327,cs),
(466,334.333,o),
(469,341,o),
(469,347,cs),
(469,355.667,o),
(463.333,365.667,o),
(452,377,cs),
(428,399,o),
(402,410,o),
(374,410,cs),
(362.667,410,o),
(350.667,408,o),
(338,404,cs),
(294,390.667,o),
(266.333,361.667,o),
(241,319,cs),
(230.333,300.333,o),
(225,282,o),
(225,264,cs),
(225,226.667,o),
(249,192.333,o),
(289,175,cs),
(308.333,166.333,o),
(326.667,162,o),
(344,162,cs),
(364,162,o),
(384.333,167.667,o),
(405,179,cs),
(415.667,185,o),
(425,188,o),
(433,188,cs),
(436.333,188,o),
(438.667,187.333,o),
(440,186,cs),
(463.333,164.667,o),
(491.667,154,o),
(525,154,cs),
(534.333,154,o),
(548.333,155.333,o),
(567,158,c),
(616.333,182,o),
(647,201.5,o),
(659,216.5,cs),
(671,231.5,o),
(677.333,245.667,o),
(678,259,cs),
(679,280,ls),
(680.333,298.667,o),
(681,312.667,o),
(681,322,cs),
(681,366,o),
(671,401.667,o),
(651,429,cs),
(626.333,463.667,o),
(608.333,487,o),
(597,499,cs),
(537.667,563,o),
(470.667,593.667,o),
(396,591,cs),
(373,589,ls),
(346.333,587.667,o),
(331.667,585.667,o),
(317,579,cs),
(266.333,555.667,o),
(222.667,530.333,o),
(186,503,cs),
(138.667,467.667,o),
(102,421.333,o),
(76,364,cs),
(65.333,340.667,o),
(60,317.333,o),
(60,294,cs),
(60,264.667,o),
(68.333,231.667,o),
(85,195,cs),
(137,81.667,o),
(223.667,17,o),
(345,1,cs),
(358,0,l),
(358,0,l)
);
}
);
userData = {
assembly = "NPUSHB[ ]	/* 10 values pushed */
68 1 4 3 3 1 5 6 2 76 
MPPEM[ ]	/* MeasurePixelPerEm */
PUSHB[ ]	/* 1 value pushed */
29 
LT[ ]	/* LessThan */
IF[ ]	/* If */
NPUSHB[ ]	/* 53 values pushed */
12 1 11 0 8 3 11 8 105 0 5 7 0 5 89 0 6 0 1 0 6 1 105 0 7 2 1 0 9 7 0 105 0 4 4 3 97 0 3 3 33 77 0 9 9 10 97 0 10 10 40 10 78 
ELSE[ ]	/* Else */
MPPEM[ ]	/* MeasurePixelPerEm */
PUSHB[ ]	/* 1 value pushed */
44 
LT[ ]	/* LessThan */
IF[ ]	/* If */
NPUSHB[ ]	/* 54 values pushed */
12 1 11 0 8 3 11 8 105 0 6 0 1 2 6 1 105 0 5 0 2 0 5 2 105 0 7 0 0 9 7 0 105 0 4 4 3 97 0 3 3 33 77 0 9 9 10 97 0 10 10 40 10 78 
ELSE[ ]	/* Else */
MPPEM[ ]	/* MeasurePixelPerEm */
PUSHB[ ]	/* 1 value pushed */
46 
LT[ ]	/* LessThan */
IF[ ]	/* If */
NPUSHB[ ]	/* 51 values pushed */
12 1 11 0 8 3 11 8 105 0 6 0 1 2 6 1 105 0 5 0 2 0 5 2 105 0 7 0 0 9 7 0 105 0 9 0 10 9 10 101 0 4 4 3 97 0 3 3 33 4 78 
ELSE[ ]	/* Else */
MPPEM[ ]	/* MeasurePixelPerEm */
PUSHB[ ]	/* 1 value pushed */
49 
LT[ ]	/* LessThan */
IF[ ]	/* If */
NPUSHB[ ]	/* 57 values pushed */
0 11 12 8 12 11 114 0 12 0 8 3 12 8 105 0 6 0 1 2 6 1 105 0 5 0 2 0 5 2 105 0 7 0 0 9 7 0 105 0 9 0 10 9 10 101 0 4 4 3 97 0 3 3 33 4 78 
ELSE[ ]	/* Else */
NPUSHB[ ]	/* 63 values pushed */
0 11 12 8 12 11 114 0 12 0 8 3 12 8 105 0 3 0 4 6 3 4 105 0 6 0 1 2 6 1 105 0 5 0 2 0 5 2 105 0 7 0 0 9 7 0 105 0 9 10 10 9 89 0 9 9 10 97 0 10 9 10 81 
EIF[ ]	/* EndIf */
EIF[ ]	/* EndIf */
EIF[ ]	/* EndIf */
EIF[ ]	/* EndIf */
NPUSHB[ ]	/* 20 values pushed */
114 113 112 111 98 97 90 89 42 22 37 26 38 42 34 19 41 13 8 31 
CALL[ ]	/* CallFunction */";
};
width = 731;
}
);
note = at;
unicode = 64;
},
{
glyphname = A;
kernLeft = A;
kernRight = A;
lastChange = "2022-05-30 09:55:51 +0000";
layers = (
{
layerId = "D6A4831D-747C-4592-93C0-305F4CD57904";
shapes = (
{
closed = 1;
nodes = (
(640.667,-14,o),
(656.667,-0.333,o),
(658,21,cs),
(659.333,37,o),
(660,49.667,o),
(660,59,cs),
(660,75.667,o),
(658.333,89.333,o),
(655,100,cs),
(631,176.667,o),
(618.333,263,o),
(617,359,cs),
(615,411,ls),
(611,465,o),
(607,506.667,o),
(603,536,cs),
(597,580,o),
(587.333,615.667,o),
(574,643,cs),
(555.333,680.333,o),
(519,702,o),
(479,702,cs),
(463,702,o),
(447.333,698.333,o),
(432,691,cs),
(361.333,657,o),
(304.333,601,o),
(261,523,c),
(246.333,491.667,o),
(201,399,o),
(125,245,cs),
(56,105,ls),
(52,97,o),
(50,89.333,o),
(50,82,cs),
(50,71.333,o),
(55,60.333,o),
(65,49,cs),
(78.333,33,o),
(99,22,o),
(119,22,cs),
(139.667,22,o),
(156.333,33.333,o),
(169,56,cs),
(188.333,90.667,o),
(203.667,117.667,o),
(215,137,cs),
(227.667,158.333,o),
(245.667,172,o),
(269,178,cs),
(292.333,182.667,o),
(317.667,189,o),
(345,197,cs),
(393,211,ls),
(417,217.667,o),
(447.667,227.667,o),
(489,241,cs),
(495,243,o),
(500.333,244,o),
(505,244,cs),
(517.667,244,o),
(526,235,o),
(530,217,cs),
(540,173,o),
(548.333,138.333,o),
(555,113,cs),
(557.667,103,o),
(558.333,92,o),
(557,80,cs),
(556.333,72.667,o),
(556.333,67,o),
(557,63,c),
(556.333,60.333,o),
(556,56.333,o),
(556,51,cs),
(556,19,o),
(573.667,-4,o),
(607,-12,cs),
(613,-13.333,o),
(616.667,-14,o),
(618,-14,cs)
);
},
{
closed = 1;
nodes = (
(297,322,ls),
(310.333,352,o),
(319,371.333,o),
(323,380,cs),
(347.667,434.667,o),
(377.667,485.667,o),
(413,533,cs),
(434.333,561.667,o),
(461,579,o),
(493,585,c),
(507.667,510.333,o),
(510.333,450,o),
(513,322,c),
(449,312,o),
(371.333,299,o),
(280,283,c)
);
}
);
userData = {
assembly = "NPUSHB[ ]	/* 18 values pushed */
71 64 61 2 4 1 3 18 16 2 2 1 8 1 0 2 3 76 
MPPEM[ ]	/* MeasurePixelPerEm */
PUSHB[ ]	/* 1 value pushed */
21 
LT[ ]	/* LessThan */
IF[ ]	/* If */
NPUSHB[ ]	/* 24 values pushed */
0 1 3 2 3 1 2 128 0 3 3 36 77 0 2 2 34 77 0 0 0 31 0 78 
ELSE[ ]	/* Else */
NPUSHB[ ]	/* 21 values pushed */
0 3 1 3 133 0 1 2 1 133 0 2 2 34 77 0 0 0 31 0 78 
EIF[ ]	/* EndIf */
PUSHB[ ]	/* 7 values pushed */
44 45 30 26 4 8 26 
CALL[ ]	/* CallFunction */";
};
width = 710;
}
);
note = A;
unicode = 65;
},
{
glyphname = B;
lastChange = "2022-05-30 09:55:51 +0000";
layers = (
{
layerId = "D6A4831D-747C-4592-93C0-305F4CD57904";
shapes = (
{
closed = 1;
nodes = (
(320,-55,o),
(342.333,-49.333,o),
(365,-38,cs),
(457,8,o),
(523.667,69.333,o),
(565,146,cs),
(581.667,177.333,o),
(590,209,o),
(590,241,cs),
(590,306.333,o),
(554.667,364.333,o),
(484,391,cs),
(477.333,393.667,o),
(465.667,400,o),
(449,410,c),
(467,440,o),
(477.667,458.333,o),
(481,465,cs),
(487.667,477.667,o),
(493.333,489.333,o),
(498,500,cs),
(508,520,ls),
(515.333,536.667,o),
(519,553.333,o),
(519,570,cs),
(519,610,o),
(498.667,646.667,o),
(464,668,cs),
(430.667,689.333,o),
(389.333,700,o),
(340,700,cs),
(329.333,700,o),
(314,699.333,o),
(294,698,cs),
(207.333,690,o),
(142,645.333,o),
(110,568,cs),
(89.333,516.667,o),
(75.333,461.667,o),
(68,403,cs),
(62.667,363,o),
(60,317.667,o),
(60,267,cs),
(60,213.667,o),
(61.667,173.667,o),
(63,147,cs),
(64.333,125.667,o),
(66,93.667,o),
(66,51,cs),
(66,23,o),
(78,-2,o),
(102,-24,cs),
(110.667,-32.667,o),
(120.333,-37,o),
(131,-37,cs),
(143,-37,o),
(153,-31,o),
(161,-19,cs),
(163,-16.333,o),
(164.833,-12.167,o),
(166.5,-6.5,cs),
(168.167,-0.833,o),
(169.667,4,o),
(171,8,c),
(185.667,-2.667,o),
(198.333,-12.333,o),
(209,-21,cs),
(236.333,-43.667,o),
(266,-55,o),
(298,-55,cs)
);
},
{
closed = 1;
nodes = (
(253.667,32,o),
(249,37.833,o),
(243,45.5,cs),
(237,53.167,o),
(231,58.667,o),
(225,62,cs),
(218.333,66,o),
(208.667,68.667,o),
(196,70,cs),
(186.667,71.333,o),
(180,72.667,o),
(176,74,c),
(172,107,ls),
(165.333,163,o),
(161.667,200,o),
(161,218,cs),
(159.667,240.667,o),
(158.333,257,o),
(157,267,cs),
(154.333,300.333,o),
(153,325.667,o),
(153,343,cs),
(153,375,o),
(157,404,o),
(165,430,c),
(197.667,508.667,o),
(223.5,557.5,o),
(242.5,576.5,cs),
(261.5,595.5,o),
(285.333,609.667,o),
(314,619,cs),
(327.333,623.667,o),
(341.667,626,o),
(357,626,cs),
(375,626,o),
(394,621.667,o),
(414,613,c),
(411,591,ls),
(408.333,571,o),
(405.333,556.667,o),
(402,548,cs),
(369.333,470,o),
(320.667,413.667,o),
(256,379,cs),
(243.333,371.667,o),
(225,359.333,o),
(201,342,cs),
(178,326,l),
(190,298,o),
(206.667,282.667,o),
(232,268,cs),
(242.667,262,o),
(253,259,o),
(263,259,cs),
(279,259,o),
(295,266,o),
(311,280,cs),
(342.333,309.333,o),
(373,328.333,o),
(403,337,cs),
(411.667,339.667,o),
(421,341,o),
(431,341,cs),
(464.333,341,o),
(485,322,o),
(485,286,cs),
(485,278,o),
(484,269,o),
(482,259,cs),
(476.667,233.667,o),
(463.667,205,o),
(443,173,cs),
(388.333,94.333,o),
(337,44,o),
(257,28,c)
);
}
);
userData = {
assembly = "NPUSHB[ ]	/* 16 values pushed */
53 1 2 4 3 98 1 5 4 77 16 2 1 5 3 76 
MPPEM[ ]	/* MeasurePixelPerEm */
PUSHB[ ]	/* 1 value pushed */
21 
LT[ ]	/* LessThan */
IF[ ]	/* If */
NPUSHB[ ]	/* 36 values pushed */
0 4 3 5 3 4 5 128 0 5 1 3 5 1 126 0 0 1 0 134 0 3 3 2 97 0 2 2 36 77 0 1 1 31 1 78 
ELSE[ ]	/* Else */
MPPEM[ ]	/* MeasurePixelPerEm */
PUSHB[ ]	/* 1 value pushed */
26 
LT[ ]	/* LessThan */
IF[ ]	/* If */
NPUSHB[ ]	/* 34 values pushed */
0 4 3 5 3 4 5 128 0 5 1 3 5 1 126 0 0 1 0 134 0 2 0 3 4 2 3 105 0 1 1 31 1 78 
ELSE[ ]	/* Else */
NPUSHB[ ]	/* 42 values pushed */
0 4 3 5 3 4 5 128 0 5 1 3 5 1 126 0 1 0 3 1 0 126 0 0 0 132 0 2 3 3 2 89 0 2 2 3 97 0 3 2 3 81 
EIF[ ]	/* EndIf */
EIF[ ]	/* EndIf */
NPUSHB[ ]	/* 13 values pushed */
94 92 88 86 56 54 41 38 39 43 6 8 24 
CALL[ ]	/* CallFunction */";
};
width = 640;
}
);
metricLeft = "=H";
note = B;
unicode = 66;
},
{
glyphname = C;
kernLeft = C;
kernRight = C;
lastChange = "2022-05-30 09:55:51 +0000";
layers = (
{
layerId = "D6A4831D-747C-4592-93C0-305F4CD57904";
shapes = (
{
closed = 1;
nodes = (
(361.667,7,o),
(391,8.667,o),
(421,12,cs),
(455,16,o),
(505.333,42.667,o),
(572,92,c),
(606,128,o),
(629,154.5,o),
(641,171.5,cs),
(653,188.5,o),
(660.333,199.333,o),
(663,204,cs),
(670.333,213.333,o),
(674,223.333,o),
(674,234,cs),
(674,249.333,o),
(667,262,o),
(653,272,cs),
(640.333,280.667,o),
(629.667,285,o),
(621,285,cs),
(610.333,285,o),
(598.333,278.333,o),
(581,261,cs),
(561,240,ls),
(536.333,214,o),
(518.667,197.333,o),
(508,190,cs),
(422.667,122,o),
(400,109.667,o),
(316,99,cs),
(304,97,o),
(293,96,o),
(283,96,cs),
(225.667,96,o),
(192.333,123.667,o),
(179,185,cs),
(173,212.333,o),
(170,240.667,o),
(170,270,cs),
(170,352,o),
(198.333,422.667,o),
(255,482,cs),
(288.333,517.333,o),
(322,535,o),
(356,535,cs),
(374,535,o),
(392.667,529.667,o),
(412,519,cs),
(416,516.333,o),
(419,515,o),
(421,515,cs),
(425,514.333,o),
(430.667,514,o),
(438,514,cs),
(456.667,514,o),
(469,524,o),
(469,544,cs),
(469,546.667,o),
(468.333,552,o),
(467,560,c),
(452.333,613.333,o),
(368,647.667,o),
(288,637,c),
(200.667,608.333,o),
(136.667,556.667,o),
(96,482,cs),
(58.881,414.833,o),
(46.907,345.654,o),
(50,324,c),
(48.667,180,o),
(81,23,o),
(333,7,c)
);
}
);
userData = {
assembly = "PUSHB[ ]	/* 6 values pushed */
61 1 3 4 1 76 
MPPEM[ ]	/* MeasurePixelPerEm */
PUSHB[ ]	/* 1 value pushed */
21 
LT[ ]	/* LessThan */
IF[ ]	/* If */
NPUSHB[ ]	/* 36 values pushed */
0 1 2 4 2 1 4 128 0 4 3 2 4 3 126 0 2 2 0 97 0 0 0 36 77 0 3 3 5 97 0 5 5 40 5 78 
ELSE[ ]	/* Else */
MPPEM[ ]	/* MeasurePixelPerEm */
PUSHB[ ]	/* 1 value pushed */
44 
LT[ ]	/* LessThan */
IF[ ]	/* If */
NPUSHB[ ]	/* 34 values pushed */
0 1 2 4 2 1 4 128 0 4 3 2 4 3 126 0 0 0 2 1 0 2 105 0 3 3 5 97 0 5 5 40 5 78 
ELSE[ ]	/* Else */
NPUSHB[ ]	/* 39 values pushed */
0 1 2 4 2 1 4 128 0 4 3 2 4 3 126 0 0 0 2 1 0 2 105 0 3 5 5 3 89 0 3 3 5 97 0 5 3 5 81 
EIF[ ]	/* EndIf */
EIF[ ]	/* EndIf */
NPUSHB[ ]	/* 9 values pushed */
44 41 39 36 38 39 6 8 28 
CALL[ ]	/* CallFunction */";
};
width = 724;
}
);
metricLeft = "=O";
note = C;
unicode = 67;
},
{
glyphname = D;
kernRight = D;
lastChange = "2022-05-30 09:55:51 +0000";
layers = (
{
layerId = "D6A4831D-747C-4592-93C0-305F4CD57904";
shapes = (
{
closed = 1;
nodes = (
(220.667,-48,o),
(244.333,-42.333,o),
(267,-31,cs),
(328.333,-2.333,o),
(384.333,34.333,o),
(435,79,cs),
(518.333,151,o),
(599.333,249.333,o),
(678,374,cs),
(698.667,407.333,o),
(709,439.667,o),
(709,471,cs),
(709,507.667,o),
(695.333,543.667,o),
(668,579,cs),
(649.333,601.667,o),
(626.333,621.333,o),
(599,638,cs),
(520.333,688.667,o),
(433.667,712.667,o),
(315,734,cs),
(294.333,738,o),
(274,740,o),
(254,740,cs),
(233.333,740,o),
(214,737.667,o),
(196,733,cs),
(161.333,725,o),
(139.333,714,o),
(134,678,c),
(140,673.333,o),
(149,665.667,o),
(161,655,cs),
(178.333,639.667,o),
(186.667,632.333,o),
(186,633,c),
(182,615,l),
(172.667,503,o),
(155,415.333,o),
(115,242,cs),
(110,220,ls),
(103.333,190,o),
(96,144.333,o),
(88,83,cs),
(81,31,l),
(80,22,ls),
(80,3.333,o),
(91,-9.667,o),
(111,-23,cs),
(138.333,-39.667,o),
(166.667,-48,o),
(196,-48,cs)
);
},
{
closed = 1;
nodes = (
(200.333,42,o),
(197,43.333,o),
(191,46,c),
(191,54,o),
(191,75.333,o),
(195,90,cs),
(207,146,o),
(221,206.667,o),
(237,272,cs),
(273,416,ls),
(287.667,472.667,o),
(299.333,520.333,o),
(308,559,cs),
(309.333,565.667,o),
(310,570.333,o),
(310,573,cs),
(310,595.667,o),
(296,613.333,o),
(264,640,c),
(286,643,ls),
(299.333,645,o),
(310,645.667,o),
(318,645,cs),
(394.667,633.667,o),
(466.333,613,o),
(533,583,cs),
(569,565.667,o),
(591,530.333,o),
(591,489,cs),
(591,477,o),
(589.667,466.667,o),
(587,458,cs),
(567,386,o),
(527.333,324.333,o),
(470,251,cs),
(399.333,163.667,o),
(314,95.667,o),
(214,47,c),
(201,42,l),
(201,42,l)
);
}
);
userData = {
assembly = "NPUSHB[ ]	/* 24 values pushed */
45 42 39 30 3 5 1 0 1 76 0 0 1 0 133 0 1 1 118 47 39 2 8 24 
CALL[ ]	/* CallFunction */";
};
width = 759;
}
);
metricRight = "=O";
note = D;
unicode = 68;
},
{
glyphname = E;
lastChange = "2022-05-30 09:55:51 +0000";
layers = (
{
layerId = "D6A4831D-747C-4592-93C0-305F4CD57904";
shapes = (
{
closed = 1;
nodes = (
(505,-25,o),
(530,-23.667,o),
(552,-21,cs),
(594.667,-15.667,o),
(620.333,-8,o),
(635,24,c),
(615,62.667,o),
(595.333,76,o),
(562,76,cs),
(547,75,ls),
(485.667,71,o),
(435.333,68.333,o),
(396,67,cs),
(318.667,64.333,o),
(271,116,o),
(271,180,cs),
(271,202,o),
(276.333,224.667,o),
(287,248,c),
(357,258,ls),
(410.333,265.333,o),
(450.333,271,o),
(477,275,cs),
(507,279.667,o),
(535.333,293.667,o),
(562,317,cs),
(570.667,325.667,o),
(575,334,o),
(575,342,cs),
(575,348.667,o),
(572,356.667,o),
(566,366,cs),
(554.667,383.333,o),
(539.333,392,o),
(520,392,cs),
(510.667,392,o),
(499,389.333,o),
(485,384,cs),
(435,364,o),
(387,354,o),
(341,354,cs),
(330.333,354,o),
(322.333,354.333,o),
(317,355,c),
(315.667,360.333,o),
(314,366.667,o),
(314,372,c),
(315,376,ls),
(331.667,428.667,o),
(348.667,481.667,o),
(366,535,cs),
(372.667,555.667,o),
(388.333,566,o),
(413,566,cs),
(416.333,566,o),
(421.333,565.167,o),
(428,563.5,cs),
(434.667,561.833,o),
(439.333,561,o),
(442,561,cs),
(478.667,563.667,o),
(505.333,565.333,o),
(522,566,cs),
(594,568.667,o),
(648,573,o),
(684,579,cs),
(707.333,583,o),
(741.667,590,o),
(787,600,c),
(795,602.667,o),
(807,611.667,o),
(807,617,cs),
(807,627.667,o),
(802,641,o),
(794,645,cs),
(771.333,656.333,o),
(752.667,662.667,o),
(738,664,cs),
(710,665.333,o),
(667.667,666,o),
(611,666,cs),
(484,666,ls),
(433.333,666,o),
(399,674,o),
(367,706,cs),
(361.667,711.333,o),
(352,715,o),
(344,715,cs),
(330.667,716.333,o),
(320.667,717,o),
(314,717,cs),
(294,717,o),
(280.333,710.667,o),
(271,688,cs),
(269.667,683.333,o),
(264.667,679.167,o),
(256,675.5,cs),
(247.333,671.833,o),
(241.667,669.333,o),
(239,668,cs),
(234.333,666,o),
(226.667,663.667,o),
(216,661,cs),
(194,654,l),
(196.667,648.667,o),
(199.5,641.5,o),
(202.5,632.5,cs),
(205.5,623.5,o),
(209.333,617.333,o),
(214,614,cs),
(226.667,604,o),
(233,592.333,o),
(233,579,cs),
(233,570.333,o),
(230,559.333,o),
(224,546,cs),
(222,542,o),
(220.167,536.5,o),
(218.5,529.5,cs),
(216.833,522.5,o),
(215.333,516.667,o),
(214,512,cs),
(163,365,l),
(50,358,l),
(55.333,320.667,o),
(74,307,o),
(110,287,cs),
(132,276.333,o),
(143,259.667,o),
(143,237,cs),
(143,234.333,o),
(143,226.5,o),
(143,213.5,cs),
(143,200.5,o),
(144.667,188.333,o),
(148,177,cs),
(172,95,o),
(227,37.333,o),
(313,4,cs),
(361.667,-15.333,o),
(416.333,-25,o),
(477,-25,cs)
);
}
);
userData = {
assembly = "NPUSHB[ ]	/* 14 values pushed */
59 1 8 7 94 1 1 8 30 1 4 2 3 76 
MPPEM[ ]	/* MeasurePixelPerEm */
PUSHB[ ]	/* 1 value pushed */
21 
LT[ ]	/* LessThan */
IF[ ]	/* If */
NPUSHB[ ]	/* 42 values pushed */
5 1 0 1 2 1 0 2 128 0 6 6 36 77 9 1 8 8 7 95 0 7 7 30 77 0 1 1 33 77 3 1 2 2 4 98 0 4 4 31 4 78 
ELSE[ ]	/* Else */
MPPEM[ ]	/* MeasurePixelPerEm */
PUSHB[ ]	/* 1 value pushed */
29 
LT[ ]	/* LessThan */
IF[ ]	/* If */
NPUSHB[ ]	/* 40 values pushed */
0 6 7 6 133 5 1 0 1 2 1 0 2 128 0 7 9 1 8 1 7 8 105 0 1 1 33 77 3 1 2 2 4 98 0 4 4 31 4 78 
ELSE[ ]	/* Else */
MPPEM[ ]	/* MeasurePixelPerEm */
PUSHB[ ]	/* 1 value pushed */
34 
LT[ ]	/* LessThan */
IF[ ]	/* If */
NPUSHB[ ]	/* 46 values pushed */
0 6 7 6 133 5 1 0 1 3 1 0 3 128 0 3 2 1 3 2 126 0 7 9 1 8 1 7 8 105 0 1 1 33 77 0 2 2 4 98 0 4 4 31 4 78 
ELSE[ ]	/* Else */
NPUSHB[ ]	/* 52 values pushed */
0 6 7 6 133 0 5 1 0 1 5 0 128 0 0 3 1 0 3 126 0 3 2 1 3 2 126 0 7 9 1 8 1 7 8 105 0 1 1 33 77 0 2 2 4 98 0 4 4 31 4 78 
EIF[ ]	/* EndIf */
EIF[ ]	/* EndIf */
EIF[ ]	/* EndIf */
NPUSHB[ ]	/* 17 values pushed */
98 96 93 92 81 75 69 67 27 38 33 46 34 35 10 8 28 
CALL[ ]	/* CallFunction */";
};
width = 817;
}
);
metricLeft = O;
note = E;
unicode = 69;
},
{
glyphname = F;
lastChange = "2022-05-30 09:55:51 +0000";
layers = (
{
layerId = "D6A4831D-747C-4592-93C0-305F4CD57904";
shapes = (
{
closed = 1;
nodes = (
(169.667,-33,o),
(182,-16.333,o),
(186,17,cs),
(187.333,26.333,o),
(188,40,o),
(188,58,cs),
(188,98,l),
(194.667,170,o),
(203.333,158.667,o),
(246,168,cs),
(249.333,168.667,o),
(252.5,169.833,o),
(255.5,171.5,cs),
(258.5,173.167,o),
(261.667,174.333,o),
(265,175,cs),
(459,228,l),
(552,248,l),
(577.333,256,o),
(589,260,o),
(589,276,cs),
(589,288,o),
(579.333,302.333,o),
(560,319,cs),
(555.333,323,o),
(547.333,325,o),
(536,325,cs),
(528,324.333,o),
(516,324,o),
(500,324,cs),
(490.667,324,o),
(455.333,323,o),
(430,319,cs),
(372.667,309.667,o),
(362,306.667,o),
(334,300,cs),
(277,288,ls),
(267.667,286.667,o),
(227.333,286,o),
(214,286,c),
(222,343.333,o),
(227.333,373,o),
(266,445,cs),
(290,490,l),
(306.667,511.333,o),
(326.333,530.333,o),
(349,547,cs),
(391.667,580.333,o),
(425.333,603.667,o),
(450,617,cs),
(474.667,630.333,o),
(497,634,o),
(517,628,c),
(531.667,628,o),
(544.667,624,o),
(556,616,cs),
(558.667,614.667,o),
(562.5,613.333,o),
(567.5,612,cs),
(572.5,610.667,o),
(576.667,609.333,o),
(580,608,cs),
(586,606,o),
(591.667,605,o),
(597,605,cs),
(612.333,605,o),
(624.333,612,o),
(633,626,cs),
(636.333,632.667,o),
(638,638,o),
(638,642,cs),
(638,651.333,o),
(631.667,662.333,o),
(619,675,cs),
(587.667,708.333,o),
(550,725,o),
(506,725,cs),
(491.333,725,o),
(478.333,723.667,o),
(467,721,cs),
(410.333,710.333,o),
(353.667,685.333,o),
(297,646,cs),
(182.333,567.333,o),
(110.333,476,o),
(93,352,cs),
(82.333,273.333,o),
(76,213.667,o),
(72,175,cs),
(70,152.333,o),
(66.333,117.667,o),
(61,71,cs),
(60.333,67.667,o),
(60,63,o),
(60,57,cs),
(60,23.667,o),
(76.667,0,o),
(110,-20,cs),
(124.667,-28.667,o),
(137.667,-33,o),
(149,-33,cs)
);
}
);
userData = {
assembly = "PUSHB[ ]	/* 6 values pushed */
58 1 6 4 1 76 
MPPEM[ ]	/* MeasurePixelPerEm */
PUSHB[ ]	/* 1 value pushed */
21 
LT[ ]	/* LessThan */
IF[ ]	/* If */
NPUSHB[ ]	/* 39 values pushed */
0 5 6 1 6 5 1 128 2 1 1 0 6 1 0 126 0 0 3 6 0 3 126 0 6 6 4 97 0 4 4 36 77 0 3 3 31 3 78 
ELSE[ ]	/* Else */
MPPEM[ ]	/* MeasurePixelPerEm */
PUSHB[ ]	/* 1 value pushed */
34 
LT[ ]	/* LessThan */
IF[ ]	/* If */
NPUSHB[ ]	/* 37 values pushed */
0 5 6 1 6 5 1 128 2 1 1 0 6 1 0 126 0 0 3 6 0 3 126 0 4 0 6 5 4 6 105 0 3 3 31 3 78 
ELSE[ ]	/* Else */
NPUSHB[ ]	/* 43 values pushed */
0 5 6 1 6 5 1 128 2 1 1 0 6 1 0 126 0 0 3 6 0 3 126 0 3 3 132 0 4 6 6 4 89 0 4 4 6 97 0 6 4 6 81 
EIF[ ]	/* EndIf */
EIF[ ]	/* EndIf */
NPUSHB[ ]	/* 14 values pushed */
70 68 62 61 55 53 36 34 17 54 34 7 8 25 
CALL[ ]	/* CallFunction */";
};
width = 648;
}
);
metricLeft = "=H";
metricRight = "=E";
note = F;
unicode = 70;
},
{
glyphname = G;
lastChange = "2022-05-30 09:55:51 +0000";
layers = (
{
layerId = "D6A4831D-747C-4592-93C0-305F4CD57904";
shapes = (
{
closed = 1;
nodes = (
(297.667,17,o),
(307,17.333,o),
(313,18,cs),
(363.667,22,o),
(415,36,o),
(475,72,cs),
(551,116,o),
(593.333,166.667,o),
(624,232,cs),
(631.333,245.333,o),
(636.667,257,o),
(640,267,cs),
(646.667,285,o),
(650,302.333,o),
(650,319,cs),
(650,364.333,o),
(620,392,o),
(560,402,cs),
(516.667,409.333,o),
(478.667,412,o),
(446,410,cs),
(406,407.333,o),
(347.667,401.667,o),
(271,393,cs),
(236,389,ls),
(234,389,o),
(231.667,387.667,o),
(229,385,cs),
(226.333,382.333,o),
(224,380.333,o),
(222,379,c),
(239.333,319,o),
(268.333,295,o),
(323,295,c),
(348.333,297,o),
(367.333,298.333,o),
(380,299,cs),
(409,301,ls),
(453,304.333,o),
(486.333,306.667,o),
(509,308,c),
(510.333,301.333,o),
(511,296.333,o),
(511,293,cs),
(511,284.333,o),
(506.167,262.5,o),
(496.5,227.5,cs),
(477.167,157.5,o),
(369,102,o),
(265,118,c),
(223,118,o),
(188.333,143.333,o),
(161,194,c),
(155,233.333,o),
(152,265.667,o),
(152,291,cs),
(152,521.667,o),
(311,600,o),
(535,576,c),
(563,577.333,o),
(580.667,587.667,o),
(598,613,c),
(573.333,646.333,o),
(542.667,665.333,o),
(506,670,cs),
(480.667,674,o),
(454.333,676,o),
(427,676,cs),
(297.667,676,o),
(147,628.333,o),
(95,515,c),
(43,375,o),
(50,337,o),
(50,261,cs),
(50,253,o),
(50.667,239,o),
(52,219,cs),
(56,160.333,o),
(80.333,116,o),
(127,76,cs),
(174.333,36.667,o),
(227,17,o),
(285,17,cs)
);
}
);
userData = {
assembly = "MPPEM[ ]	/* MeasurePixelPerEm */
PUSHB[ ]	/* 1 value pushed */
39 
LT[ ]	/* LessThan */
IF[ ]	/* If */
NPUSHB[ ]	/* 15 values pushed */
1 1 0 6 35 27 2 2 4 25 1 1 2 3 76 
ELSE[ ]	/* Else */
NPUSHB[ ]	/* 15 values pushed */
1 1 0 6 35 27 2 2 4 25 1 1 3 3 76 
EIF[ ]	/* EndIf */
MPPEM[ ]	/* MeasurePixelPerEm */
PUSHB[ ]	/* 1 value pushed */
21 
LT[ ]	/* LessThan */
IF[ ]	/* If */
NPUSHB[ ]	/* 32 values pushed */
0 0 0 6 97 0 6 6 30 77 3 1 2 2 4 97 0 4 4 33 77 0 1 1 5 97 0 5 5 34 5 78 
ELSE[ ]	/* Else */
MPPEM[ ]	/* MeasurePixelPerEm */
PUSHB[ ]	/* 1 value pushed */
39 
LT[ ]	/* LessThan */
IF[ ]	/* If */
NPUSHB[ ]	/* 30 values pushed */
0 6 0 0 4 6 0 105 3 1 2 2 4 97 0 4 4 33 77 0 1 1 5 97 0 5 5 34 5 78 
ELSE[ ]	/* Else */
MPPEM[ ]	/* MeasurePixelPerEm */
PUSHB[ ]	/* 1 value pushed */
49 
LT[ ]	/* LessThan */
IF[ ]	/* If */
NPUSHB[ ]	/* 37 values pushed */
0 3 2 1 2 3 1 128 0 6 0 0 4 6 0 105 0 2 2 4 97 0 4 4 33 77 0 1 1 5 97 0 5 5 34 5 78 
ELSE[ ]	/* Else */
NPUSHB[ ]	/* 35 values pushed */
0 3 2 1 2 3 1 128 0 6 0 0 4 6 0 105 0 4 0 2 3 4 2 105 0 1 1 5 97 0 5 5 34 5 78 
EIF[ ]	/* EndIf */
EIF[ ]	/* EndIf */
EIF[ ]	/* EndIf */
NPUSHB[ ]	/* 10 values pushed */
43 46 39 33 45 40 35 7 8 29 
CALL[ ]	/* CallFunction */";
};
width = 700;
}
);
metricLeft = "=O";
note = G;
unicode = 71;
},
{
glyphname = H;
kernLeft = H;
kernRight = H;
lastChange = "2022-05-30 09:55:51 +0000";
layers = (
{
layerId = "D6A4831D-747C-4592-93C0-305F4CD57904";
shapes = (
{
closed = 1;
nodes = (
(483.667,12,o),
(492.167,21.167,o),
(492.5,29.5,cs),
(492.833,37.833,o),
(493,43.333,o),
(493,46,cs),
(495.667,80,o),
(501.667,110.5,o),
(511,137.5,cs),
(520.333,164.5,o),
(530.667,204.667,o),
(542,258,cs),
(565,366,l),
(575.667,366,o),
(592,365.667,o),
(614,365,cs),
(632,363,o),
(647.667,361,o),
(661,359,cs),
(674.333,357,o),
(685,362.333,o),
(693,375,c),
(687.667,416.333,o),
(665.333,427,o),
(624,439,cs),
(618.667,440.333,o),
(600.667,445.333,o),
(590,452,c),
(601.333,482,o),
(607,506.667,o),
(607,526,cs),
(607,566,o),
(595,596.667,o),
(567,622,cs),
(552.333,635.333,o),
(535.333,629.333,o),
(516,604,c),
(508,570,l),
(474,465,l),
(335,476,l),
(270,459,l),
(298,555,l),
(306.667,595,o),
(310.333,607.333,o),
(309,592,c),
(309,673.333,o),
(282.667,703.333,o),
(240,702,c),
(234,689.333,o),
(230.333,680.667,o),
(229,676,cs),
(218,640,ls),
(202.667,589.333,o),
(188.667,542,o),
(176,498,cs),
(166.667,464.667,o),
(157,446.667,o),
(129,440,cs),
(125,439.333,o),
(120.5,437.333,o),
(115.5,434,cs),
(110.5,430.667,o),
(106.667,428.333,o),
(104,427,cs),
(74.667,411,o),
(60,393.667,o),
(60,375,cs),
(60,359.667,o),
(69.5,350.667,o),
(88.5,348,cs),
(107.5,345.333,o),
(117,336.333,o),
(117,321,cs),
(117,315.667,o),
(116,310,o),
(114,304,c),
(109.333,256,o),
(105.167,224,o),
(101.5,208,cs),
(94.167,176,o),
(90,106.667,o),
(106,84,cs),
(125.69,56.106,o),
(160.05,82.725,o),
(174,99,cs),
(180.667,107.667,o),
(185.667,118,o),
(189,130,cs),
(200,166,l),
(206.667,226.667,o),
(214.167,271.667,o),
(222.5,301,cs),
(230.833,330.333,o),
(242.333,346.333,o),
(257,349,cs),
(283.667,353,o),
(333,358,o),
(405,364,cs),
(417,364,o),
(431,364.667,o),
(447,366,c),
(427,285,l),
(418.333,219,o),
(412.667,177.333,o),
(410,160,cs),
(408.667,152.667,o),
(408,142,o),
(408,128,cs),
(408,102.667,o),
(414.333,72.333,o),
(427,37,c),
(431.667,11.667,o),
(445,0,o),
(467,2,c)
);
}
);
userData = {
assembly = "NPUSHB[ ]	/* 19 values pushed */
96 71 65 54 52 47 6 0 3 22 1 1 4 83 1 5 1 3 76 
MPPEM[ ]	/* MeasurePixelPerEm */
PUSHB[ ]	/* 1 value pushed */
21 
LT[ ]	/* LessThan */
IF[ ]	/* If */
NPUSHB[ ]	/* 38 values pushed */
0 0 3 4 3 0 4 128 0 4 1 3 4 1 126 0 1 5 3 1 5 126 0 2 2 36 77 0 3 3 32 77 0 5 5 31 5 78 
ELSE[ ]	/* Else */
NPUSHB[ ]	/* 38 values pushed */
0 2 3 2 133 0 0 3 4 3 0 4 128 0 4 1 3 4 1 126 0 1 5 3 1 5 126 0 3 3 32 77 0 5 5 31 5 78 
EIF[ ]	/* EndIf */
NPUSHB[ ]	/* 13 values pushed */
87 86 77 75 59 57 45 44 42 32 6 8 24 
CALL[ ]	/* CallFunction */";
};
width = 755;
}
);
note = H;
unicode = 72;
},
{
glyphname = I;
kernLeft = I;
kernRight = I;
lastChange = "2022-05-30 09:55:51 +0000";
layers = (
{
layerId = "D6A4831D-747C-4592-93C0-305F4CD57904";
shapes = (
{
closed = 1;
nodes = (
(164,16,o),
(177,18,o),
(191,22,cs),
(223.667,31.333,o),
(254.333,41.333,o),
(283,52,cs),
(369.667,84,o),
(422.333,99,o),
(485,107,cs),
(499.667,108.333,o),
(527,115.333,o),
(567,128,cs),
(586,134,ls),
(623.333,143.333,o),
(635.667,148.667,o),
(649,166,c),
(637,203.333,o),
(607,212,o),
(563,212,cs),
(545,212.667,o),
(518,210.667,o),
(482,206,cs),
(466,204,o),
(435.333,200,o),
(390,194,c),
(402,253,ls),
(412.667,307,o),
(421.333,350,o),
(428,382,cs),
(434.667,418.667,o),
(442.333,468.333,o),
(451,531,cs),
(456,567,l),
(527,559,l),
(549,558,ls),
(566.333,557.333,o),
(579.333,556.667,o),
(588,556,cs),
(610.667,554.667,o),
(641.667,581.333,o),
(627,596,cs),
(616.352,606.648,o),
(604.735,609,o),
(601,609,c),
(538,627,ls),
(524,631,o),
(506.5,635.833,o),
(485.5,641.5,cs),
(464.5,647.167,o),
(440,654.333,o),
(412,663,cs),
(382,672.333,o),
(351.667,676.667,o),
(321,676,cs),
(253.667,675.333,o),
(190.333,653,o),
(131,609,cs),
(115.667,597.667,o),
(104.333,586.667,o),
(97,576,cs),
(91.667,568.667,o),
(89,561,o),
(89,553,cs),
(89,541,o),
(97,529.333,o),
(109,524,cs),
(111,523.333,o),
(117.5,520.5,o),
(128.5,515.5,cs),
(139.5,510.5,o),
(150,508,o),
(160,508,cs),
(169.333,508,o),
(178.333,510.333,o),
(187,515,cs),
(211.667,528.333,o),
(233.667,539,o),
(253,547,c),
(306.333,556.333,o),
(345.333,554.667,o),
(328,508,c),
(328,504,o),
(327.667,501,o),
(327,499,c),
(323,468,ls),
(305.667,333.333,o),
(295,268.333,o),
(271,187,cs),
(267,171,o),
(256.667,160.333,o),
(240,155,cs),
(201.333,143,o),
(163.667,129.667,o),
(127,115,cs),
(83,96.333,o),
(68,87.333,o),
(60,58,c),
(89.333,30,o),
(120,16,o),
(152,16,cs)
);
}
);
userData = {
assembly = "NPUSHB[ ]	/* 18 values pushed */
51 22 2 3 2 73 66 3 3 0 5 2 76 17 1 1 1 75 
MPPEM[ ]	/* MeasurePixelPerEm */
PUSHB[ ]	/* 1 value pushed */
21 
LT[ ]	/* LessThan */
IF[ ]	/* If */
NPUSHB[ ]	/* 34 values pushed */
4 1 3 2 1 2 3 1 128 0 1 5 2 1 5 126 0 5 0 2 5 0 126 0 2 2 30 77 0 0 0 34 0 78 
ELSE[ ]	/* Else */
NPUSHB[ ]	/* 27 values pushed */
0 2 3 2 133 4 1 3 1 3 133 0 1 5 1 133 0 5 0 5 133 0 0 0 34 0 78 
EIF[ ]	/* EndIf */
NPUSHB[ ]	/* 14 values pushed */
71 69 59 58 57 53 40 38 28 26 32 6 8 23 
CALL[ ]	/* CallFunction */";
};
width = 711;
}
);
metricLeft = "=H";
metricRight = "=H";
note = I;
unicode = 73;
},
{
glyphname = J;
lastChange = "2022-05-30 09:55:51 +0000";
layers = (
{
layerId = "D6A4831D-747C-4592-93C0-305F4CD57904";
shapes = (
{
closed = 1;
nodes = (
(272.667,9,o),
(305.333,12.667,o),
(340,20,cs),
(429.333,37.333,o),
(485.333,91.333,o),
(520,178,cs),
(550.667,256.667,o),
(556.333,330.333,o),
(559,449,cs),
(560,477,l),
(560,512,ls),
(560,550,o),
(559.667,578.333,o),
(559,597,cs),
(559,654,l),
(537,673.333,o),
(512.333,683,o),
(485,683,cs),
(471.667,683,o),
(455,680.667,o),
(435,676,cs),
(428.333,674,o),
(418,672.333,o),
(404,671,cs),
(388.667,669.667,o),
(375.667,667.333,o),
(365,664,cs),
(320.333,647.333,o),
(273,627,o),
(223,603,cs),
(209.667,596.333,o),
(199,583.333,o),
(199,570,cs),
(199,565.333,o),
(200,561,o),
(202,557,cs),
(207.333,545,o),
(225.333,534,o),
(240,530,cs),
(248.667,527.333,o),
(258.333,526,o),
(269,526,cs),
(286.333,526,o),
(302.667,530.333,o),
(318,539,cs),
(363.333,565.667,o),
(385.667,576.667,o),
(423,578,c),
(431,520,o),
(435,469.333,o),
(435,426,cs),
(435,331.333,o),
(416,248.667,o),
(378,178,cs),
(348.667,123.333,o),
(284,89,o),
(216,89,cs),
(194.667,89,o),
(174.333,92.333,o),
(155,99,cs),
(148.333,101.667,o),
(123.333,111,o),
(106,111,cs),
(88,111,o),
(72.667,103,o),
(60,87,c),
(75.333,63.667,o),
(96,46,o),
(122,34,cs),
(159.333,17.333,o),
(199.333,9,o),
(242,9,cs)
);
}
);
userData = {
assembly = "NPUSHB[ ]	/* 10 values pushed */
40 1 2 4 1 1 5 1 2 76 
MPPEM[ ]	/* MeasurePixelPerEm */
PUSHB[ ]	/* 1 value pushed */
21 
LT[ ]	/* LessThan */
IF[ ]	/* If */
NPUSHB[ ]	/* 38 values pushed */
0 2 4 3 4 2 3 128 0 3 0 4 3 0 126 0 0 1 4 0 1 126 0 4 4 30 77 0 1 1 5 97 0 5 5 40 5 78 
ELSE[ ]	/* Else */
NPUSHB[ ]	/* 31 values pushed */
0 4 2 4 133 0 2 3 2 133 0 3 0 3 133 0 0 1 0 133 0 1 1 5 97 0 5 5 40 5 78 
EIF[ ]	/* EndIf */
NPUSHB[ ]	/* 11 values pushed */
54 52 39 37 35 22 35 34 6 8 26 
CALL[ ]	/* CallFunction */";
};
width = 610;
}
);
note = J;
unicode = 74;
},
{
glyphname = K;
lastChange = "2022-05-30 09:55:51 +0000";
layers = (
{
layerId = "D6A4831D-747C-4592-93C0-305F4CD57904";
shapes = (
{
closed = 1;
nodes = (
(163.333,-25.667,o),
(167,-5.667,o),
(167,25,cs),
(166,124,ls),
(166,146,o),
(166.333,162.333,o),
(167,173,cs),
(168.333,191.667,o),
(175,213.333,o),
(187,224,cs),
(205.667,242,o),
(233.333,265.667,o),
(270,295,cs),
(299,319,l),
(315,296.333,o),
(323.667,283.667,o),
(325,281,c),
(345,254.333,o),
(361.667,230.333,o),
(375,209,cs),
(427,123.667,o),
(499,55,o),
(591,-13,cs),
(598.333,-19,o),
(606,-22,o),
(614,-22,cs),
(622.667,-22,o),
(632.667,-17.333,o),
(644,-8,c),
(627,11,ls),
(549.667,92.333,o),
(496,172.667,o),
(408,314,cs),
(390,342,ls),
(378.667,360.667,o),
(373,374,o),
(373,382,cs),
(373,394,o),
(381.333,404,o),
(400,420,cs),
(415.333,434,o),
(439,453.667,o),
(471,479,cs),
(499,502,l),
(609,595,l),
(619.667,605.667,o),
(625,615.333,o),
(625,624,cs),
(625,630,o),
(623,636,o),
(619,642,cs),
(609.667,656.667,o),
(585,666,o),
(561,666,cs),
(546.333,666,o),
(535.333,663.333,o),
(528,658,cs),
(309,503,ls),
(281,483,o),
(254.667,463.667,o),
(230,445,c),
(227.333,446.333,o),
(224.667,447.333,o),
(222,450,c),
(228,474.667,o),
(232.333,491,o),
(235,499,cs),
(245.667,528.333,o),
(253.333,550.333,o),
(258,565,cs),
(292,662,ls),
(296,673.333,o),
(298,682,o),
(298,688,cs),
(298,700,o),
(292,706.667,o),
(272,716,cs),
(251.333,726,o),
(236,731,o),
(226,731,cs),
(212.667,731,o),
(203.333,723.333,o),
(194,706,cs),
(191.333,700.667,o),
(183,684.5,o),
(169,657.5,cs),
(155,630.5,o),
(144,604.667,o),
(136,580,cs),
(118.667,523.333,o),
(103.333,461.333,o),
(90,394,cs),
(70,299.333,o),
(60,243.667,o),
(60,181,cs),
(60,160.333,o),
(61.667,136,o),
(65,108,cs),
(69,57,l),
(82.333,-29.667,o),
(94,-21.667,o),
(142,-39,c)
);
}
);
userData = {
assembly = "NPUSHB[ ]	/* 12 values pushed */
55 45 39 3 1 0 1 76 51 1 1 73 
MPPEM[ ]	/* MeasurePixelPerEm */
PUSHB[ ]	/* 1 value pushed */
21 
LT[ ]	/* LessThan */
IF[ ]	/* If */
NPUSHB[ ]	/* 16 values pushed */
0 2 0 2 133 0 0 0 30 77 0 1 1 31 1 78 
ELSE[ ]	/* Else */
NPUSHB[ ]	/* 16 values pushed */
0 2 0 2 133 0 0 1 0 133 0 1 1 31 1 78 
EIF[ ]	/* EndIf */
PUSHB[ ]	/* 8 values pushed */
70 68 31 29 38 3 8 23 
CALL[ ]	/* CallFunction */";
};
width = 694;
}
);
metricLeft = "=H";
note = K;
unicode = 75;
},
{
glyphname = L;
kernLeft = L;
kernRight = A;
lastChange = "2022-05-30 09:55:51 +0000";
layers = (
{
layerId = "D6A4831D-747C-4592-93C0-305F4CD57904";
shapes = (
{
closed = 1;
nodes = (
(309.333,-58,o),
(343.333,-50.333,o),
(390,-37,cs),
(418,-29,ls),
(420.667,-28.333,o),
(423.167,-26.333,o),
(425.5,-23,cs),
(427.833,-19.667,o),
(430,-17.333,o),
(432,-16,cs),
(448.667,-3.333,o),
(459.833,5.667,o),
(465.5,11,cs),
(471.167,16.333,o),
(474,22,o),
(474,28,cs),
(474,37.333,o),
(459.333,51.667,o),
(442,69,c),
(362,52,ls),
(303.333,40,o),
(264.667,32.333,o),
(246,29,cs),
(242.667,28.333,o),
(238,28,o),
(232,28,cs),
(202,28,o),
(187,44.667,o),
(187,78,cs),
(187,96,o),
(189,113.333,o),
(193,130,cs),
(223.667,262,o),
(267,399,o),
(323,541,cs),
(338.333,578.333,o),
(348.667,608,o),
(354,630,cs),
(356.667,640,o),
(358,650,o),
(358,660,cs),
(358,698,o),
(336.667,718.667,o),
(294,722,cs),
(290.667,722,o),
(287.333,722.333,o),
(284,723,cs),
(280.667,723.667,o),
(277.333,724,o),
(274,724,cs),
(240.667,726.667,o),
(225.333,714.667,o),
(216,684,cs),
(198,624.667,o),
(185,580,o),
(177,550,cs),
(139,424.667,o),
(112.667,335.667,o),
(98,283,cs),
(84.667,235.667,o),
(72.333,177.667,o),
(61,109,cs),
(60.333,105.667,o),
(60,100.333,o),
(60,93,cs),
(60,58.333,o),
(78,29,o),
(110,1,cs),
(152,-38.333,o),
(206,-58,o),
(272,-58,cs)
);
}
);
userData = {
assembly = "PUSHB[ ]	/* 4 values pushed */
2 1 1 74 
MPPEM[ ]	/* MeasurePixelPerEm */
PUSHB[ ]	/* 1 value pushed */
36 
LT[ ]	/* LessThan */
IF[ ]	/* If */
NPUSHB[ ]	/* 11 values pushed */
0 1 1 0 97 0 0 0 31 0 78 
ELSE[ ]	/* Else */
NPUSHB[ ]	/* 16 values pushed */
0 1 0 0 1 89 0 1 1 0 97 0 0 1 0 81 
EIF[ ]	/* EndIf */
PUSHB[ ]	/* 6 values pushed */
47 45 46 2 8 23 
CALL[ ]	/* CallFunction */";
};
width = 524;
}
);
metricLeft = "=H";
note = L;
unicode = 76;
},
{
glyphname = M;
kernRight = A;
lastChange = "2022-05-30 09:55:51 +0000";
layers = (
{
layerId = "D6A4831D-747C-4592-93C0-305F4CD57904";
shapes = (
{
closed = 1;
nodes = (
(870.333,26.667,o),
(875,34.333,o),
(875,43,cs),
(875,51.667,o),
(875.333,59.333,o),
(876,66,cs),
(878,98,ls),
(878,121.333,o),
(879.333,142.333,o),
(882,161,cs),
(891.333,242.333,o),
(906.667,364.333,o),
(928,527,cs),
(930.667,551,o),
(934.333,569,o),
(937,581,cs),
(937.667,584.333,o),
(938,589.333,o),
(938,596,cs),
(938,603.333,o),
(937.333,608.333,o),
(936,611,cs),
(924,639,o),
(876,672,o),
(844,672,cs),
(839.333,672,o),
(836,671.667,o),
(834,671,cs),
(822,668.333,o),
(813.667,663.333,o),
(809,656,cs),
(771.667,601.333,o),
(737,549.667,o),
(705,501,cs),
(697,489.667,o),
(682.667,464.333,o),
(662,425,cs),
(626,355.667,o),
(606,319.667,o),
(578,289,c),
(546,356,ls),
(509.333,434.667,o),
(478.333,498.833,o),
(453,548.5,cs),
(427.667,598.167,o),
(411.333,623.667,o),
(404,625,cs),
(393.333,626.333,o),
(385.667,627,o),
(381,627,cs),
(354.333,627,o),
(333,615.333,o),
(317,592,cs),
(295.667,560.667,o),
(264,517.333,o),
(222,462,cs),
(191,421,ls),
(135.667,347,o),
(94,268.667,o),
(66,186,cs),
(62,175.333,o),
(60,164.667,o),
(60,154,cs),
(60,134,o),
(69,116,o),
(87,100,cs),
(110.333,77.333,o),
(128.333,66,o),
(141,66,cs),
(149,66,o),
(156,70.833,o),
(162,80.5,cs),
(168,90.167,o),
(174.333,106.333,o),
(181,129,cs),
(215.667,237,o),
(281.667,355.667,o),
(379,485,c),
(392,459,ls),
(397.333,448.333,o),
(423.333,395,o),
(430,371,cs),
(448.667,307,o),
(464.333,245.333,o),
(477,186,cs),
(485,147.333,o),
(507,117,o),
(543,95,cs),
(555.667,87.667,o),
(566,84,o),
(574,84,cs),
(591.333,84,o),
(602.667,99.667,o),
(616,133,c),
(670,233,o),
(709.167,301.167,o),
(733.5,337.5,cs),
(757.833,373.833,o),
(773,394.667,o),
(779,400,c),
(777,321,l),
(776,266,ls),
(774.667,215.333,o),
(774,177.667,o),
(774,153,cs),
(774,129,o),
(774.333,111.333,o),
(775,100,cs),
(777.667,56,o),
(800.333,32.333,o),
(843,23,cs),
(851,21,o),
(857,20,o),
(861,20,c)
);
}
);
userData = {
assembly = "NPUSHB[ ]	/* 14 values pushed */
61 44 19 3 4 2 4 1 76 29 1 3 1 75 
MPPEM[ ]	/* MeasurePixelPerEm */
PUSHB[ ]	/* 1 value pushed */
21 
LT[ ]	/* LessThan */
IF[ ]	/* If */
NPUSHB[ ]	/* 31 values pushed */
0 2 4 3 4 2 3 128 0 3 1 4 3 1 126 0 0 0 30 77 0 4 4 32 77 0 1 1 34 1 78 
ELSE[ ]	/* Else */
NPUSHB[ ]	/* 31 values pushed */
0 0 4 0 133 0 2 4 3 4 2 3 128 0 3 1 4 3 1 126 0 4 4 32 77 0 1 1 34 1 78 
EIF[ ]	/* EndIf */
NPUSHB[ ]	/* 12 values pushed */
79 78 67 65 52 50 34 32 30 5 8 23 
CALL[ ]	/* CallFunction */";
};
width = 1000;
}
);
metricLeft = "=H";
metricRight = "=H";
note = M;
unicode = 77;
},
{
glyphname = N;
kernLeft = N;
kernRight = N;
lastChange = "2022-05-30 09:55:51 +0000";
layers = (
{
layerId = "D6A4831D-747C-4592-93C0-305F4CD57904";
shapes = (
{
closed = 1;
nodes = (
(171,-52.333,o),
(200.667,-19.333,o),
(202,22,cs),
(204,50,o),
(205.333,74.5,o),
(206,95.5,cs),
(206.667,116.5,o),
(207.333,133.667,o),
(208,147,cs),
(214,272,ls),
(216.667,300,o),
(223,338.667,o),
(233,388,cs),
(242,432,l),
(280,384,o),
(308,347.667,o),
(326,323,cs),
(347,295,ls),
(377.667,253.667,o),
(403.333,220.333,o),
(424,195,cs),
(444,171,o),
(467.667,160,o),
(495,162,cs),
(549.667,164.667,o),
(581.333,190.333,o),
(592,245,cs),
(595.333,263,o),
(598,276.333,o),
(600,285,cs),
(628,415.667,o),
(646,490,o),
(678,574,c),
(685.333,586.667,o),
(692,605.333,o),
(698,630,cs),
(702,646.667,o),
(697.333,660.333,o),
(684,671,c),
(635.333,691.667,o),
(604.167,684.333,o),
(590.5,649,cs),
(576.833,613.667,o),
(547.667,522,o),
(503,374,cs),
(486,318,l),
(468.667,342.667,o),
(451,366.333,o),
(433,389,cs),
(314,555,ls),
(309.09,561.137,o),
(302.298,575.48,o),
(293.5,588.5,cs),
(285.167,600.833,o),
(275.667,611.667,o),
(265,621,cs),
(235,647.667,o),
(205,648.667,o),
(175,624,c),
(139,585.333,o),
(125.667,537.333,o),
(131,488,cs),
(131.667,480.667,o),
(130.833,472.5,o),
(128.5,463.5,cs),
(126.167,454.5,o),
(124.667,447,o),
(124,441,cs),
(105.333,330.333,o),
(91.667,243.333,o),
(83,180,cs),
(81,169.333,o),
(79,153,o),
(77,131,cs),
(75,95,o),
(71,68.667,o),
(65,52,cs),
(61.667,42.667,o),
(60,32,o),
(60,20,cs),
(60,6,o),
(62.333,-10,o),
(67,-28,cs),
(72.333,-48,o),
(111,-68.333,o),
(131,-63,cs)
);
}
);
userData = {
assembly = "NPUSHB[ ]	/* 11 values pushed */
19 1 0 74 57 45 38 14 4 0 73 
MPPEM[ ]	/* MeasurePixelPerEm */
PUSHB[ ]	/* 1 value pushed */
39 
LT[ ]	/* LessThan */
IF[ ]	/* If */
PUSHB[ ]	/* 6 values pushed */
0 0 0 32 0 78 
ELSE[ ]	/* Else */
PUSHB[ ]	/* 4 values pushed */
0 0 0 118 
EIF[ ]	/* EndIf */
PUSHB[ ]	/* 4 values pushed */
36 1 8 23 
CALL[ ]	/* CallFunction */";
};
width = 719;
}
);
metricLeft = "=H";
note = N;
unicode = 78;
},
{
glyphname = O;
kernLeft = O;
kernRight = O;
lastChange = "2022-05-30 09:55:51 +0000";
layers = (
{
layerId = "D6A4831D-747C-4592-93C0-305F4CD57904";
shapes = (
{
closed = 1;
nodes = (
(387,0,o),
(453.667,22.333,o),
(523,67,cs),
(605.667,119,o),
(669.667,191.667,o),
(731,289,cs),
(754.333,325.667,o),
(766,361.667,o),
(766,397,cs),
(766,441.667,o),
(747.667,483,o),
(711,521,cs),
(708.333,524.333,o),
(698.333,533,o),
(681,547,cs),
(670.333,555.667,o),
(660,564.333,o),
(650,573,cs),
(595.333,626.333,o),
(506.667,656,o),
(416,656,cs),
(352.667,656,o),
(297.333,642.333,o),
(250,615,cs),
(189.333,580.333,o),
(144.667,540,o),
(116,494,c),
(127,485,l),
(161,493,o),
(186,499.667,o),
(202,505,cs),
(328,540,ls),
(333.333,541.333,o),
(338.333,542.667,o),
(343,544,cs),
(347.667,545.333,o),
(352.333,546.667,o),
(357,548,cs),
(399,561.333,o),
(422.333,568.667,o),
(427,570,cs),
(443,574.667,o),
(458.333,577,o),
(473,577,cs),
(513.667,577,o),
(547,560,o),
(573,526,cs),
(603.667,483.333,o),
(621,451.667,o),
(621,417,cs),
(621,395.667,o),
(614,373.667,o),
(600,351,cs),
(558.667,287,o),
(505.333,233.333,o),
(432,172,cs),
(392,138.667,o),
(345.333,125.333,o),
(276,112,cs),
(272.667,111.333,o),
(268,111,o),
(262,111,cs),
(238,111,o),
(221.667,122.667,o),
(219,144,cs),
(212.333,180.667,o),
(209,212,o),
(209,238,cs),
(209,250,o),
(209.333,259.333,o),
(210,266,cs),
(212,282.667,o),
(213,296,o),
(213,306,cs),
(213,334,o),
(203.333,344,o),
(158,368,cs),
(134,380,l),
(108,391,l),
(105.333,389,o),
(101.667,386.333,o),
(97,383,cs),
(92.333,379.667,o),
(89.333,376,o),
(88,372,c),
(62.667,329.333,o),
(50,286.333,o),
(50,243,cs),
(50,131,o),
(137,32.667,o),
(265,6,cs),
(284.333,2,o),
(303.667,0,o),
(323,0,cs)
);
}
);
userData = {
assembly = "PUSHB[ ]	/* 6 values pushed */
69 1 2 3 1 76 
MPPEM[ ]	/* MeasurePixelPerEm */
PUSHB[ ]	/* 1 value pushed */
21 
LT[ ]	/* LessThan */
IF[ ]	/* If */
NPUSHB[ ]	/* 24 values pushed */
0 2 3 1 3 2 1 128 0 3 3 0 97 0 0 0 30 77 0 1 1 34 1 78 
ELSE[ ]	/* Else */
MPPEM[ ]	/* MeasurePixelPerEm */
PUSHB[ ]	/* 1 value pushed */
24 
LT[ ]	/* LessThan */
IF[ ]	/* If */
NPUSHB[ ]	/* 24 values pushed */
0 2 3 1 3 2 1 128 0 3 3 0 97 0 0 0 32 77 0 1 1 34 1 78 
ELSE[ ]	/* Else */
MPPEM[ ]	/* MeasurePixelPerEm */
PUSHB[ ]	/* 1 value pushed */
26 
LT[ ]	/* LessThan */
IF[ ]	/* If */
NPUSHB[ ]	/* 22 values pushed */
0 2 3 1 3 2 1 128 0 0 0 3 2 0 3 105 0 1 1 34 1 78 
ELSE[ ]	/* Else */
NPUSHB[ ]	/* 28 values pushed */
0 2 3 1 3 2 1 128 0 1 1 132 0 0 3 3 0 89 0 0 0 3 97 0 3 0 3 81 
EIF[ ]	/* EndIf */
EIF[ ]	/* EndIf */
EIF[ ]	/* EndIf */
NPUSHB[ ]	/* 9 values pushed */
59 57 43 42 46 34 4 8 24 
CALL[ ]	/* CallFunction */";
};
width = 816;
}
);
metricLeft = O;
metricRight = o;
note = O;
unicode = 79;
},
{
glyphname = P;
kernLeft = P;
kernRight = P;
lastChange = "2022-05-30 09:55:51 +0000";
layers = (
{
layerId = "D6A4831D-747C-4592-93C0-305F4CD57904";
shapes = (
{
closed = 1;
nodes = (
(106,1,ls),
(128.667,2.333,o),
(139.667,15.667,o),
(145,37,cs),
(154,82,ls),
(156,92,o),
(158.333,104.5,o),
(161,119.5,cs),
(163.667,134.5,o),
(167.333,152,o),
(172,172,cs),
(256,561,ls),
(262,587.667,o),
(276.667,600,o),
(300,598,cs),
(372,592,o),
(437,586.667,o),
(495,582,cs),
(499.667,581.333,o),
(505.5,579.5,o),
(512.5,576.5,cs),
(519.5,573.5,o),
(525.333,560.667,o),
(530,538,c),
(520,519.333,o),
(511.333,507,o),
(504,501,cs),
(466,466.333,o),
(421.333,429,o),
(370,389,cs),
(354.667,377,o),
(331,360.667,o),
(299,340,cs),
(271,322,l),
(288.333,287.333,o),
(315.667,266,o),
(345,266,cs),
(353,266,o),
(363.333,268.333,o),
(376,273,cs),
(476,309.667,o),
(556.333,363,o),
(617,433,cs),
(629.667,447.667,o),
(638.667,460.667,o),
(644,472,cs),
(654,491.333,o),
(659,509,o),
(659,525,cs),
(659,549.667,o),
(646,572.667,o),
(620,594,cs),
(616.667,596.667,o),
(609.333,602.833,o),
(598,612.5,cs),
(586.667,622.167,o),
(575.333,629.333,o),
(564,634,cs),
(470,672.667,o),
(377.333,692,o),
(286,692,cs),
(262.667,692,o),
(236,690.333,o),
(206,687,cs),
(164.667,680.333,o),
(124,660,o),
(96,628,cs),
(77.333,606,o),
(67.333,584.333,o),
(66,563,cs),
(65.333,550.333,o),
(69.333,535.333,o),
(78,518,c),
(130,509,l),
(126,489,o),
(119.333,459.667,o),
(110,421,cs),
(104.667,399.667,o),
(85,315.333,o),
(77,258,cs),
(71,218.667,o),
(66,159.667,o),
(62,81,cs),
(60,41,ls),
(58.667,10.333,o),
(67.667,0,o),
(93,0,cs)
);
}
);
userData = {
assembly = "PUSHB[ ]	/* 8 values pushed */
40 12 4 3 0 1 1 76 
MPPEM[ ]	/* MeasurePixelPerEm */
PUSHB[ ]	/* 1 value pushed */
21 
LT[ ]	/* LessThan */
IF[ ]	/* If */
NPUSHB[ ]	/* 25 values pushed */
0 0 1 2 1 0 2 128 0 1 1 4 97 0 4 4 36 77 3 1 2 2 40 2 78 
ELSE[ ]	/* Else */
MPPEM[ ]	/* MeasurePixelPerEm */
PUSHB[ ]	/* 1 value pushed */
49 
LT[ ]	/* LessThan */
IF[ ]	/* If */
NPUSHB[ ]	/* 23 values pushed */
0 0 1 2 1 0 2 128 0 4 0 1 0 4 1 105 3 1 2 2 40 2 78 
ELSE[ ]	/* Else */
NPUSHB[ ]	/* 29 values pushed */
0 0 1 2 1 0 2 128 3 1 2 2 132 0 4 1 1 4 89 0 4 4 1 97 0 1 4 1 81 
EIF[ ]	/* EndIf */
EIF[ ]	/* EndIf */
NPUSHB[ ]	/* 9 values pushed */
51 49 17 25 31 32 5 8 26 
CALL[ ]	/* CallFunction */";
};
width = 689;
}
);
metricLeft = "=H";
note = P;
unicode = 80;
},
{
glyphname = Q;
kernLeft = O;
kernRight = O;
lastChange = "2022-05-30 09:55:51 +0000";
layers = (
{
layerId = "D6A4831D-747C-4592-93C0-305F4CD57904";
shapes = (
{
closed = 1;
nodes = (
(164.667,-92,o),
(175.333,-91,o),
(186,-89,cs),
(200,-86.333,o),
(220.333,-81.667,o),
(247,-75,cs),
(283,-66.333,o),
(311.333,-60,o),
(332,-56,cs),
(417.333,-42.667,o),
(450.667,-37,o),
(500,-37,cs),
(529.333,-37,o),
(558.333,-40,o),
(587,-46,cs),
(596.333,-47.333,o),
(604,-48,o),
(610,-48,cs),
(624,-48,o),
(639.333,-46.333,o),
(656,-43,cs),
(665.333,-41.667,o),
(677.667,-27.667,o),
(679,-17,cs),
(679,-9,o),
(666.333,5.333,o),
(657,8,cs),
(557,36,o),
(488.333,55,o),
(411,55,cs),
(403,54.333,o),
(387,55,o),
(363,57,cs),
(321,60,l),
(321,60,o),
(327,65,o),
(339,75,cs),
(351.667,85,o),
(360.667,91.667,o),
(366,95,cs),
(414,119,o),
(453.333,157.333,o),
(484,210,cs),
(511.333,256.667,o),
(525.333,302,o),
(526,346,cs),
(526,415.333,o),
(499,473.333,o),
(451,536,cs),
(416.333,581.333,o),
(369,609.333,o),
(305,632,cs),
(300.333,634,o),
(295,635,o),
(289,635,cs),
(279.667,635,o),
(269.333,633.333,o),
(258,630,cs),
(199.333,618,o),
(157.333,580.333,o),
(116,523,cs),
(89.333,485.667,o),
(72,455.333,o),
(72,422,cs),
(72,411.333,o),
(73.333,402,o),
(76,394,cs),
(79.333,382.667,o),
(81,369,o),
(81,353,cs),
(81,340.333,o),
(80.667,331,o),
(80,325,cs),
(79,296,ls),
(75.667,195.333,o),
(116,122.333,o),
(200,77,cs),
(208.667,72.333,o),
(225.333,62.667,o),
(250,48,c),
(225.333,43.333,o),
(211.667,40.667,o),
(209,40,cs),
(181,35.333,o),
(158.667,30.333,o),
(142,25,cs),
(104.667,13,o),
(77.333,-1.333,o),
(60,-28,c),
(85.333,-73.333,o),
(112.667,-92,o),
(154,-92,cs)
);
},
{
closed = 1;
nodes = (
(201.667,166,o),
(182.333,187,o),
(177,223,cs),
(174.333,239.667,o),
(173,258.667,o),
(173,280,cs),
(171,309,l),
(173,309,l),
(173,341,ls),
(169,417,o),
(207,471.333,o),
(275,526,cs),
(289,537.333,o),
(303.333,543,o),
(318,543,cs),
(339.333,543,o),
(357.667,529.667,o),
(373,503,cs),
(392.333,469.667,o),
(401.667,436.667,o),
(401,404,cs),
(400.333,376,o),
(393.333,347.333,o),
(380,318,cs),
(356,265.333,o),
(320.333,221,o),
(273,185,cs),
(256.333,172.333,o),
(241,166,o),
(227,166,cs)
);
}
);
userData = {
assembly = "NPUSHB[ ]	/* 11 values pushed */
45 1 5 6 40 33 2 2 0 2 76 
MPPEM[ ]	/* MeasurePixelPerEm */
PUSHB[ ]	/* 1 value pushed */
21 
LT[ ]	/* LessThan */
IF[ ]	/* If */
NPUSHB[ ]	/* 41 values pushed */
0 6 4 5 4 6 5 128 0 5 0 4 5 0 126 0 3 1 3 134 0 4 4 30 77 0 0 0 2 97 0 2 2 31 77 0 1 1 31 1 78 
ELSE[ ]	/* Else */
MPPEM[ ]	/* MeasurePixelPerEm */
PUSHB[ ]	/* 1 value pushed */
36 
LT[ ]	/* LessThan */
IF[ ]	/* If */
NPUSHB[ ]	/* 36 values pushed */
0 4 6 4 133 0 6 5 6 133 0 5 0 5 133 0 3 1 3 134 0 0 0 2 97 0 2 2 31 77 0 1 1 31 1 78 
ELSE[ ]	/* Else */
NPUSHB[ ]	/* 34 values pushed */
0 4 6 4 133 0 6 5 6 133 0 5 0 5 133 0 3 1 3 134 0 0 0 2 1 0 2 105 0 1 1 31 1 78 
EIF[ ]	/* EndIf */
EIF[ ]	/* EndIf */
NPUSHB[ ]	/* 13 values pushed */
89 87 79 77 60 58 39 34 41 52 7 8 26 
CALL[ ]	/* CallFunction */";
};
width = 699;
}
);
note = Q;
unicode = 81;
},
{
glyphname = R;
lastChange = "2022-05-30 09:55:51 +0000";
layers = (
{
layerId = "D6A4831D-747C-4592-93C0-305F4CD57904";
shapes = (
{
closed = 1;
nodes = (
(168.667,-32,o),
(177,-20,o),
(177,28,cs),
(176,44,l),
(194,192,l),
(203.333,190.667,o),
(218,189.333,o),
(238,188,cs),
(282.667,183.333,o),
(311,180,o),
(323,178,cs),
(349.667,173.333,o),
(374.667,164.667,o),
(398,152,cs),
(416,142,o),
(438.667,128,o),
(466,110,cs),
(502,86,o),
(526.667,71,o),
(540,65,cs),
(557.333,57,o),
(581,49.667,o),
(611,43,cs),
(613.667,42.333,o),
(617,42,o),
(621,42,cs),
(642.333,42,o),
(656,55.667,o),
(656,77,cs),
(656,83,o),
(655,89.333,o),
(653,96,cs),
(649,106.667,o),
(641,122.333,o),
(637,129,c),
(632.333,128.333,o),
(625.667,128,o),
(617,128,cs),
(588.333,128,o),
(561.333,135.667,o),
(536,151,cs),
(510,168.333,o),
(469.333,192,o),
(414,222,cs),
(392,234,l),
(390.667,235.333,o),
(389.5,236.833,o),
(388.5,238.5,cs),
(387.5,240.167,o),
(386.667,241,o),
(386,241,c),
(451,325,ls),
(503.667,393.667,o),
(544.333,446.667,o),
(573,484,cs),
(597,515.333,o),
(609,546.333,o),
(609,577,cs),
(609,599,o),
(602,621.667,o),
(588,645,cs),
(557.333,697,o),
(509.333,725,o),
(456,725,cs),
(430,725,o),
(404.333,718.667,o),
(379,706,cs),
(300.333,666.667,o),
(242,610.667,o),
(204,538,cs),
(136.667,408,o),
(93.667,282.667,o),
(75,162,cs),
(69.667,122.667,o),
(67,77.667,o),
(67,27,cs),
(67,-6.333,o),
(98,-32,o),
(134,-32,cs)
);
},
{
closed = 1;
nodes = (
(267.667,407.667,o),
(311,505.667,o),
(351,551,cs),
(391,596.333,o),
(435.333,626.333,o),
(484,641,c),
(485.333,634.333,o),
(489,614.667,o),
(489,604,cs),
(489,599.333,o),
(488.667,596,o),
(488,594,cs),
(464,526,o),
(456.333,508,o),
(439,484,cs),
(396.333,425.333,o),
(337.667,355.333,o),
(283,294,cs),
(257.667,266,o),
(247.667,254.333,o),
(221,257,c)
);
}
);
userData = {
assembly = "NPUSHB[ ]	/* 11 values pushed */
73 44 2 1 3 19 1 0 4 2 76 
MPPEM[ ]	/* MeasurePixelPerEm */
PUSHB[ ]	/* 1 value pushed */
21 
LT[ ]	/* LessThan */
IF[ ]	/* If */
NPUSHB[ ]	/* 29 values pushed */
0 1 3 4 3 1 4 128 0 3 3 36 77 0 4 4 0 97 0 0 0 34 77 0 2 2 31 2 78 
ELSE[ ]	/* Else */
MPPEM[ ]	/* MeasurePixelPerEm */
PUSHB[ ]	/* 1 value pushed */
36 
LT[ ]	/* LessThan */
IF[ ]	/* If */
NPUSHB[ ]	/* 24 values pushed */
0 3 1 3 133 0 1 4 1 133 0 4 0 0 2 4 0 105 0 2 2 31 2 78 
ELSE[ ]	/* Else */
NPUSHB[ ]	/* 31 values pushed */
0 3 1 3 133 0 1 4 1 133 0 2 0 2 134 0 4 0 0 4 89 0 4 4 0 97 0 0 4 0 81 
EIF[ ]	/* EndIf */
EIF[ ]	/* EndIf */
NPUSHB[ ]	/* 9 values pushed */
53 51 41 37 28 19 5 8 26 
CALL[ ]	/* CallFunction */";
};
width = 699;
}
);
note = R;
unicode = 82;
},
{
glyphname = S;
kernLeft = S;
kernRight = S;
lastChange = "2022-05-30 09:55:51 +0000";
layers = (
{
layerId = "D6A4831D-747C-4592-93C0-305F4CD57904";
shapes = (
{
closed = 1;
nodes = (
(207.667,-39,o),
(222.333,-37.333,o),
(233,-36,cs),
(317,-29.333,o),
(383.333,-6,o),
(434,50,cs),
(456,74,o),
(467,100.333,o),
(467,129,cs),
(467,140.333,o),
(464.333,153,o),
(459,167,cs),
(432.333,231,o),
(398.333,271.333,o),
(333,342,cs),
(310,366,l),
(266,418.667,o),
(234.333,455,o),
(215,475,c),
(195,491.667,o),
(185,509,o),
(185,527,cs),
(185,537.667,o),
(188.667,547,o),
(196,555,cs),
(206,568.333,o),
(218,579.333,o),
(232,588,cs),
(292,622.667,o),
(345.667,639,o),
(407,639,cs),
(421,639,o),
(431.667,638.667,o),
(439,638,c),
(455.667,656.667,o),
(464,672,o),
(464,684,cs),
(464,696,o),
(455.667,705.333,o),
(439,712,cs),
(432.333,715.333,o),
(421.667,717.667,o),
(407,719,cs),
(391,720.333,o),
(378.667,721,o),
(370,721,cs),
(307.333,721,o),
(246,704,o),
(186,670,cs),
(123.333,635.333,o),
(92,577.333,o),
(92,516,cs),
(92,470.667,o),
(109.667,427,o),
(139,395,cs),
(165,367,o),
(194,338.667,o),
(226,310,cs),
(294,246,o),
(361.333,167.667,o),
(352,141,cs),
(336,101,o),
(253,70,o),
(173,70,cs),
(137,70,o),
(106,76,o),
(80,88,c),
(78.667,92,o),
(78,95,o),
(78,97,cs),
(82,125,o),
(80.667,130.333,o),
(62,133,c),
(43.333,110.333,o),
(34,88,o),
(34,66,cs),
(34,40,o),
(46.667,16.333,o),
(72,-5,cs),
(98.667,-26.333,o),
(132.667,-38.333,o),
(162,-37,c),
(174,-38.333,o),
(183,-39,o),
(189,-39,cs)
);
}
);
userData = {
assembly = "PUSHB[ ]	/* 6 values pushed */
39 1 3 0 1 76 
MPPEM[ ]	/* MeasurePixelPerEm */
PUSHB[ ]	/* 1 value pushed */
21 
LT[ ]	/* LessThan */
IF[ ]	/* If */
NPUSHB[ ]	/* 22 values pushed */
0 0 0 4 97 0 4 4 36 77 0 3 3 1 97 2 1 1 1 31 1 78 
ELSE[ ]	/* Else */
MPPEM[ ]	/* MeasurePixelPerEm */
PUSHB[ ]	/* 1 value pushed */
24 
LT[ ]	/* LessThan */
IF[ ]	/* If */
NPUSHB[ ]	/* 20 values pushed */
0 4 0 0 3 4 0 105 0 3 3 1 97 2 1 1 1 31 1 78 
ELSE[ ]	/* Else */
NPUSHB[ ]	/* 25 values pushed */
0 4 0 0 3 4 0 105 0 3 1 1 3 89 0 3 3 1 97 2 1 1 3 1 81 
EIF[ ]	/* EndIf */
EIF[ ]	/* EndIf */
NPUSHB[ ]	/* 12 values pushed */
64 62 48 46 33 32 31 29 36 5 8 23 
CALL[ ]	/* CallFunction */";
};
width = 529;
}
);
metricRight = H;
note = S;
unicode = 83;
},
{
glyphname = T;
kernLeft = T;
kernRight = T;
lastChange = "2022-05-30 09:55:51 +0000";
layers = (
{
layerId = "D6A4831D-747C-4592-93C0-305F4CD57904";
shapes = (
{
closed = 1;
nodes = (
(391,5,o),
(383.333,12.333,o),
(394,47,cs),
(402,74.333,o),
(406.333,97.667,o),
(407,117,cs),
(409.667,152.333,o),
(416.333,216.333,o),
(427,309,cs),
(437.667,411.667,o),
(444.667,484,o),
(448,526,c),
(457.333,584.667,o),
(465,576.333,o),
(497,579,cs),
(523,581,o),
(562,583.667,o),
(614,587,cs),
(627.333,588.333,o),
(647,589.667,o),
(673,591,cs),
(698.333,593.667,o),
(741,598.333,o),
(801,605,cs),
(825,607.667,o),
(837,617.333,o),
(837,634,c),
(829,646.667,o),
(821.833,653,o),
(815.5,653,cs),
(809.167,653,o),
(804.667,653,o),
(802,653,cs),
(732,658,ls),
(721.333,658.667,o),
(685.167,661.333,o),
(623.5,666,cs),
(561.833,670.667,o),
(502.667,673,o),
(446,673,cs),
(326.667,673.667,o),
(220.667,657,o),
(128,623,cs),
(89.333,608.333,o),
(68,597.333,o),
(60,568,c),
(77.333,529.333,o),
(109,509,o),
(145,509,cs),
(157,509,o),
(170,511.667,o),
(184,517,cs),
(242.667,539.667,o),
(298,555,o),
(350,563,c),
(342,483,ls),
(338,445.667,o),
(334,399.667,o),
(330,345,cs),
(320,203.667,o),
(307.667,104,o),
(293,46,cs),
(291.667,39.333,o),
(291,35,o),
(291,33,cs),
(291,13,o),
(305.667,1,o),
(331,1,cs)
);
}
);
userData = {
assembly = "MPPEM[ ]	/* MeasurePixelPerEm */
PUSHB[ ]	/* 1 value pushed */
46 
LT[ ]	/* LessThan */
IF[ ]	/* If */
NPUSHB[ ]	/* 14 values pushed */
35 10 3 3 0 4 52 48 39 3 6 0 2 76 
ELSE[ ]	/* Else */
NPUSHB[ ]	/* 14 values pushed */
35 10 3 3 0 5 52 48 39 3 6 0 2 76 
EIF[ ]	/* EndIf */
MPPEM[ ]	/* MeasurePixelPerEm */
PUSHB[ ]	/* 1 value pushed */
21 
LT[ ]	/* LessThan */
IF[ ]	/* If */
NPUSHB[ ]	/* 33 values pushed */
5 1 4 2 0 2 4 0 128 0 0 6 2 0 6 126 0 1 1 30 77 3 1 2 2 32 77 0 6 6 31 6 78 
ELSE[ ]	/* Else */
MPPEM[ ]	/* MeasurePixelPerEm */
PUSHB[ ]	/* 1 value pushed */
39 
LT[ ]	/* LessThan */
IF[ ]	/* If */
NPUSHB[ ]	/* 33 values pushed */
0 1 2 1 133 5 1 4 2 0 2 4 0 128 0 0 6 2 0 6 126 3 1 2 2 32 77 0 6 6 31 6 78 
ELSE[ ]	/* Else */
MPPEM[ ]	/* MeasurePixelPerEm */
PUSHB[ ]	/* 1 value pushed */
44 
LT[ ]	/* LessThan */
IF[ ]	/* If */
NPUSHB[ ]	/* 37 values pushed */
0 1 2 1 133 5 1 4 3 0 3 4 0 128 0 0 6 3 0 6 126 0 2 2 32 77 0 3 3 32 77 0 6 6 31 6 78 
ELSE[ ]	/* Else */
MPPEM[ ]	/* MeasurePixelPerEm */
PUSHB[ ]	/* 1 value pushed */
46 
LT[ ]	/* LessThan */
IF[ ]	/* If */
NPUSHB[ ]	/* 37 values pushed */
0 1 2 1 133 0 2 3 2 133 5 1 4 3 0 3 4 0 128 0 0 6 3 0 6 126 0 3 3 32 77 0 6 6 31 6 78 
ELSE[ ]	/* Else */
NPUSHB[ ]	/* 43 values pushed */
0 1 2 1 133 0 2 3 2 133 0 4 3 5 3 4 5 128 0 5 0 3 5 0 126 0 0 6 3 0 6 126 0 3 3 32 77 0 6 6 31 6 78 
EIF[ ]	/* EndIf */
EIF[ ]	/* EndIf */
EIF[ ]	/* EndIf */
EIF[ ]	/* EndIf */
NPUSHB[ ]	/* 10 values pushed */
46 17 22 33 17 38 38 7 8 29 
CALL[ ]	/* CallFunction */";
};
width = 797;
}
);
note = T;
unicode = 84;
},
{
glyphname = U;
kernLeft = U;
kernRight = U;
lastChange = "2022-05-30 09:55:51 +0000";
layers = (
{
layerId = "D6A4831D-747C-4592-93C0-305F4CD57904";
shapes = (
{
closed = 1;
nodes = (
(245.333,41,o),
(261.667,44.333,o),
(275,51,cs),
(341.667,84.333,o),
(383.333,121.667,o),
(442,183,cs),
(454,195.667,o),
(473,220,o),
(499,256,c),
(515,273.333,o),
(539,299.333,o),
(551,310,cs),
(562,318,l),
(544,102,l),
(632,88,l),
(632.667,89.333,o),
(635.333,110,o),
(640,150,cs),
(648,220,o),
(653.333,263.333,o),
(656,280,cs),
(662.667,327.333,o),
(675,404.333,o),
(693,511,c),
(698.333,588.333,o),
(648.667,646,o),
(570,654,c),
(568,652,l),
(564.667,642.667,o),
(561.667,633,o),
(559,623,cs),
(508.333,452.333,o),
(421.667,315.667,o),
(283,177,cs),
(269.667,163.667,o),
(254,157,o),
(236,157,cs),
(202.667,157,o),
(169.667,185.333,o),
(167,216,cs),
(165.667,225.333,o),
(165,239.667,o),
(165,259,cs),
(165,333,o),
(185.667,414,o),
(227,502,cs),
(241,531.333,o),
(248,555,o),
(248,573,cs),
(248,603.667,o),
(230,625.667,o),
(186,651,cs),
(176,657,o),
(167.333,660,o),
(160,660,cs),
(158,660,o),
(155.667,659.333,o),
(153,658,cs),
(146.333,656,o),
(141.333,648.333,o),
(138,635,cs),
(130,607,o),
(123.667,586,o),
(119,572,cs),
(91,473.333,o),
(76.667,421,o),
(66,357,cs),
(62,332.333,o),
(60,308.333,o),
(60,285,cs),
(60,203.667,o),
(86.333,134.333,o),
(139,77,cs),
(160.333,53,o),
(192.667,41,o),
(226,41,cs)
);
}
);
userData = {
assembly = "NPUSHB[ ]	/* 11 values pushed */
58 5 2 2 3 4 1 0 2 2 76 
MPPEM[ ]	/* MeasurePixelPerEm */
PUSHB[ ]	/* 1 value pushed */
21 
LT[ ]	/* LessThan */
IF[ ]	/* If */
NPUSHB[ ]	/* 21 values pushed */
0 1 1 30 77 0 3 3 32 77 0 2 2 0 97 0 0 0 34 0 78 
ELSE[ ]	/* Else */
MPPEM[ ]	/* MeasurePixelPerEm */
PUSHB[ ]	/* 1 value pushed */
34 
LT[ ]	/* LessThan */
IF[ ]	/* If */
NPUSHB[ ]	/* 18 values pushed */
0 1 3 1 133 0 2 0 0 2 0 101 0 3 3 32 3 78 
ELSE[ ]	/* Else */
NPUSHB[ ]	/* 26 values pushed */
0 1 3 1 133 0 3 2 3 133 0 2 0 0 2 89 0 2 2 0 97 0 0 2 0 81 
EIF[ ]	/* EndIf */
EIF[ ]	/* EndIf */
PUSHB[ ]	/* 7 values pushed */
54 44 31 47 4 8 26 
CALL[ ]	/* CallFunction */";
};
width = 743;
}
);
note = U;
unicode = 85;
},
{
glyphname = V;
kernLeft = V;
kernRight = V;
lastChange = "2022-05-30 09:55:51 +0000";
layers = (
{
layerId = "D6A4831D-747C-4592-93C0-305F4CD57904";
shapes = (
{
closed = 1;
nodes = (
(370.667,4.333,o),
(385.667,13,o),
(399,29,c),
(428.333,70.333,o),
(449,112.667,o),
(473,174,cs),
(491,220,ls),
(539,342.667,o),
(567,412.667,o),
(619,486,cs),
(663,551.333,o),
(680,571.667,o),
(716,589,cs),
(722.667,592.333,o),
(731.333,599.333,o),
(742,610,cs),
(751.333,619.333,o),
(756,629.667,o),
(756,641,cs),
(756,658.333,o),
(745.333,673,o),
(728,681,cs),
(714,687.667,o),
(699.667,690.667,o),
(685,690,cs),
(671.667,689.333,o),
(658,686.333,o),
(644,681,cs),
(600.667,664.333,o),
(565,631,o),
(537,581,c),
(500.333,524.333,o),
(462.333,454,o),
(423,370,cs),
(365,245,ls),
(348.333,205,o),
(335,175.333,o),
(325,156,cs),
(323,152,o),
(317.333,143.667,o),
(308,131,cs),
(295,114,l),
(261.667,136.667,o),
(245,167.667,o),
(233,209,cs),
(209,295,o),
(188.333,378.667,o),
(171,460,cs),
(156.333,529.333,o),
(126,554.667,o),
(50,552,c),
(50.667,543.333,o),
(50.833,535.5,o),
(50.5,528.5,cs),
(50.167,521.5,o),
(50,515.667,o),
(50,511,cs),
(50,491,ls),
(50,451,o),
(56.333,421,o),
(79,393,cs),
(81,391,o),
(82.333,387.5,o),
(83,382.5,cs),
(83.667,377.5,o),
(84.333,373.667,o),
(85,371,cs),
(87.667,362.333,o),
(93,344,o),
(101,316,cs),
(103,310,o),
(108.333,291.5,o),
(117,260.5,cs),
(125.667,229.5,o),
(135.667,201,o),
(147,175,cs),
(180.333,98.333,o),
(240.667,42.667,o),
(328,8,cs),
(338,4,o),
(346.667,2.333,o),
(354,3,cs)
);
}
);
userData = {
assembly = "PUSHB[ ]	/* 6 values pushed */
14 1 2 0 1 76 
MPPEM[ ]	/* MeasurePixelPerEm */
PUSHB[ ]	/* 1 value pushed */
21 
LT[ ]	/* LessThan */
IF[ ]	/* If */
NPUSHB[ ]	/* 19 values pushed */
0 0 1 2 1 0 2 128 0 1 1 36 77 0 2 2 40 2 78 
ELSE[ ]	/* Else */
NPUSHB[ ]	/* 16 values pushed */
0 1 0 1 133 0 0 2 0 133 0 2 2 40 2 78 
EIF[ ]	/* EndIf */
PUSHB[ ]	/* 8 values pushed */
49 47 27 25 22 3 8 23 
CALL[ ]	/* CallFunction */";
};
width = 776;
}
);
metricLeft = "=|A";
note = V;
unicode = 86;
},
{
glyphname = W;
kernLeft = W;
kernRight = W;
lastChange = "2022-05-30 09:55:51 +0000";
layers = (
{
layerId = "D6A4831D-747C-4592-93C0-305F4CD57904";
shapes = (
{
closed = 1;
nodes = (
(266.333,72,o),
(276.333,73,o),
(287,75,c),
(293.667,87,o),
(306,116.333,o),
(324,163,cs),
(342.667,213,o),
(357.667,247.667,o),
(369,267,cs),
(372.333,273,o),
(380,288.667,o),
(392,314,cs),
(421.333,372.667,o),
(440,410,o),
(468,442,c),
(470.667,415.333,o),
(473.333,384,o),
(476,348,cs),
(477,326,ls),
(485,235.333,o),
(526,142.333,o),
(594,105,cs),
(614.667,93.667,o),
(629.333,88,o),
(638,88,cs),
(646,88,o),
(652.833,91.5,o),
(658.5,98.5,cs),
(664.167,105.5,o),
(670.667,118,o),
(678,136,cs),
(690,165.333,o),
(705,212.667,o),
(723,278,cs),
(736.333,323.333,o),
(746,355,o),
(752,373,cs),
(781.333,458.333,o),
(798,502.333,o),
(842,545,cs),
(856.667,559.667,o),
(864,574,o),
(864,588,cs),
(864,598,o),
(860.333,609.333,o),
(853,622,cs),
(845.667,638,o),
(841,647,o),
(839,649,cs),
(837,651,o),
(833.333,652,o),
(828,652,cs),
(821.333,652,o),
(815.333,651.333,o),
(810,650,cs),
(754,639.333,o),
(724.333,601.333,o),
(703,540,cs),
(673,450,ls),
(661.667,414,o),
(651.333,383.667,o),
(642,359,cs),
(632.667,329.667,o),
(618,306,o),
(590,282,c),
(585,340,ls),
(580.333,382,o),
(577.667,416.333,o),
(577,443,cs),
(575.667,479,o),
(570,496,o),
(554,532,cs),
(549.333,541.333,o),
(546,548.667,o),
(544,554,cs),
(530.667,586,o),
(502.333,604,o),
(473,604,cs),
(451.667,604,o),
(430,593.667,o),
(414,575,cs),
(360.667,512.333,o),
(334,471.333,o),
(302,402,cs),
(247,292,l),
(234,330,ls),
(226.667,352,o),
(223,363,o),
(223,363,c),
(202,459,ls),
(192.667,501.667,o),
(185.333,533.667,o),
(180,555,cs),
(168.667,604.333,o),
(139.667,635.667,o),
(93,649,c),
(69,631.667,o),
(60,621.667,o),
(60,607,cs),
(60,599,o),
(63,586.333,o),
(69,569,cs),
(79,540,ls),
(80.333,536,o),
(83.667,526.333,o),
(89,511,cs),
(94.333,495.667,o),
(98,481.333,o),
(100,468,cs),
(114.667,376,o),
(148.333,248,o),
(179,148,cs),
(195,94.667,o),
(217,72,o),
(257,72,cs)
);
}
);
userData = {
assembly = "NPUSHB[ ]	/* 14 values pushed */
83 1 0 1 57 55 54 20 2 5 2 0 2 76 
MPPEM[ ]	/* MeasurePixelPerEm */
PUSHB[ ]	/* 1 value pushed */
21 
LT[ ]	/* LessThan */
IF[ ]	/* If */
NPUSHB[ ]	/* 25 values pushed */
0 0 1 2 1 0 2 128 0 2 3 1 2 3 126 0 3 3 132 0 1 1 30 1 78 
ELSE[ ]	/* Else */
MPPEM[ ]	/* MeasurePixelPerEm */
PUSHB[ ]	/* 1 value pushed */
31 
LT[ ]	/* LessThan */
IF[ ]	/* If */
NPUSHB[ ]	/* 25 values pushed */
0 0 1 2 1 0 2 128 0 2 3 1 2 3 126 0 3 3 132 0 1 1 32 1 78 
ELSE[ ]	/* Else */
NPUSHB[ ]	/* 19 values pushed */
0 1 0 1 133 0 0 2 0 133 0 2 3 2 133 0 3 3 118 
EIF[ ]	/* EndIf */
EIF[ ]	/* EndIf */
NPUSHB[ ]	/* 10 values pushed */
69 67 50 48 31 30 40 4 8 23 
CALL[ ]	/* CallFunction */";
};
width = 894;
}
);
note = W;
unicode = 87;
},
{
glyphname = X;
kernLeft = X;
kernRight = X;
lastChange = "2022-05-30 09:55:51 +0000";
layers = (
{
layerId = "D6A4831D-747C-4592-93C0-305F4CD57904";
shapes = (
{
closed = 1;
nodes = (
(80.667,35,o),
(84.667,35,o),
(90,35,cs),
(95.333,35,o),
(100,35.667,o),
(104,37,cs),
(177.333,59,o),
(245.333,92.667,o),
(308,138,cs),
(325.333,150,o),
(339,159,o),
(347,159,cs),
(357.667,159,o),
(370.333,150,o),
(389,138,cs),
(463.667,86,o),
(535.333,51.667,o),
(614,41,cs),
(636.667,38.333,o),
(653,46.333,o),
(653,61,cs),
(653,64.333,o),
(652,68,o),
(650,72,cs),
(646.667,80,o),
(639.667,87.333,o),
(629,94,cs),
(506,165,ls),
(498,169.667,o),
(478.667,181.667,o),
(448,201,cs),
(419,219,l),
(421.667,223.667,o),
(423.667,227.667,o),
(425,231,cs),
(426.333,234.333,o),
(427.667,237,o),
(429,239,cs),
(662,495,ls),
(676.667,511,o),
(685,533,o),
(685,553,cs),
(685,572.333,o),
(678.667,588,o),
(666,600,cs),
(634,629.333,o),
(611.333,645,o),
(578,641,c),
(524.667,550.333,o),
(466.667,484,o),
(356,364,cs),
(325,331,l),
(312,355,ls),
(304.667,367.667,o),
(299.667,377,o),
(297,383,cs),
(293.667,393.667,o),
(289.333,410.333,o),
(284,433,cs),
(276,463,ls),
(260,520.333,o),
(214.667,562,o),
(164,566,c),
(156.667,536.667,o),
(153,513.333,o),
(153,496,cs),
(153,471.333,o),
(158.333,447.333,o),
(169,424,cs),
(203.667,350.667,o),
(231,293.667,o),
(251,253,c),
(60,88,l),
(78,35,l),
(78,35,l)
);
}
);
userData = {
assembly = "NPUSHB[ ]	/* 20 values pushed */
35 19 10 4 4 0 74 3 1 0 73 0 0 0 118 53 51 1 8 22 
CALL[ ]	/* CallFunction */";
};
width = 735;
}
);
note = X;
unicode = 88;
},
{
glyphname = Y;
kernLeft = V;
kernRight = V;
lastChange = "2022-05-30 09:55:51 +0000";
layers = (
{
layerId = "D6A4831D-747C-4592-93C0-305F4CD57904";
shapes = (
{
closed = 1;
nodes = (
(292.333,-38.333,o),
(333.333,23.667,o),
(400,133,cs),
(414,155,ls),
(431.333,183.667,o),
(450.333,222.667,o),
(471,272,cs),
(498,332,ls),
(500.667,337.333,o),
(509.333,354,o),
(524,382,cs),
(527.333,388.667,o),
(531.167,396,o),
(535.5,404,cs),
(539.833,412,o),
(544.333,421,o),
(549,431,cs),
(575,485,o),
(593.667,528.333,o),
(605,561,cs),
(609.667,574.333,o),
(612,588.333,o),
(612,603,cs),
(612,647,o),
(588,682.667,o),
(544,700,c),
(538.667,692,o),
(534.333,686,o),
(531,682,cs),
(517,662.667,o),
(507.333,646.667,o),
(502,634,cs),
(489.333,605.333,o),
(458.333,531,o),
(409,411,cs),
(382,345,ls),
(377.333,334.333,o),
(370,319,o),
(360,299,c),
(318.667,297.667,o),
(300,315.667,o),
(268,353,cs),
(224,403.667,o),
(204.333,464.667,o),
(187,546,cs),
(179,586,o),
(161,601.667,o),
(121,635,cs),
(104,648,ls),
(100.667,650,o),
(96.667,651,o),
(92,651,cs),
(73,650,l),
(65,615.333,o),
(60,586.333,o),
(60,569,cs),
(60,557,o),
(61.833,545,o),
(65.5,533,cs),
(69.167,521,o),
(76.333,501,o),
(87,473,cs),
(128.333,360.333,o),
(209.333,278.667,o),
(330,228,c),
(320.667,199.333,o),
(314.333,180.667,o),
(311,172,cs),
(267,64,o),
(234.333,-17,o),
(213,-71,cs),
(212.333,-73.667,o),
(213.5,-78.167,o),
(216.5,-84.5,cs),
(219.5,-90.833,o),
(221.667,-96.333,o),
(223,-101,c)
);
}
);
userData = {
assembly = "PUSHB[ ]	/* 8 values pushed */
27 1 0 74 53 1 1 73 
MPPEM[ ]	/* MeasurePixelPerEm */
PUSHB[ ]	/* 1 value pushed */
36 
LT[ ]	/* LessThan */
IF[ ]	/* If */
NPUSHB[ ]	/* 11 values pushed */
0 1 0 1 134 0 0 0 32 0 78 
ELSE[ ]	/* Else */
NPUSHB[ ]	/* 9 values pushed */
0 0 1 0 133 0 1 1 118 
EIF[ ]	/* EndIf */
PUSHB[ ]	/* 5 values pushed */
27 21 2 8 24 
CALL[ ]	/* CallFunction */";
};
width = 632;
}
);
metricRight = "=V";
note = Y;
unicode = 89;
},
{
glyphname = Z;
kernLeft = Z;
kernRight = Z;
lastChange = "2022-05-30 09:55:51 +0000";
layers = (
{
layerId = "D6A4831D-747C-4592-93C0-305F4CD57904";
shapes = (
{
closed = 1;
nodes = (
(197,-29,o),
(212.667,-27,o),
(234,-23,cs),
(267,-16,ls),
(335,-1.333,o),
(385,8.333,o),
(417,13,cs),
(440.333,16.333,o),
(473,20,o),
(515,24,cs),
(559,28,o),
(591.667,31.333,o),
(613,34,cs),
(646.333,38.667,o),
(695.667,48.333,o),
(761,63,cs),
(783.667,69,o),
(795,82.667,o),
(795,104,cs),
(795,109.333,o),
(794.667,113.333,o),
(794,116,c),
(250,83,l),
(260,103,ls),
(268.667,121,o),
(274.667,132.667,o),
(278,138,cs),
(312,187,ls),
(342.667,233.667,o),
(378.333,285.667,o),
(409,323,cs),
(491,426.333,o),
(568.333,514.333,o),
(641,587,cs),
(656.333,602.333,o),
(664,615.333,o),
(664,626,cs),
(664,639.333,o),
(654.333,651,o),
(633,667,cs),
(593,699,o),
(546.667,712.667,o),
(488,718,cs),
(461.333,720,o),
(434.667,721,o),
(408,721,cs),
(321.333,721,o),
(255.667,712.667,o),
(113,694,cs),
(50,685,l),
(50,679.667,o),
(50,664.667,o),
(54,662,c),
(91.333,628.667,o),
(124,610,o),
(164,610,cs),
(176,611,ls),
(216,615,o),
(256.333,620,o),
(297,626,cs),
(301.667,626.667,o),
(317,629,o),
(343,633,cs),
(369,637,o),
(394,639,o),
(418,639,cs),
(446,639,o),
(470.667,636,o),
(492,630,c),
(458,577,ls),
(416.667,513,o),
(380.333,458,o),
(349,412,cs),
(297.667,337.333,o),
(219.333,226,o),
(114,78,cs),
(102.667,61.333,o),
(97,46.333,o),
(97,33,cs),
(97,11,o),
(111.333,-6.333,o),
(140,-19,cs),
(154,-25.667,o),
(169.667,-29,o),
(187,-29,cs)
);
}
);
userData = {
assembly = "MPPEM[ ]	/* MeasurePixelPerEm */
PUSHB[ ]	/* 1 value pushed */
31 
LT[ ]	/* LessThan */
IF[ ]	/* If */
NPUSHB[ ]	/* 10 values pushed */
2 1 1 0 42 1 3 1 2 76 
ELSE[ ]	/* Else */
NPUSHB[ ]	/* 12 values pushed */
2 1 1 0 42 40 39 3 4 1 2 76 
EIF[ ]	/* EndIf */
MPPEM[ ]	/* MeasurePixelPerEm */
PUSHB[ ]	/* 1 value pushed */
21 
LT[ ]	/* LessThan */
IF[ ]	/* If */
NPUSHB[ ]	/* 31 values pushed */
0 1 0 3 0 1 3 128 0 3 4 0 3 4 126 0 0 0 2 97 0 2 2 36 77 0 4 4 31 4 78 
ELSE[ ]	/* Else */
MPPEM[ ]	/* MeasurePixelPerEm */
PUSHB[ ]	/* 1 value pushed */
31 
LT[ ]	/* LessThan */
IF[ ]	/* If */
NPUSHB[ ]	/* 29 values pushed */
0 1 0 3 0 1 3 128 0 3 4 0 3 4 126 0 2 0 0 1 2 0 105 0 4 4 31 4 78 
ELSE[ ]	/* Else */
MPPEM[ ]	/* MeasurePixelPerEm */
PUSHB[ ]	/* 1 value pushed */
44 
LT[ ]	/* LessThan */
IF[ ]	/* If */
NPUSHB[ ]	/* 22 values pushed */
0 1 0 4 0 1 4 128 0 2 0 0 1 2 0 105 0 4 4 31 4 78 
ELSE[ ]	/* Else */
NPUSHB[ ]	/* 28 values pushed */
0 1 0 4 0 1 4 128 0 4 4 132 0 2 0 0 2 89 0 2 2 0 97 0 0 2 0 81 
EIF[ ]	/* EndIf */
EIF[ ]	/* EndIf */
EIF[ ]	/* EndIf */
NPUSHB[ ]	/* 10 values pushed */
56 54 40 39 40 21 35 5 8 25 
CALL[ ]	/* CallFunction */";
};
width = 805;
}
);
note = Z;
unicode = 90;
},
{
glyphname = bracketleft;
lastChange = "2022-05-30 09:55:51 +0000";
layers = (
{
layerId = "D6A4831D-747C-4592-93C0-305F4CD57904";
shapes = (
{
closed = 1;
nodes = (
(135.667,-79.333,o),
(147.667,-78.333,o),
(161,-77,cs),
(195,-73,o),
(247.667,-65.667,o),
(319,-55,cs),
(332.333,-53,o),
(343,-49.333,o),
(351,-44,cs),
(359,-38.667,o),
(368.333,-27.667,o),
(367,-21,cs),
(365.667,-11.667,o),
(355.333,-1,o),
(346,3,cs),
(329,9,ls),
(306.333,17.667,o),
(288.667,22,o),
(276,22,cs),
(262.667,21.333,o),
(249.333,17,o),
(236,9,cs),
(232.667,7,o),
(228,5.5,o),
(222,4.5,cs),
(216,3.5,o),
(211.667,2.667,o),
(209,2,cs),
(205.667,1.333,o),
(201.333,1,o),
(196,1,cs),
(176,1,o),
(166,11.333,o),
(166,32,cs),
(166,36,o),
(166,39,o),
(166,41,cs),
(171.333,95.667,o),
(174.667,137.333,o),
(176,166,cs),
(182.667,306.667,o),
(187.333,412,o),
(190,482,cs),
(190.667,501.333,o),
(191,516,o),
(191,526,cs),
(191,538,o),
(190,549,o),
(188,559,cs),
(186.667,567,o),
(186,573.667,o),
(186,579,cs),
(186,605.667,o),
(201,624,o),
(231,634,cs),
(245,637.333,o),
(266,642.333,o),
(294,649,cs),
(306,651.667,o),
(338,658.333,o),
(358,665,cs),
(364.667,666.333,o),
(371.167,671,o),
(377.5,679,cs),
(383.833,687,o),
(389,692.667,o),
(393,696,c),
(379,704,l),
(365.667,714.667,o),
(355.333,719.667,o),
(348,719,cs),
(260,711,o),
(213.333,692.333,o),
(160,675,cs),
(113.333,659.667,o),
(90,627,o),
(90,577,cs),
(90,567.667,o),
(91,557.333,o),
(93,546,cs),
(93,543.333,o),
(93,539.333,o),
(93,534,cs),
(93,522,ls),
(85.667,396,o),
(76.667,250.667,o),
(66,86,cs),
(64.667,66,o),
(62.667,37.667,o),
(60,1,c),
(60,-59,o),
(74.333,-80,o),
(125,-80,cs)
);
}
);
userData = {
assembly = "NPUSHB[ ]	/* 34 values pushed */
58 1 0 1 1 76 43 21 6 3 2 74 0 2 1 2 133 0 1 0 1 133 0 0 0 118 53 51 46 44 32 3 8 23 
CALL[ ]	/* CallFunction */";
};
width = 443;
}
);
note = bracketleft;
unicode = 91;
},
{
glyphname = backslash;
lastChange = "2022-05-30 09:55:51 +0000";
layers = (
{
layerId = "D6A4831D-747C-4592-93C0-305F4CD57904";
shapes = (
{
closed = 1;
nodes = (
(350,-34,o),
(357.333,-25.5,o),
(362,-8.5,cs),
(366.667,8.5,o),
(369,28.333,o),
(369,51,cs),
(369,75,o),
(367.333,92,o),
(364,102,cs),
(345.333,150,o),
(279.667,324.333,o),
(253,403,cs),
(244.333,427,o),
(235,457,o),
(225,493,cs),
(211,538,ls),
(193,594.667,o),
(176.667,645.333,o),
(162,690,cs),
(153.333,714,o),
(138.667,724.667,o),
(118,722,cs),
(90,719.333,o),
(60,679.333,o),
(60,650,cs),
(60,646,o),
(60.333,643,o),
(61,641,cs),
(125,353,l),
(181,216.333,o),
(224,120.833,o),
(254,66.5,cs),
(284,12.167,o),
(308.667,-20,o),
(328,-30,cs),
(333.333,-32.667,o),
(337.333,-34,o),
(340,-34,cs)
);
}
);
userData = {
assembly = "PUSHB[ ]	/* 4 values pushed */
6 1 0 74 
MPPEM[ ]	/* MeasurePixelPerEm */
PUSHB[ ]	/* 1 value pushed */
31 
LT[ ]	/* LessThan */
IF[ ]	/* If */
PUSHB[ ]	/* 6 values pushed */
0 0 0 31 0 78 
ELSE[ ]	/* Else */
PUSHB[ ]	/* 4 values pushed */
0 0 0 118 
EIF[ ]	/* EndIf */
PUSHB[ ]	/* 5 values pushed */
24 23 1 8 22 
CALL[ ]	/* CallFunction */";
};
width = 419;
}
);
note = backslash;
unicode = 92;
},
{
glyphname = bracketright;
lastChange = "2022-05-30 09:55:51 +0000";
layers = (
{
layerId = "D6A4831D-747C-4592-93C0-305F4CD57904";
shapes = (
{
closed = 1;
nodes = (
(174.667,-75.667,o),
(217.333,-66.667,o),
(264,-52,c),
(340,-17.333,o),
(327.667,-8,o),
(329,40,cs),
(333,196,o),
(338,344.333,o),
(344,485,c),
(347.333,516.333,o),
(352.667,558.333,o),
(360,611,cs),
(367,661,l),
(347,671,ls),
(333,677.667,o),
(324.667,681.667,o),
(322,683,cs),
(295.333,696.333,o),
(266.333,703,o),
(235,703,cs),
(189.667,703,o),
(149.667,689.333,o),
(123,664,cs),
(115,656,o),
(107.333,642.667,o),
(110,632,cs),
(112.667,624,o),
(127.333,614.333,o),
(138,613,cs),
(149.333,611,o),
(159.667,610,o),
(169,610,cs),
(181,610,o),
(191.333,611,o),
(200,613,cs),
(206,615,o),
(213,616,o),
(221,616,cs),
(246.333,616,o),
(259.667,601.333,o),
(257,576,cs),
(250,510,ls),
(242.667,440,o),
(238,388.333,o),
(236,355,cs),
(230.667,273.667,o),
(228,172,o),
(228,50,cs),
(228,24.667,o),
(204,4.667,o),
(176,-2,cs),
(172.667,-3.333,o),
(156.667,-6.667,o),
(128,-12,cs),
(115.333,-14,o),
(102,-16.333,o),
(88,-19,cs),
(84,-19.667,o),
(79.167,-22.167,o),
(73.5,-26.5,cs),
(67.833,-30.833,o),
(63.333,-33.667,o),
(60,-35,c),
(62,-38.333,o),
(64.5,-42.833,o),
(67.5,-48.5,cs),
(70.5,-54.167,o),
(74,-58.333,o),
(78,-61,c),
(95.333,-68.333,o),
(107.5,-73.333,o),
(114.5,-76,cs),
(121.5,-78.667,o),
(128.667,-79.667,o),
(136,-79,cs)
);
}
);
userData = {
assembly = "PUSHB[ ]	/* 6 values pushed */
2 1 0 2 1 76 
MPPEM[ ]	/* MeasurePixelPerEm */
PUSHB[ ]	/* 1 value pushed */
29 
LT[ ]	/* LessThan */
IF[ ]	/* If */
NPUSHB[ ]	/* 17 values pushed */
0 2 0 0 2 89 0 2 2 0 97 1 1 0 2 0 81 
ELSE[ ]	/* Else */
NPUSHB[ ]	/* 21 values pushed */
0 1 0 1 134 0 2 0 0 2 89 0 2 2 0 97 0 0 2 0 81 
EIF[ ]	/* EndIf */
NPUSHB[ ]	/* 9 values pushed */
54 52 43 41 39 37 3 8 22 
CALL[ ]	/* CallFunction */";
};
width = 417;
}
);
note = bracketright;
unicode = 93;
},
{
glyphname = underscore;
lastChange = "2022-05-30 09:55:51 +0000";
layers = (
{
layerId = "D6A4831D-747C-4592-93C0-305F4CD57904";
shapes = (
{
closed = 1;
nodes = (
(544,-108.333,o),
(549.5,-107.833,o),
(556.5,-107.5,cs),
(563.5,-107.167,o),
(569,-105.667,o),
(573,-103,cs),
(591,-93.667,o),
(602.667,-83.667,o),
(608,-73,cs),
(609.333,-71,o),
(610,-68,o),
(610,-64,cs),
(610,-49.333,o),
(597.333,-30.333,o),
(584,-25,cs),
(565.333,-17,o),
(547,-12.667,o),
(529,-12,cs),
(411,-12,ls),
(389.667,-12,o),
(373.333,-11.667,o),
(362,-11,cs),
(335.333,-9.667,o),
(312.167,-8,o),
(292.5,-6,cs),
(272.833,-4,o),
(256.667,-2.667,o),
(244,-2,cs),
(202.667,2,o),
(173,4.667,o),
(155,6,cs),
(145.667,7.333,o),
(131.333,9,o),
(114,9,cs),
(87.333,7.667,o),
(67.333,-6.333,o),
(62,-25,cs),
(60.667,-30.333,o),
(60,-34.667,o),
(60,-38,cs),
(60,-56.667,o),
(72.667,-75.333,o),
(94,-86,cs),
(112.667,-97.333,o),
(134.333,-103,o),
(159,-103,cs),
(222,-102,ls),
(256,-102,o),
(281.667,-102.333,o),
(299,-103,cs),
(540,-109,l),
(540,-109,l)
);
}
);
userData = {
assembly = "PUSHB[ ]	/* 2 values pushed */
6 100 
WCVTP[ ]	/* WriteCVTInPixels */
MPPEM[ ]	/* MeasurePixelPerEm */
PUSHB[ ]	/* 1 value pushed */
29 
LT[ ]	/* LessThan */
IF[ ]	/* If */
PUSHB[ ]	/* 7 values pushed */
33 11 2 0 2 1 76 
ELSE[ ]	/* Else */
PUSHB[ ]	/* 7 values pushed */
33 11 2 0 3 1 76 
EIF[ ]	/* EndIf */
MPPEM[ ]	/* MeasurePixelPerEm */
PUSHB[ ]	/* 1 value pushed */
29 
LT[ ]	/* LessThan */
IF[ ]	/* If */
NPUSHB[ ]	/* 24 values pushed */
0 1 2 2 1 112 3 1 2 0 0 2 89 3 1 2 2 0 96 0 0 2 0 80 
ELSE[ ]	/* Else */
NPUSHB[ ]	/* 28 values pushed */
0 1 2 3 1 112 0 2 3 3 2 112 0 3 0 0 3 87 0 3 3 0 96 0 0 3 0 80 
EIF[ ]	/* EndIf */
PUSHB[ ]	/* 7 values pushed */
97 20 40 112 4 8 26 
CALL[ ]	/* CallFunction */
PUSHB[ ]	/* 2 values pushed */
6 0 
WCVTP[ ]	/* WriteCVTInPixels */";
};
width = 660;
}
);
note = underscore;
unicode = 95;
},
{
glyphname = grave;
lastChange = "2022-05-30 09:55:51 +0000";
layers = (
{
layerId = "D6A4831D-747C-4592-93C0-305F4CD57904";
shapes = (
{
closed = 1;
nodes = (
(310,501.667,o),
(323,505.667,o),
(335,513,cs),
(340.333,516.333,o),
(340.5,514.833,o),
(335.5,508.5,cs),
(330.5,502.167,o),
(330.333,502.667,o),
(335,510,cs),
(347,531,l),
(336,559,ls),
(328,583,o),
(323.333,593.667,o),
(314,603,cs),
(268.667,648.333,o),
(206,706,o),
(126,776,cs),
(112.667,789.333,o),
(82,800.333,o),
(74,795,cs),
(52.667,779,o),
(63.667,796.333,o),
(61,775,cs),
(59.667,752.333,o),
(70.667,722.333,o),
(88,701,cs),
(109.333,675,o),
(151,628,o),
(213,560,cs),
(246,524,ls),
(260.667,508.667,o),
(277.333,501,o),
(296,501,cs)
);
}
);
userData = {
assembly = "PUSHB[ ]	/* 2 values pushed */
6 100 
WCVTP[ ]	/* WriteCVTInPixels */
NPUSHB[ ]	/* 13 values pushed */
17 3 2 0 74 0 0 0 118 40 1 8 23 
CALL[ ]	/* CallFunction */
PUSHB[ ]	/* 2 values pushed */
6 0 
WCVTP[ ]	/* WriteCVTInPixels */";
};
width = 397;
}
);
note = grave;
unicode = 96;
},
{
glyphname = a;
kernLeft = a;
kernRight = a;
lastChange = "2022-05-30 09:55:51 +0000";
layers = (
{
layerId = "D6A4831D-747C-4592-93C0-305F4CD57904";
shapes = (
{
closed = 1;
nodes = (
(237,2,o),
(244.667,2.667,o),
(254,4,cs),
(275.333,8,o),
(290,12.333,o),
(298,17,cs),
(306.667,22.333,o),
(315,29,o),
(323,37,cs),
(333.667,49,o),
(350,63,o),
(362,63,c),
(364.667,62.333,o),
(367.667,58.333,o),
(371,51,cs),
(378,39,l),
(390,25.667,o),
(408,16,o),
(420,16,cs),
(424.667,16,o),
(429.667,17.667,o),
(435,21,cs),
(441,24.333,o),
(444,36.667,o),
(444,58,cs),
(444,135.333,o),
(441.333,199,o),
(436,249,cs),
(431.333,293.667,o),
(421.333,328.667,o),
(406,354,cs),
(375.333,404.667,o),
(303.333,443,o),
(226,443,cs),
(195.333,442.333,o),
(165.667,436.667,o),
(137,426,cs),
(123,420.667,o),
(116,408,o),
(116,388,cs),
(116,376.667,o),
(117.333,370.333,o),
(120,369,cs),
(130,361.667,o),
(146.333,358,o),
(169,358,cs),
(176.333,358,o),
(189.333,358.667,o),
(208,360,cs),
(226.667,361.333,o),
(240.667,362,o),
(250,362,cs),
(275.333,362,o),
(292.167,358.167,o),
(300.5,350.5,cs),
(308.833,342.833,o),
(313,334.333,o),
(313,325,cs),
(313,315.667,o),
(272,310,o),
(256,310,c),
(182.667,303.333,o),
(150.667,282.333,o),
(100,221,cs),
(74,189,o),
(60.667,157,o),
(60,125,cs),
(59.333,103.667,o),
(65.667,83.667,o),
(79,65,cs),
(104.333,30.333,o),
(175,2,o),
(231,2,cs)
);
},
{
closed = 1;
nodes = (
(193.333,72,o),
(187.667,73.667,o),
(183,77,cs),
(174.333,83,o),
(169.333,91.333,o),
(168,102,c),
(168,128.667,o),
(182.667,161.333,o),
(208,192,cs),
(233.333,221.333,o),
(264.667,239.667,o),
(290,241,cs),
(302,242.333,o),
(319.333,230.667,o),
(326,220,cs),
(329.333,213.333,o),
(331.833,205.667,o),
(333.5,197,cs),
(335.167,188.333,o),
(336.333,183,o),
(337,181,c),
(338.333,169,o),
(335.667,144,o),
(333,140,cs),
(330.333,136,o),
(318.333,114.667,o),
(305,108,cs),
(275,94.667,o),
(244.333,83.333,o),
(213,74,cs),
(209.667,72.667,o),
(205.333,72,o),
(200,72,cs)
);
}
);
userData = {
assembly = "NPUSHB[ ]	/* 10 values pushed */
34 1 3 5 74 1 8 7 2 76 
MPPEM[ ]	/* MeasurePixelPerEm */
PUSHB[ ]	/* 1 value pushed */
11 
LT[ ]	/* LessThan */
IF[ ]	/* If */
NPUSHB[ ]	/* 47 values pushed */
0 2 3 7 3 2 7 128 0 7 8 3 7 112 0 0 8 6 8 0 6 128 0 5 4 1 3 2 5 3 105 0 6 6 34 77 0 8 8 1 97 0 1 1 40 1 78 
ELSE[ ]	/* Else */
NPUSHB[ ]	/* 48 values pushed */
0 2 3 7 3 2 7 128 0 7 8 3 7 8 126 0 0 8 6 8 0 6 128 0 5 4 1 3 2 5 3 105 0 6 6 34 77 0 8 8 1 97 0 1 1 40 1 78 
EIF[ ]	/* EndIf */
NPUSHB[ ]	/* 14 values pushed */
78 77 69 68 41 38 34 36 25 39 32 9 8 29 
CALL[ ]	/* CallFunction */";
};
width = 494;
}
);
metricRight = "=n";
note = a;
unicode = 97;
},
{
glyphname = b;
kernLeft = b;
kernRight = b;
lastChange = "2022-05-30 09:55:51 +0000";
layers = (
{
layerId = "D6A4831D-747C-4592-93C0-305F4CD57904";
shapes = (
{
closed = 1;
nodes = (
(197,-1,o),
(203,-0.667,o),
(207,0,cs),
(287,12,o),
(349,47.667,o),
(393,107,cs),
(423.667,147.667,o),
(439,186.333,o),
(439,223,cs),
(439,269.667,o),
(415.333,310.333,o),
(368,345,cs),
(336.667,368.333,o),
(307,380,o),
(279,380,cs),
(252.333,380,o),
(224.333,369.667,o),
(195,349,cs),
(189,344.333,o),
(183,338.667,o),
(177,332,cs),
(166.333,320,o),
(157,312.333,o),
(149,309,c),
(149.667,324.333,o),
(151.333,344.667,o),
(154,370,cs),
(157.333,392,o),
(159,409.333,o),
(159,422,cs),
(162,462,ls),
(168,520.667,o),
(171,569.667,o),
(171,609,c),
(156.333,635,o),
(144,650.667,o),
(134,656,cs),
(124,661.333,o),
(115,663,o),
(107,661,cs),
(69.667,653,o),
(50,644.333,o),
(50,611,cs),
(50,410.333,o),
(50.333,259.667,o),
(51,159,cs),
(51,119,o),
(91,80,o),
(131,80,cs),
(155.667,79.333,o),
(169.333,91,o),
(172,115,cs),
(180,177,o),
(206,232,o),
(250,280,cs),
(262,294.667,o),
(287,311,o),
(295,307,cs),
(309,299,o),
(321.333,282.667,o),
(332,258,cs),
(334,253.333,o),
(335,247.667,o),
(335,241,cs),
(335,227.667,o),
(333.333,218.333,o),
(332,213,c),
(290.667,141.667,o),
(257.167,96.167,o),
(231.5,76.5,cs),
(205.833,56.833,o),
(182.667,46,o),
(162,44,cs),
(156,43.333,o),
(149.167,41.167,o),
(141.5,37.5,cs),
(133.833,33.833,o),
(127.667,31,o),
(123,29,c),
(125,21,o),
(126,13.667,o),
(126,7,c),
(155.333,1.667,o),
(176.333,-1,o),
(189,-1,cs)
);
}
);
userData = {
assembly = "NPUSHB[ ]	/* 14 values pushed */
3 1 2 0 21 1 1 2 2 76 59 1 0 74 
MPPEM[ ]	/* MeasurePixelPerEm */
PUSHB[ ]	/* 1 value pushed */
24 
LT[ ]	/* LessThan */
IF[ ]	/* If */
NPUSHB[ ]	/* 19 values pushed */
0 2 0 1 0 2 1 128 0 0 0 33 77 0 1 1 40 1 78 
ELSE[ ]	/* Else */
MPPEM[ ]	/* MeasurePixelPerEm */
PUSHB[ ]	/* 1 value pushed */
41 
LT[ ]	/* LessThan */
IF[ ]	/* If */
NPUSHB[ ]	/* 16 values pushed */
0 0 2 0 133 0 2 1 2 133 0 1 1 40 1 78 
ELSE[ ]	/* Else */
NPUSHB[ ]	/* 14 values pushed */
0 0 2 0 133 0 2 1 2 133 0 1 1 118 
EIF[ ]	/* EndIf */
EIF[ ]	/* EndIf */
PUSHB[ ]	/* 7 values pushed */
45 43 55 40 3 8 24 
CALL[ ]	/* CallFunction */";
};
width = 489;
}
);
metricLeft = "=n";
metricRight = "=o";
note = b;
unicode = 98;
},
{
glyphname = c;
kernLeft = c;
kernRight = c;
lastChange = "2022-05-30 09:55:51 +0000";
layers = (
{
layerId = "D6A4831D-747C-4592-93C0-305F4CD57904";
shapes = (
{
closed = 1;
nodes = (
(335.333,29,o),
(374.667,40.667,o),
(428,102,cs),
(432.667,106.667,o),
(435,116.333,o),
(435,131,cs),
(435,137.667,o),
(431.5,161.5,o),
(409.5,159.5,cs),
(398.5,158.5,o),
(389.667,156.333,o),
(383,153,cs),
(364,141,ls),
(320,113,o),
(290.333,97,o),
(253,97,cs),
(193,97,o),
(169,119.667,o),
(169,181,cs),
(169,274.333,o),
(228.333,334.667,o),
(319,324,cs),
(332.333,322.667,o),
(353,339.333,o),
(353,350,cs),
(353,358,o),
(346.333,374,o),
(341,378,cs),
(311.667,400.667,o),
(271,415,o),
(231,415,cs),
(192.333,415,o),
(161.333,403.667,o),
(138,381,cs),
(133.333,376.333,o),
(126,368,o),
(116,356,cs),
(97,333,ls),
(73,306.333,o),
(50,262.333,o),
(50,217,cs),
(50.667,191,o),
(55.333,168.667,o),
(64,150,c),
(90.667,63.333,o),
(148.667,20.333,o),
(238,21,c)
);
}
);
userData = {
assembly = "PUSHB[ ]	/* 6 values pushed */
39 1 3 2 1 76 
MPPEM[ ]	/* MeasurePixelPerEm */
PUSHB[ ]	/* 1 value pushed */
26 
LT[ ]	/* LessThan */
IF[ ]	/* If */
NPUSHB[ ]	/* 17 values pushed */
0 2 2 33 77 0 3 3 0 98 1 1 0 0 34 0 78 
ELSE[ ]	/* Else */
MPPEM[ ]	/* MeasurePixelPerEm */
PUSHB[ ]	/* 1 value pushed */
44 
LT[ ]	/* LessThan */
IF[ ]	/* If */
NPUSHB[ ]	/* 17 values pushed */
0 2 3 2 133 0 3 3 0 98 1 1 0 0 34 0 78 
ELSE[ ]	/* Else */
NPUSHB[ ]	/* 22 values pushed */
0 2 3 2 133 0 3 0 0 3 89 0 3 3 0 98 1 1 0 3 0 82 
EIF[ ]	/* EndIf */
EIF[ ]	/* EndIf */
PUSHB[ ]	/* 7 values pushed */
45 42 34 17 4 8 26 
CALL[ ]	/* CallFunction */";
};
width = 485;
}
);
metricLeft = "=o";
note = c;
unicode = 99;
},
{
glyphname = d;
kernLeft = d;
lastChange = "2022-05-30 09:55:51 +0000";
layers = (
{
layerId = "D6A4831D-747C-4592-93C0-305F4CD57904";
shapes = (
{
closed = 1;
nodes = (
(226,5,o),
(267,21.667,o),
(299,59,cs),
(305.667,67,o),
(311.667,71,o),
(317,71,cs),
(322.333,70.333,o),
(328.667,65,o),
(336,55,cs),
(354.667,25.667,o),
(369,12.667,o),
(389,10,cs),
(402.333,9.333,o),
(420.667,14,o),
(444,24,c),
(442.667,30,o),
(441.333,35,o),
(440,39,cs),
(438.667,43,o),
(437.667,46.667,o),
(437,50,c),
(429.667,68.667,o),
(426,83.667,o),
(426,95,cs),
(424,141,o),
(421.333,209.667,o),
(418,301,cs),
(414,454,ls),
(410.667,520.667,o),
(406,575,o),
(400,617,cs),
(396,639.667,o),
(361,664.333,o),
(333,667,cs),
(327.667,667,o),
(323,666.333,o),
(319,665,cs),
(297.667,657,o),
(289.333,643.667,o),
(288,625,cs),
(288,620.333,o),
(288.333,614.333,o),
(289,607,cs),
(289.667,599.667,o),
(290,594.333,o),
(290,591,cs),
(294,554.333,o),
(297.333,497.667,o),
(300,421,cs),
(301,412,l),
(299.667,398,o),
(291.333,391.667,o),
(276,393,cs),
(272,393,o),
(269,393.333,o),
(267,394,cs),
(262.333,395.333,o),
(255.667,396.333,o),
(247,397,cs),
(193.667,402.333,o),
(147,377,o),
(111,337,cs),
(80.333,301,o),
(56.333,236.667,o),
(51,178,cs),
(47.667,138,o),
(51.667,107,o),
(63,85,cs),
(85.667,42.333,o),
(132.667,14.333,o),
(182,9,cs)
);
},
{
closed = 1;
nodes = (
(153.333,88,o),
(142.667,117,o),
(146,155,cs),
(147.333,182.333,o),
(155.333,211.667,o),
(170,243,cs),
(186,275,o),
(202.667,296.667,o),
(236,330,cs),
(244,338,o),
(278.333,347,o),
(289,343,c),
(295.667,341.667,o),
(300.333,321,o),
(299,309,cs),
(288.333,226.333,o),
(277.667,176.333,o),
(243,135,c),
(231,117,ls),
(211,90.333,o),
(200.667,77.333,o),
(178,68,c)
);
}
);
userData = {
assembly = "NPUSHB[ ]	/* 15 values pushed */
33 1 3 5 63 1 1 3 56 4 2 0 1 3 76 
MPPEM[ ]	/* MeasurePixelPerEm */
PUSHB[ ]	/* 1 value pushed */
21 
LT[ ]	/* LessThan */
IF[ ]	/* If */
NPUSHB[ ]	/* 30 values pushed */
0 1 3 0 3 1 0 128 0 5 5 30 77 4 1 3 3 33 77 0 0 0 34 77 0 2 2 40 2 78 
ELSE[ ]	/* Else */
MPPEM[ ]	/* MeasurePixelPerEm */
PUSHB[ ]	/* 1 value pushed */
44 
LT[ ]	/* LessThan */
IF[ ]	/* If */
NPUSHB[ ]	/* 30 values pushed */
0 5 3 5 133 0 1 3 0 3 1 0 128 4 1 3 3 33 77 0 0 0 34 77 0 2 2 40 2 78 
ELSE[ ]	/* Else */
NPUSHB[ ]	/* 32 values pushed */
0 5 3 5 133 0 1 3 0 3 1 0 128 0 0 2 3 0 2 126 4 1 3 3 33 77 0 2 2 40 2 78 
EIF[ ]	/* EndIf */
EIF[ ]	/* EndIf */
NPUSHB[ ]	/* 9 values pushed */
43 34 41 35 35 37 6 8 28 
CALL[ ]	/* CallFunction */";
};
width = 494;
}
);
metricLeft = o;
metricRight = h;
note = d;
unicode = 100;
},
{
glyphname = e;
kernLeft = e;
kernRight = e;
lastChange = "2022-05-30 09:55:51 +0000";
layers = (
{
layerId = "D6A4831D-747C-4592-93C0-305F4CD57904";
shapes = (
{
closed = 1;
nodes = (
(381.333,11,o),
(437.333,27.667,o),
(472,81,cs),
(477.333,88.333,o),
(480,98.667,o),
(480,112,cs),
(480,124.667,o),
(477.333,135.333,o),
(472,144,cs),
(466.667,151.333,o),
(460.333,155,o),
(453,155,cs),
(441.667,155,o),
(429.667,148.667,o),
(417,136,cs),
(399,118.667,o),
(377.667,103.667,o),
(353,91,cs),
(336.333,81.667,o),
(317.333,77,o),
(296,77,cs),
(246.667,77,o),
(201.667,100,o),
(191,144,c),
(195.667,144.667,o),
(205.667,145.833,o),
(221,147.5,cs),
(236.333,149.167,o),
(247.333,152,o),
(254,156,cs),
(331.333,198.667,o),
(357.667,214.667,o),
(383,244,cs),
(409,275.333,o),
(422,302,o),
(422,324,cs),
(422,358.667,o),
(390,386,o),
(326,406,cs),
(305.333,412.667,o),
(284,416,o),
(262,416,cs),
(231.333,416,o),
(198,408.333,o),
(162,393,cs),
(83.333,358.333,o),
(50,324.667,o),
(50,262,cs),
(50,242,o),
(52.667,221.667,o),
(58,201,c),
(135.333,14.333,o),
(232,11,o),
(308,11,cs)
);
},
{
closed = 1;
nodes = (
(174,210,o),
(166.333,217.333,o),
(161,242,c),
(191.667,307.333,o),
(245,356.667,o),
(281,354,c),
(281.667,353.333,o),
(284.167,351.833,o),
(288.5,349.5,cs),
(292.833,347.167,o),
(295.333,344.333,o),
(296,341,cs),
(296.667,338.333,o),
(297,333.667,o),
(297,327,cs),
(297,316.333,o),
(295,309,o),
(291,305,cs),
(267,283.667,o),
(231.333,255.333,o),
(184,220,c)
);
}
);
userData = {
assembly = "PUSHB[ ]	/* 6 values pushed */
50 1 2 4 1 76 
MPPEM[ ]	/* MeasurePixelPerEm */
PUSHB[ ]	/* 1 value pushed */
31 
LT[ ]	/* LessThan */
IF[ ]	/* If */
NPUSHB[ ]	/* 29 values pushed */
0 2 4 0 4 2 0 128 0 0 0 4 97 0 4 4 33 77 0 1 1 3 97 0 3 3 40 3 78 
ELSE[ ]	/* Else */
NPUSHB[ ]	/* 27 values pushed */
0 2 4 0 4 2 0 128 0 4 0 0 1 4 0 105 0 1 1 3 97 0 3 3 40 3 78 
EIF[ ]	/* EndIf */
PUSHB[ ]	/* 8 values pushed */
41 39 36 37 16 5 8 27 
CALL[ ]	/* CallFunction */";
};
width = 530;
}
);
metricLeft = "=o";
note = e;
unicode = 101;
},
{
glyphname = f;
kernRight = f;
lastChange = "2022-05-30 09:55:51 +0000";
layers = (
{
layerId = "D6A4831D-747C-4592-93C0-305F4CD57904";
shapes = (
{
closed = 1;
nodes = (
(304.667,-243,o),
(314,-230.333,o),
(314,-205,cs),
(314,-187.667,o),
(310.667,-163,o),
(304,-131,cs),
(286,-43,ls),
(279.333,-7,o),
(269,47,o),
(253,119,cs),
(251.667,128.333,o),
(251,134.667,o),
(251,138,cs),
(251,161.333,o),
(263,175.333,o),
(287,180,cs),
(302.333,182.667,o),
(313,184.333,o),
(319,185,cs),
(349.667,190.333,o),
(372.667,194.667,o),
(388,198,cs),
(392.667,198.667,o),
(397.667,201.167,o),
(403,205.5,cs),
(408.333,209.833,o),
(412.333,213,o),
(415,215,c),
(413.667,217,o),
(411.333,220.833,o),
(408,226.5,cs),
(404.667,232.167,o),
(401.333,235.667,o),
(398,237,c),
(389.333,253.667,o),
(366,262,o),
(328,262,cs),
(305,262,l),
(286.333,258,o),
(272.667,256,o),
(264,256,cs),
(254.667,256,o),
(248.833,259.667,o),
(246.5,267,cs),
(244.167,274.333,o),
(243,290,o),
(243,314,cs),
(243,330.667,o),
(244,347,o),
(246,363,cs),
(247.333,379,o),
(248,391.333,o),
(248,400,cs),
(250.667,429.333,o),
(250.667,454.333,o),
(296,445,c),
(330.667,448.333,o),
(344.667,469,o),
(338,507,cs),
(335.333,533.667,o),
(289,561.333,o),
(261,564,cs),
(255,564.667,o),
(246.667,565,o),
(236,565,cs),
(186.667,565,o),
(158.333,547.667,o),
(153,509,cs),
(146.333,463.667,o),
(144.333,401,o),
(143,345,cs),
(141,281,ls),
(139.667,238.333,o),
(127,220.667,o),
(79,214,cs),
(71,212.667,o),
(60,201.667,o),
(60,195,cs),
(60,187,o),
(68,177.667,o),
(76,171,cs),
(80.667,167,o),
(89,165,o),
(101,165,cs),
(137.667,165,o),
(156.667,145.667,o),
(158,107,c),
(190,-59,l),
(204.667,-120.333,o),
(215,-166.333,o),
(221,-197,cs),
(227.667,-229,o),
(240.667,-243,o),
(270,-243,cs)
);
}
);
userData = {
assembly = "NPUSHB[ ]	/* 41 values pushed */
68 4 2 0 3 38 19 2 1 0 2 76 0 2 3 2 133 0 3 0 3 133 0 0 1 0 133 0 1 1 118 66 64 59 57 31 29 33 4 8 23 
CALL[ ]	/* CallFunction */";
};
width = 445;
}
);
note = f;
unicode = 102;
},
{
glyphname = g;
lastChange = "2022-05-30 09:55:51 +0000";
layers = (
{
layerId = "D6A4831D-747C-4592-93C0-305F4CD57904";
shapes = (
{
closed = 1;
nodes = (
(311.333,-367.667,o),
(382.667,-335.667,o),
(428,-269,cs),
(449.333,-237.667,o),
(460,-206,o),
(460,-174,cs),
(460,-122,o),
(429,-77,o),
(369,-49,cs),
(359,-44.333,o),
(343.333,-36,o),
(322,-24,cs),
(287,-5,l),
(403,143,o),
(387,156,o),
(391,252,c),
(398.333,258.667,o),
(405.333,262.833,o),
(412,264.5,cs),
(418.667,266.167,o),
(425,268.667,o),
(431,272,c),
(448.333,286.667,o),
(453.667,296.667,o),
(463,314,cs),
(472.333,328.667,o),
(478,337.333,o),
(480,340,cs),
(482,343.333,o),
(483,348,o),
(483,354,cs),
(483,357.333,o),
(482.333,361.667,o),
(481,367,cs),
(471.667,393.667,o),
(450.333,408,o),
(425,408,cs),
(407.667,408,o),
(391.333,401.667,o),
(376,389,cs),
(354.667,369,o),
(335.333,360,o),
(310,360,cs),
(300.667,360,o),
(291,361.333,o),
(281,364,cs),
(260,370,ls),
(256,371.333,o),
(226.667,381,o),
(204,381,cs),
(188.667,381,o),
(174,377.333,o),
(160,370,cs),
(100.667,339.333,o),
(65,287.333,o),
(53,214,cs),
(51,202,o),
(50,189.333,o),
(50,176,cs),
(50,128,o),
(68,93.333,o),
(104,72,cs),
(124,60,o),
(160.667,37,o),
(158,29,cs),
(150,1.667,o),
(146,-15.333,o),
(146,-22,cs),
(146,-35.333,o),
(154,-43,o),
(178,-55,cs),
(226,-79,o),
(255.667,-89.333,o),
(293,-96,cs),
(327.667,-102.667,o),
(344,-116.333,o),
(344,-151,cs),
(344,-175,o),
(331.333,-204.667,o),
(314,-226,cs),
(288.667,-259.333,o),
(241.667,-278.333,o),
(173,-283,cs),
(135.667,-285.667,o),
(115.667,-259.333,o),
(97,-218,c),
(95.667,-213.333,o),
(93.333,-210.333,o),
(90,-209,cs),
(87.333,-207.667,o),
(78,-203,o),
(74,-203,cs),
(72,-203,o),
(70.667,-203.333,o),
(70,-204,c),
(64.667,-205.333,o),
(60.333,-214.333,o),
(59,-221,c),
(75,-274.333,o),
(90,-308.833,o),
(104,-324.5,cs),
(118,-340.167,o),
(132,-350.333,o),
(146,-355,cs),
(176,-365,o),
(205.333,-369.667,o),
(234,-369,cs)
);
},
{
closed = 1;
nodes = (
(171.667,126.667,o),
(150,159.333,o),
(150,194,cs),
(150,218.667,o),
(160.333,243,o),
(181,267,cs),
(201,290.333,o),
(226.333,308,o),
(257,320,c),
(289,304,o),
(297,273,o),
(297,237,cs),
(297,178.333,o),
(267.667,124,o),
(217,104,c)
);
}
);
userData = {
assembly = "NPUSHB[ ]	/* 11 values pushed */
98 92 49 25 20 3 6 1 3 1 76 
MPPEM[ ]	/* MeasurePixelPerEm */
PUSHB[ ]	/* 1 value pushed */
26 
LT[ ]	/* LessThan */
IF[ ]	/* If */
NPUSHB[ ]	/* 26 values pushed */
0 3 2 1 2 3 1 128 0 1 0 0 1 0 101 0 4 4 33 77 0 2 2 33 2 78 
ELSE[ ]	/* Else */
NPUSHB[ ]	/* 28 values pushed */
0 2 4 3 4 2 3 128 0 3 1 4 3 1 126 0 1 0 0 1 0 101 0 4 4 33 4 78 
EIF[ ]	/* EndIf */
NPUSHB[ ]	/* 12 values pushed */
72 70 67 65 61 59 34 32 45 5 8 23 
CALL[ ]	/* CallFunction */";
};
width = 503;
}
);
metricLeft = "=o";
note = g;
unicode = 103;
},
{
glyphname = h;
kernLeft = b;
kernRight = b;
lastChange = "2022-05-30 09:55:51 +0000";
layers = (
{
layerId = "D6A4831D-747C-4592-93C0-305F4CD57904";
shapes = (
{
closed = 1;
nodes = (
(428,-44,o),
(431.333,-43.667,o),
(434,-43,cs),
(444.667,-40.333,o),
(459,-24.667,o),
(459,-14,cs),
(460,68,ls),
(460.667,113.333,o),
(456.333,149.333,o),
(447,176,cs),
(421.667,246.667,o),
(360.333,319,o),
(279,291,cs),
(248.333,280.333,o),
(221,266.333,o),
(197,249,c),
(173,347.667,o),
(170.333,447,o),
(169,583,cs),
(169,605,ls),
(169,642.333,o),
(158,665.333,o),
(130,684,cs),
(122,688.667,o),
(112.333,691,o),
(101,691,cs),
(74.333,691,o),
(50,675,o),
(50,655,cs),
(50,548,ls),
(50,490.667,o),
(53.667,440.333,o),
(61,397,cs),
(77.667,309.667,o),
(86,199.667,o),
(86,67,c),
(99.333,39.667,o),
(111.833,24.333,o),
(123.5,21,cs),
(135.167,17.667,o),
(143.333,15.333,o),
(148,14,cs),
(154.667,12.667,o),
(159,12,o),
(161,12,cs),
(174.333,12,o),
(185,24.333,o),
(193,49,cs),
(214.333,117.667,o),
(233.667,163.333,o),
(251,186,c),
(289,203.333,o),
(311.167,211.167,o),
(317.5,209.5,cs),
(323.833,207.833,o),
(329,201,o),
(333,189,cs),
(337.667,179,o),
(340.667,161.667,o),
(342,137,cs),
(343.333,113,o),
(344,94.667,o),
(344,82,cs),
(346,27,ls),
(347.333,-3.667,o),
(392,-44,o),
(424,-44,cs)
);
}
);
userData = {
assembly = "NPUSHB[ ]	/* 10 values pushed */
2 1 2 0 10 1 1 3 2 76 
MPPEM[ ]	/* MeasurePixelPerEm */
PUSHB[ ]	/* 1 value pushed */
49 
LT[ ]	/* LessThan */
IF[ ]	/* If */
NPUSHB[ ]	/* 24 values pushed */
0 1 3 1 134 0 0 0 2 3 0 2 105 0 4 4 32 77 0 3 3 31 3 78 
ELSE[ ]	/* Else */
NPUSHB[ ]	/* 26 values pushed */
0 3 2 1 2 3 1 128 0 1 1 132 0 0 0 2 3 0 2 105 0 4 4 32 4 78 
EIF[ ]	/* EndIf */
PUSHB[ ]	/* 8 values pushed */
46 22 25 26 35 5 8 27 
CALL[ ]	/* CallFunction */";
};
width = 510;
}
);
metricLeft = "=n";
metricRight = "=n";
note = h;
unicode = 104;
},
{
glyphname = i;
kernLeft = i;
kernRight = i;
lastChange = "2022-05-30 09:55:51 +0000";
layers = (
{
layerId = "D6A4831D-747C-4592-93C0-305F4CD57904";
shapes = (
{
closed = 1;
nodes = (
(196.667,-1,o),
(207.667,19,o),
(205,55,cs),
(191,226,ls),
(191,232.667,o),
(190,260.333,o),
(186,279,cs),
(179.333,316.333,o),
(147.333,342,o),
(110,342,cs),
(78,342,o),
(69,330.667,o),
(69,312,cs),
(69,302.667,o),
(68,297.333,o),
(64,280,c),
(68,261,l),
(94,49,l),
(99.333,19.667,o),
(124.667,-1,o),
(158,-1,cs)
);
},
{
closed = 1;
nodes = (
(138,444.667,o),
(143.833,450,o),
(151.5,456,cs),
(159.167,462,o),
(163.333,467.333,o),
(164,472,cs),
(168,485.333,o),
(160,512.667,o),
(152,514,c),
(118.667,530.667,o),
(90.333,539,o),
(67,539,cs),
(55,539,o),
(50,530.333,o),
(50,521,cs),
(50,513,o),
(52.667,506.667,o),
(58,502,c),
(57.333,469.333,o),
(69.333,451,o),
(94,447,cs),
(134,440,l),
(134,440,l)
);
}
);
userData = {
assembly = "NPUSHB[ ]	/* 11 values pushed */
7 2 2 1 0 16 1 2 1 2 76 
MPPEM[ ]	/* MeasurePixelPerEm */
PUSHB[ ]	/* 1 value pushed */
41 
LT[ ]	/* LessThan */
IF[ ]	/* If */
NPUSHB[ ]	/* 16 values pushed */
0 0 1 0 133 0 1 1 2 97 0 2 2 40 2 78 
ELSE[ ]	/* Else */
NPUSHB[ ]	/* 21 values pushed */
0 0 1 0 133 0 1 2 2 1 89 0 1 1 2 97 0 2 1 2 81 
EIF[ ]	/* EndIf */
PUSHB[ ]	/* 6 values pushed */
40 42 41 3 8 25 
CALL[ ]	/* CallFunction */";
};
width = 255;
}
);
metricLeft = "=n";
note = i;
unicode = 105;
},
{
glyphname = j;
kernLeft = j;
kernRight = j;
lastChange = "2022-05-30 09:55:51 +0000";
layers = (
{
layerId = "D6A4831D-747C-4592-93C0-305F4CD57904";
shapes = (
{
closed = 1;
nodes = (
(224.333,-374,o),
(246.667,-367,o),
(266,-353,cs),
(301.333,-327.667,o),
(319,-292.333,o),
(319,-247,cs),
(319,-233,o),
(317.667,-220.333,o),
(315,-209,cs),
(311.667,-189,o),
(306,-159,o),
(298,-119,cs),
(296.667,-112.333,o),
(293.167,-93.5,o),
(287.5,-62.5,cs),
(281.833,-31.5,o),
(275,-2.667,o),
(267,24,cs),
(239,117.333,o),
(234.333,203,o),
(229,339,cs),
(227,390,ls),
(225.667,419.333,o),
(206.333,439.667,o),
(173,441,cs),
(138.333,443.667,o),
(118,437.333,o),
(118,404,cs),
(118,388.667,o),
(117.667,377.333,o),
(117,370,cs),
(116,335,ls),
(115.333,321.667,o),
(116.333,308.333,o),
(119,295,cs),
(134.333,225,o),
(155.333,120.667,o),
(182,-18,cs),
(188,-49,ls),
(202,-121.667,o),
(212.667,-171.667,o),
(220,-199,c),
(216,-219,ls),
(212,-240.333,o),
(207.333,-257.667,o),
(202,-271,cs),
(194,-292.333,o),
(179.667,-304,o),
(165,-304,cs),
(152.333,-304,o),
(140,-295.667,o),
(128,-279,cs),
(116.667,-265,o),
(101.667,-239.333,o),
(83,-202,cs),
(74,-184,ls),
(65.333,-164,o),
(58.833,-151.333,o),
(54.5,-146,cs),
(50.167,-140.667,o),
(44,-138,o),
(36,-138,cs),
(15.333,-138,o),
(5,-149.333,o),
(5,-172,cs),
(5,-176.667,o),
(5.333,-181.5,o),
(6,-186.5,cs),
(6.667,-191.5,o),
(7,-196.333,o),
(7,-201,cs),
(11,-266.333,o),
(45.333,-315.667,o),
(110,-349,cs),
(142,-365.667,o),
(171.667,-374,o),
(199,-374,cs)
);
},
{
closed = 1;
nodes = (
(214.333,535,o),
(219.667,538,o),
(227,542,cs),
(234.333,546,o),
(239,550.333,o),
(241,555,cs),
(245,563,o),
(238,580.333,o),
(230,587,cs),
(210,601.667,o),
(193.333,609,o),
(180,609,cs),
(165.333,609,o),
(155.667,605.333,o),
(151,598,cs),
(146.333,590.667,o),
(142,585.667,o),
(138,583,c),
(141.333,579.667,o),
(145.5,574.5,o),
(150.5,567.5,cs),
(155.5,560.5,o),
(160.333,555.333,o),
(165,552,cs),
(170.333,548,o),
(178,544.333,o),
(188,541,cs),
(198,537.667,o),
(205.667,535,o),
(211,533,c)
);
}
);
userData = {
assembly = "NPUSHB[ ]	/* 63 values pushed */
8 1 0 1 28 1 4 2 55 1 5 4 3 76 0 1 0 1 133 0 0 2 0 133 0 2 4 2 133 0 4 5 4 133 0 5 3 3 5 89 0 5 5 3 97 0 3 5 3 81 70 68 61 59 52 50 34 33 40 33 6 8 24 
CALL[ ]	/* CallFunction */";
};
width = 329;
}
);
note = j;
unicode = 106;
},
{
glyphname = k;
kernLeft = k;
kernRight = k;
lastChange = "2022-05-30 09:55:51 +0000";
layers = (
{
layerId = "D6A4831D-747C-4592-93C0-305F4CD57904";
shapes = (
{
closed = 1;
nodes = (
(122,-29.333,o),
(140.333,-5,o),
(143,39,cs),
(144.333,73.667,o),
(147,128.333,o),
(151,203,c),
(151.667,205.667,o),
(151.5,210.5,o),
(150.5,217.5,cs),
(149.5,224.5,o),
(149,231,o),
(149,237,cs),
(149,243.667,o),
(149.667,248.667,o),
(151,252,c),
(151,252,o),
(158,245,o),
(172,231,cs),
(190,214,ls),
(190.667,213.333,o),
(204.333,200.667,o),
(231,176,cs),
(275,134.667,o),
(309,105.667,o),
(333,89,cs),
(347.667,79,o),
(372.333,70.667,o),
(407,64,cs),
(413.667,63.333,o),
(422,61.667,o),
(432,59,cs),
(438.667,57.667,o),
(450.667,66.333,o),
(452,73,cs),
(453.333,78.333,o),
(448.667,91.333,o),
(442,94,cs),
(383.333,123.333,o),
(345.333,164.667,o),
(288,238,cs),
(273.333,256.667,o),
(262,270.667,o),
(254,280,cs),
(244.667,291.333,o),
(240,301.667,o),
(240,311,cs),
(240,321,o),
(245,331.333,o),
(255,342,cs),
(281,372.667,o),
(299,395.667,o),
(309,411,cs),
(311.667,414.333,o),
(313,419.333,o),
(313,426,cs),
(313,434.667,o),
(311,442.333,o),
(307,449,cs),
(299.667,460.333,o),
(288.667,466,o),
(274,466,cs),
(256,466,o),
(238.333,458,o),
(221,442,cs),
(213,435.333,o),
(203.667,426,o),
(193,414,cs),
(164,386,l),
(162.667,387.333,o),
(162,390.667,o),
(162,396,cs),
(162,403.333,o),
(162.833,413.167,o),
(164.5,425.5,cs),
(166.167,437.833,o),
(167,445.667,o),
(167,449,cs),
(171,489,o),
(174.333,520.667,o),
(177,544,cs),
(187,646,ls),
(189.667,686,o),
(167.333,704,o),
(118,704,cs),
(82,704,o),
(63.667,686.333,o),
(63,651,cs),
(53,325,ls),
(51,245,o),
(50,164.667,o),
(50,84,cs),
(50,56,o),
(53.667,27.333,o),
(61,-2,cs),
(63.667,-11.333,o),
(79.333,-22.667,o),
(90,-24,cs)
);
}
);
userData = {
assembly = "NPUSHB[ ]	/* 12 values pushed */
66 1 0 1 1 76 45 4 2 3 0 73 
MPPEM[ ]	/* MeasurePixelPerEm */
PUSHB[ ]	/* 1 value pushed */
21 
LT[ ]	/* LessThan */
IF[ ]	/* If */
NPUSHB[ ]	/* 11 values pushed */
0 0 1 0 134 0 1 1 36 1 78 
ELSE[ ]	/* Else */
NPUSHB[ ]	/* 9 values pushed */
0 1 0 1 133 0 0 0 118 
EIF[ ]	/* EndIf */
PUSHB[ ]	/* 6 values pushed */
64 62 40 2 8 23 
CALL[ ]	/* CallFunction */";
};
width = 462;
}
);
metricLeft = "=n";
note = k;
unicode = 107;
},
{
glyphname = l;
kernLeft = l;
kernRight = l;
lastChange = "2022-05-30 09:55:51 +0000";
layers = (
{
layerId = "D6A4831D-747C-4592-93C0-305F4CD57904";
shapes = (
{
closed = 1;
nodes = (
(225.333,-30.667,o),
(252.667,-20.667,o),
(258,6,cs),
(258.667,9.333,o),
(259,14.333,o),
(259,21,cs),
(259,36.333,o),
(254.333,57.333,o),
(245,84,cs),
(241,94,o),
(235,99,o),
(227,99,cs),
(219,99,o),
(211.333,94,o),
(204,84,cs),
(198,74.667,o),
(188.333,62,o),
(175,46,c),
(165,50,l),
(163.667,54,o),
(159.667,73.667,o),
(161,87,cs),
(163,143.667,o),
(166.667,228.667,o),
(172,342,cs),
(178,462,ls),
(181.333,532.667,o),
(184,585.667,o),
(186,621,cs),
(188.667,667.667,o),
(154,699,o),
(110,699,cs),
(76.667,699,o),
(60,686.667,o),
(60,662,cs),
(60,657.333,o),
(60.333,653.333,o),
(61,650,cs),
(65.667,630.667,o),
(68,609.333,o),
(68,586,cs),
(69,410,ls),
(70.333,331.333,o),
(71,214,o),
(71,58,cs),
(71,38.667,o),
(79.667,18.667,o),
(97,-2,c),
(125.667,-19.333,o),
(147.167,-28,o),
(161.5,-28,cs),
(175.833,-28,o),
(186,-28,o),
(192,-28,cs)
);
}
);
userData = {
assembly = "NPUSHB[ ]	/* 11 values pushed */
25 1 0 2 39 35 2 1 0 2 76 
MPPEM[ ]	/* MeasurePixelPerEm */
PUSHB[ ]	/* 1 value pushed */
21 
LT[ ]	/* LessThan */
IF[ ]	/* If */
NPUSHB[ ]	/* 19 values pushed */
0 0 2 1 2 0 1 128 0 2 2 36 77 0 1 1 31 1 78 
ELSE[ ]	/* Else */
MPPEM[ ]	/* MeasurePixelPerEm */
PUSHB[ ]	/* 1 value pushed */
49 
LT[ ]	/* LessThan */
IF[ ]	/* If */
NPUSHB[ ]	/* 16 values pushed */
0 2 0 2 133 0 0 1 0 133 0 1 1 31 1 78 
ELSE[ ]	/* Else */
NPUSHB[ ]	/* 14 values pushed */
0 2 0 2 133 0 0 1 0 133 0 1 1 118 
EIF[ ]	/* EndIf */
EIF[ ]	/* EndIf */
PUSHB[ ]	/* 6 values pushed */
44 40 34 3 8 25 
CALL[ ]	/* CallFunction */";
};
width = 309;
}
);
note = l;
unicode = 108;
},
{
glyphname = m;
kernLeft = m;
kernRight = m;
lastChange = "2022-05-30 09:55:51 +0000";
layers = (
{
layerId = "D6A4831D-747C-4592-93C0-305F4CD57904";
shapes = (
{
closed = 1;
nodes = (
(639.333,16,o),
(656.667,35,o),
(658,67,cs),
(658.667,101.667,o),
(657,153.667,o),
(653,223,cs),
(649.667,269,o),
(644,309,o),
(636,343,cs),
(626.667,383,o),
(583,416.333,o),
(547,415,cs),
(489.667,411.667,o),
(442.333,392.667,o),
(405,358,cs),
(395,347.333,o),
(387.667,342,o),
(383,342,cs),
(379.667,342,o),
(375.667,343.833,o),
(371,347.5,cs),
(366.333,351.167,o),
(362.667,354,o),
(360,356,cs),
(323.333,382,o),
(292,395,o),
(266,395,cs),
(242,395,o),
(219,383,o),
(197,359,cs),
(187.667,349,o),
(180.333,341.833,o),
(175,337.5,cs),
(169.667,333.167,o),
(165,331,o),
(161,331,cs),
(156.333,331,o),
(152,333.5,o),
(148,338.5,cs),
(144,343.5,o),
(139,351.667,o),
(133,363,c),
(121.667,373.667,o),
(108.667,379,o),
(94,379,cs),
(71.333,379,o),
(53.333,363.333,o),
(52,338,cs),
(50.667,313.333,o),
(50,276,o),
(50,226,cs),
(50,170.667,o),
(51,115,o),
(53,59,cs),
(53,45.667,o),
(70.667,24.333,o),
(84,23,cs),
(98.667,20.333,o),
(124.333,31,o),
(131,43,cs),
(142.333,61.667,o),
(148,82,o),
(148,104,cs),
(147,138,ls),
(147,207.333,o),
(173.667,247.333,o),
(235,282,c),
(242.333,289.333,o),
(253,293,o),
(267,293,cs),
(284.333,293,o),
(297.667,284.667,o),
(299,270,cs),
(300.333,252.667,o),
(301.667,240.333,o),
(303,233,cs),
(309.667,163.667,o),
(313,111.667,o),
(313,77,c),
(325,49.667,o),
(336.333,34.333,o),
(347,31,cs),
(357.667,27.667,o),
(365.333,25.333,o),
(370,24,cs),
(375.333,22,o),
(379.667,21,o),
(383,21,cs),
(401.667,21,o),
(412.333,39.667,o),
(415,61,cs),
(415.667,65.667,o),
(416,72.667,o),
(416,82,cs),
(415,113,ls),
(413.667,134.333,o),
(413.333,150,o),
(414,160,cs),
(414.667,164.667,o),
(414.167,171.167,o),
(412.5,179.5,cs),
(410.833,187.833,o),
(410,194,o),
(410,198,cs),
(410,203.333,o),
(411,208.333,o),
(413,213,cs),
(414.333,217,o),
(425,241.333,o),
(433,252,cs),
(475.667,306.667,o),
(487,309,o),
(519,317,c),
(539,305,o),
(549.667,286.333,o),
(551,261,cs),
(553,237.667,o),
(554.333,217.167,o),
(555,199.5,cs),
(555.667,181.833,o),
(556.333,167.333,o),
(557,156,cs),
(563,50,ls),
(563,42,o),
(572.667,29,o),
(582,25,cs),
(593.333,19,o),
(604,16,o),
(614,16,cs)
);
}
);
userData = {
assembly = "NPUSHB[ ]	/* 11 values pushed */
1 1 1 3 93 79 2 0 1 2 76 
MPPEM[ ]	/* MeasurePixelPerEm */
PUSHB[ ]	/* 1 value pushed */
24 
LT[ ]	/* LessThan */
IF[ ]	/* If */
NPUSHB[ ]	/* 40 values pushed */
0 3 5 1 5 3 1 128 0 6 6 33 77 0 2 2 33 77 0 1 1 4 97 0 4 4 33 77 0 5 5 0 97 7 1 0 0 34 0 78 
ELSE[ ]	/* Else */
MPPEM[ ]	/* MeasurePixelPerEm */
PUSHB[ ]	/* 1 value pushed */
39 
LT[ ]	/* LessThan */
IF[ ]	/* If */
NPUSHB[ ]	/* 43 values pushed */
0 2 4 5 4 2 5 128 0 3 5 1 5 3 1 128 0 6 6 33 77 0 1 1 4 97 0 4 4 33 77 0 5 5 0 97 7 1 0 0 34 0 78 
ELSE[ ]	/* Else */
MPPEM[ ]	/* MeasurePixelPerEm */
PUSHB[ ]	/* 1 value pushed */
46 
LT[ ]	/* LessThan */
IF[ ]	/* If */
NPUSHB[ ]	/* 43 values pushed */
0 6 4 6 133 0 2 4 5 4 2 5 128 0 3 5 1 5 3 1 128 0 1 1 4 97 0 4 4 33 77 0 5 5 0 97 7 1 0 0 34 0 78 
ELSE[ ]	/* Else */
NPUSHB[ ]	/* 47 values pushed */
0 6 4 6 133 0 2 4 5 4 2 5 128 0 3 5 1 5 3 1 128 0 1 1 4 97 0 4 4 33 77 0 5 5 0 97 0 0 0 34 77 0 7 7 34 7 78 
EIF[ ]	/* EndIf */
EIF[ ]	/* EndIf */
EIF[ ]	/* EndIf */
NPUSHB[ ]	/* 19 values pushed */
85 83 75 73 71 69 66 64 61 59 56 54 35 33 21 20 8 8 22 
CALL[ ]	/* CallFunction */";
};
width = 708;
}
);
metricLeft = "=n";
metricRight = "=n";
note = m;
unicode = 109;
},
{
glyphname = n;
kernLeft = n;
kernRight = n;
lastChange = "2022-05-30 09:55:51 +0000";
layers = (
{
layerId = "D6A4831D-747C-4592-93C0-305F4CD57904";
shapes = (
{
closed = 1;
nodes = (
(136,2.333,o),
(148,11,o),
(150,21,cs),
(152,31,o),
(153.333,37.333,o),
(154,40,cs),
(164,99.333,o),
(173.333,150.333,o),
(182,193,c),
(182,195.667,o),
(185.667,223.333,o),
(195,230,cs),
(224.333,251.333,o),
(228.667,253,o),
(274,265,cs),
(288.667,268.333,o),
(301.333,270,o),
(312,270,cs),
(334.667,270,o),
(349,261,o),
(353,237,cs),
(357,207.667,o),
(359.667,173,o),
(361,133,cs),
(362,112,ls),
(366,50.667,o),
(376.333,49,o),
(407,49,cs),
(436.333,49,o),
(460,70,o),
(464,102,cs),
(466.667,126,o),
(468,144.333,o),
(468,157,cs),
(468,206.333,o),
(457.667,251.333,o),
(437,292,cs),
(411.667,340,o),
(374,364,o),
(324,364,cs),
(292,364,o),
(253,359,o),
(207,349,c),
(206.333,351,o),
(206.667,355.167,o),
(208,361.5,cs),
(209.333,367.833,o),
(210,373,o),
(210,377,cs),
(210,379,l),
(203.333,411,o),
(176.667,429,o),
(138,429,c),
(78,409,o),
(88,399.667,o),
(84,369,cs),
(82,349,o),
(79.833,331.333,o),
(77.5,316,cs),
(75.167,300.667,o),
(73.333,287.667,o),
(72,277,cs),
(68,253.667,o),
(63.667,223,o),
(59,185,cs),
(52.333,132.333,o),
(49.333,86.667,o),
(50,48,cs),
(50.667,18,o),
(72,0.333,o),
(114,-5,c)
);
}
);
userData = {
assembly = "NPUSHB[ ]	/* 34 values pushed */
0 3 0 3 133 0 1 2 1 134 0 0 2 2 0 89 0 0 0 2 97 0 2 0 2 81 51 49 40 39 35 4 8 25 
CALL[ ]	/* CallFunction */";
};
width = 518;
}
);
note = n;
unicode = 110;
},
{
glyphname = o;
kernLeft = o;
kernRight = o;
lastChange = "2022-05-30 09:55:51 +0000";
layers = (
{
layerId = "D6A4831D-747C-4592-93C0-305F4CD57904";
shapes = (
{
closed = 1;
nodes = (
(254,20,o),
(278.667,26.667,o),
(300,40,cs),
(334,60.667,o),
(364.333,91.667,o),
(391,133,cs),
(413.667,169,o),
(425,202.667,o),
(425,234,cs),
(425,266,o),
(414,293,o),
(392,315,cs),
(350,356.333,o),
(298.333,377,o),
(237,377,cs),
(217.667,377,o),
(198,375,o),
(178,371,cs),
(115.333,357.667,o),
(78.333,343,o),
(65,291,c),
(62.333,271,o),
(57.333,240,o),
(50,198,c),
(80,102,o),
(109.167,48.333,o),
(137.5,37,cs),
(165.833,25.667,o),
(195.333,20,o),
(226,20,cs)
);
},
{
closed = 1;
nodes = (
(194,105.667,o),
(185.333,118.667,o),
(178,140,cs),
(174,154.667,o),
(174,178.667,o),
(174,188,cs),
(177,223,l),
(189.667,263,o),
(201.333,296.667,o),
(212,324,cs),
(213.333,328,o),
(220.667,330,o),
(234,330,cs),
(239.333,330,o),
(243.333,329.667,o),
(246,329,cs),
(288.667,317,o),
(314,277.667,o),
(314,235,cs),
(314,185.667,o),
(271.667,126.333,o),
(253,109,cs),
(239.667,98.333,o),
(212,95.667,o),
(204,101,c)
);
}
);
userData = {
assembly = "PUSHB[ ]	/* 7 values pushed */
25 24 2 0 2 1 76 
MPPEM[ ]	/* MeasurePixelPerEm */
PUSHB[ ]	/* 1 value pushed */
49 
LT[ ]	/* LessThan */
IF[ ]	/* If */
NPUSHB[ ]	/* 16 values pushed */
0 0 2 0 134 0 2 2 1 97 0 1 1 33 2 78 
ELSE[ ]	/* Else */
NPUSHB[ ]	/* 21 values pushed */
0 0 2 0 134 0 1 2 2 1 89 0 1 1 2 97 0 2 1 2 81 
EIF[ ]	/* EndIf */
PUSHB[ ]	/* 7 values pushed */
43 42 42 32 3 8 24 
CALL[ ]	/* CallFunction */";
};
width = 475;
}
);
metricLeft = o;
metricRight = o;
note = o;
unicode = 111;
},
{
glyphname = p;
kernLeft = p;
kernRight = p;
lastChange = "2022-05-30 09:55:51 +0000";
layers = (
{
layerId = "D6A4831D-747C-4592-93C0-305F4CD57904";
shapes = (
{
closed = 1;
nodes = (
(117,-343,o),
(120.667,-342.333,o),
(126,-341,cs),
(140.667,-337,o),
(158.667,-320,o),
(160,-308,cs),
(160.667,-303.333,o),
(161,-296,o),
(161,-286,cs),
(161,-276.667,o),
(160.333,-262,o),
(159,-242,cs),
(157.667,-222,o),
(157,-207.333,o),
(157,-198,cs),
(157,-148.667,o),
(158.667,-90.667,o),
(162,-24,cs),
(165,67,l),
(186.333,54.333,o),
(206.667,48,o),
(226,48,cs),
(249.333,48,o),
(271,58.667,o),
(291,80,cs),
(339,136,o),
(369.667,180,o),
(379,236,cs),
(381,247.333,o),
(382,258.667,o),
(382,270,cs),
(382,300.667,o),
(372.667,325,o),
(354,343,cs),
(313.333,382.333,o),
(277,402,o),
(245,402,cs),
(216.333,402,o),
(190,387,o),
(166,357,cs),
(139.333,323.667,o),
(124.333,309.667,o),
(91,307,cs),
(69.667,304.333,o),
(56,292.333,o),
(56,271,cs),
(56,268.333,o),
(56.667,263,o),
(58,255,cs),
(64,227.667,o),
(66.333,194,o),
(65,154,cs),
(58,-64,ls),
(54,-158.667,o),
(51.333,-231,o),
(50,-281,cs),
(48.667,-310.333,o),
(84.333,-343,o),
(115,-343,cs)
);
},
{
closed = 1;
nodes = (
(177,124,l),
(176.333,127.333,o),
(176,132.667,o),
(176,140,cs),
(176,171.333,o),
(183.333,207,o),
(198,247,cs),
(207.333,273.667,o),
(226,301.667,o),
(230,307,cs),
(235.333,315.667,o),
(244,320,o),
(256,320,cs),
(265.333,320,o),
(272.333,315.667,o),
(277,307,cs),
(280.333,299,o),
(282,291,o),
(282,283,c),
(262.667,215.667,o),
(245.667,172.333,o),
(231,153,cs),
(216.333,133.667,o),
(202.333,122,o),
(189,118,c)
);
}
);
userData = {
assembly = "NPUSHB[ ]	/* 40 values pushed */
49 3 2 0 3 1 76 0 0 3 1 3 0 1 128 0 3 3 2 97 0 2 2 33 77 0 1 1 35 1 78 58 56 36 34 46 32 4 8 24 
CALL[ ]	/* CallFunction */";
};
width = 432;
}
);
metricLeft = "=n";
metricRight = "=o";
note = p;
unicode = 112;
},
{
glyphname = q;
kernRight = q;
lastChange = "2022-05-30 09:55:51 +0000";
layers = (
{
layerId = "D6A4831D-747C-4592-93C0-305F4CD57904";
shapes = (
{
closed = 1;
nodes = (
(363.333,-272.667,o),
(371.333,-259.333,o),
(374,-230,cs),
(378,-176,ls),
(381.333,-148,o),
(383,-123,o),
(383,-101,cs),
(383,-67.667,o),
(398.667,-55.667,o),
(432,-53,cs),
(448.667,-51.667,o),
(467,-49.667,o),
(487,-47,cs),
(507,-44.333,o),
(521,-42.667,o),
(529,-42,cs),
(555,-39,l),
(555,2.333,o),
(548,17,o),
(524,17,cs),
(518.667,17,o),
(511.333,16,o),
(502,14,cs),
(480.667,10,o),
(453.333,8,o),
(420,8,cs),
(397.333,8,o),
(391.667,20.667,o),
(393,46,cs),
(398.333,134,o),
(401,199.333,o),
(401,242,cs),
(401,279.333,o),
(393.333,302,o),
(360,302,cs),
(340.667,302,o),
(330.5,294,o),
(329.5,278,cs),
(328.5,262,o),
(323.667,245.333,o),
(315,228,cs),
(253.667,118.667,o),
(240,117.667,o),
(156,143,c),
(98.667,209.667,o),
(170,282.333,o),
(198,293,cs),
(212,298.333,o),
(224,303.667,o),
(234,309,cs),
(264.667,325.667,o),
(296.333,331.667,o),
(329,327,c),
(348.333,327,o),
(365.667,321.667,o),
(381,311,cs),
(399.667,300.333,o),
(417,295,o),
(433,295,cs),
(443.667,295,o),
(456,300.333,o),
(464,307,cs),
(466.667,309.667,o),
(468,314.667,o),
(468,322,cs),
(468,329.333,o),
(467,333.333,o),
(465,334,c),
(441.667,352.667,o),
(424.667,365.5,o),
(414,372.5,cs),
(403.333,379.5,o),
(392.333,384.667,o),
(381,388,cs),
(359.667,395.333,o),
(335.667,399,o),
(309,399,cs),
(287.667,399,o),
(266,397,o),
(244,393,c),
(164.667,358.333,o),
(114.333,328.833,o),
(93,304.5,cs),
(71.667,280.167,o),
(58,254.667,o),
(52,228,cs),
(48.076,208.378,o),
(46.21,180.29,o),
(73.5,135,cs),
(89.167,109,o),
(107.333,93,o),
(128,87,cs),
(162,75.667,o),
(192.667,70,o),
(220,70,cs),
(248,70,o),
(271.333,76.333,o),
(290,89,cs),
(293.333,91,o),
(296.333,77.667,o),
(299,49,cs),
(301.667,7.667,o),
(288.667,-13.667,o),
(246,-23,cs),
(174.667,-41,o),
(120.333,-70.333,o),
(83,-111,c),
(104.333,-140.333,o),
(139.333,-159,o),
(170,-159,cs),
(212.61,-159,o),
(256.549,-106,o),
(278,-106,cs),
(289.333,-106,o),
(295.333,-118.333,o),
(296,-143,cs),
(296.667,-153,o),
(296.833,-161.667,o),
(296.5,-169,cs),
(296.167,-176.333,o),
(296,-182.333,o),
(296,-187,cs),
(296,-197.667,o),
(296.667,-212.333,o),
(298,-231,c),
(289.333,-259.667,o),
(301.333,-274,o),
(334,-274,cs)
);
}
);
userData = {
assembly = "NPUSHB[ ]	/* 110 values pushed */
93 1 1 10 77 1 0 9 68 1 3 7 30 1 5 2 63 1 6 5 45 40 2 4 6 6 76 0 1 10 9 10 1 9 128 0 9 0 10 9 0 126 0 3 7 2 7 3 2 128 0 2 5 7 2 5 126 0 5 6 7 5 6 126 0 6 4 7 6 4 126 0 4 4 132 0 0 0 7 3 0 7 105 0 10 10 8 97 0 8 8 33 10 78 103 101 99 97 43 42 39 23 46 34 38 40 36 11 8 31 
CALL[ ]	/* CallFunction */";
};
width = 575;
}
);
metricLeft = o;
note = q;
unicode = 113;
},
{
glyphname = r;
kernLeft = r;
kernRight = r;
lastChange = "2022-05-30 09:55:51 +0000";
layers = (
{
layerId = "D6A4831D-747C-4592-93C0-305F4CD57904";
shapes = (
{
closed = 1;
nodes = (
(175.333,3,o),
(194,12.667,o),
(198,50,cs),
(206,120,o),
(236,188,o),
(288,254,cs),
(332,310,o),
(392,341.333,o),
(472,368,cs),
(486.712,373.885,o),
(491.786,403,o),
(465,403,cs),
(370.333,404.333,o),
(291.667,401,o),
(229,341,c),
(213.667,317,o),
(202.667,296.833,o),
(196,280.5,cs),
(189.333,264.167,o),
(184.333,254.667,o),
(181,252,c),
(193,370,ls),
(194.333,384,o),
(194,394.333,o),
(192,401,c),
(190.667,429,o),
(164.333,450,o),
(131,450,cs),
(85.667,450,o),
(71,436.667,o),
(71,398,cs),
(71,256.667,o),
(70.667,150.667,o),
(70,80,cs),
(70,41.333,o),
(104.667,3,o),
(142,3,cs)
);
}
);
userData = {
assembly = "NPUSHB[ ]	/* 32 values pushed */
35 2 2 1 0 1 76 0 0 2 1 2 0 1 128 0 2 2 1 97 0 1 1 34 1 78 38 45 25 3 8 25 
CALL[ ]	/* CallFunction */";
};
width = 495;
}
);
note = r;
unicode = 114;
},
{
glyphname = s;
kernLeft = s;
kernRight = s;
lastChange = "2022-05-30 09:55:51 +0000";
layers = (
{
layerId = "D6A4831D-747C-4592-93C0-305F4CD57904";
shapes = (
{
closed = 1;
nodes = (
(234.333,-22,o),
(281.667,11.333,o),
(309,78,cs),
(317,97.333,o),
(321,115.667,o),
(321,133,cs),
(321,165,o),
(309,196,o),
(285,226,cs),
(253,264.667,o),
(228,299,o),
(210,329,cs),
(202,343,o),
(198,356.667,o),
(198,370,cs),
(198,404.667,o),
(224.333,432,o),
(267,436,cs),
(276.333,436.667,o),
(290,437,o),
(308,437,cs),
(326.667,437,o),
(340.667,437.667,o),
(350,439,cs),
(356,439.667,o),
(363.167,442.167,o),
(371.5,446.5,cs),
(379.833,450.833,o),
(386.333,454,o),
(391,456,c),
(385.667,465.333,o),
(374.333,486.333,o),
(365,493,cs),
(343,506.333,o),
(317.667,513,o),
(289,513,cs),
(271.667,513,o),
(245.667,509.667,o),
(211,503,cs),
(179,497,ls),
(125.667,487.667,o),
(98,447,o),
(98,399,cs),
(98,373,o),
(104.667,349.333,o),
(118,328,cs),
(129.333,309.333,o),
(142,289.667,o),
(156,269,cs),
(177.333,237.667,o),
(195.333,209,o),
(210,183,cs),
(216.667,170.333,o),
(220,157.333,o),
(220,144,cs),
(220,124,o),
(213,104.333,o),
(199,85,cs),
(179,58.333,o),
(154,45,o),
(124,45,cs),
(120,45,o),
(113.333,45.667,o),
(104,47,cs),
(92,49.667,o),
(70.667,50,o),
(60,50,c),
(75.333,2,o),
(111,-22,o),
(167,-22,cs)
);
}
);
userData = {
assembly = "NPUSHB[ ]	/* 42 values pushed */
29 1 3 2 1 76 0 2 0 3 0 2 3 105 1 1 0 0 4 97 5 1 4 4 31 4 78 0 0 0 49 0 48 35 33 25 23 34 33 6 8 24 
CALL[ ]	/* CallFunction */";
};
width = 411;
}
);
note = s;
unicode = 115;
},
{
glyphname = t;
kernLeft = t;
kernRight = t;
lastChange = "2022-05-30 09:55:51 +0000";
layers = (
{
layerId = "D6A4831D-747C-4592-93C0-305F4CD57904";
shapes = (
{
closed = 1;
nodes = (
(311.667,-6.333,o),
(332,-2.333,o),
(352,5,cs),
(373.333,13,o),
(387,22.667,o),
(387,40,cs),
(387,44.667,o),
(386,49.333,o),
(384,54,cs),
(378.667,68,o),
(369.667,75,o),
(357,75,cs),
(349,75,o),
(339.667,72.667,o),
(329,68,cs),
(309,60.667,o),
(293.667,57,o),
(283,57,cs),
(256.333,57,o),
(244,75,o),
(240,119,cs),
(237.333,145,o),
(236.333,171,o),
(237,197,cs),
(237.667,231,o),
(238.667,264.333,o),
(240,297,cs),
(241.333,310.333,o),
(259.333,330,o),
(274,334,cs),
(288,338,o),
(309.667,342.667,o),
(339,348,cs),
(363.667,351.333,o),
(385,355.667,o),
(403,361,cs),
(408.333,362.333,o),
(412,376.333,o),
(412,391,cs),
(412,407,o),
(408.333,421.333,o),
(403,424,cs),
(400.333,426,o),
(395,427,o),
(387,427,cs),
(379.667,427,o),
(374.333,426.667,o),
(371,426,cs),
(355,424,o),
(331.667,419.667,o),
(301,413,c),
(283,412.333,o),
(269.5,413.333,o),
(260.5,416,cs),
(251.5,418.667,o),
(247,423,o),
(247,429,c),
(239.667,431.667,o),
(246,492,o),
(266,610,cs),
(270,639.333,o),
(278.667,667.333,o),
(260,690,cs),
(250.667,701.333,o),
(232.333,710,o),
(205,716,cs),
(200.333,717.333,o),
(194,718,o),
(186,718,cs),
(163.333,718,o),
(150.333,705,o),
(149,677,cs),
(146.333,625,o),
(144.333,585.667,o),
(143,559,cs),
(140,499,ls),
(140,471.667,o),
(138.333,454,o),
(135,446,cs),
(131.667,438,o),
(123.333,434,o),
(110,434,cs),
(106.667,434,o),
(101,434.667,o),
(93,436,c),
(77,436,o),
(66,429,o),
(60,415,c),
(62.667,393.667,o),
(64.667,383.667,o),
(74,373,cs),
(78.667,368.333,o),
(88.667,364.667,o),
(104,362,cs),
(113.333,360,o),
(120,358.167,o),
(124,356.5,cs),
(128,354.833,o),
(130.333,352,o),
(131,348,cs),
(134.333,303.333,o),
(136,259.333,o),
(136,216,cs),
(136,188.667,o),
(135.667,168.667,o),
(135,156,c),
(155,-6.667,o),
(235,-7,o),
(291,-7,cs)
);
}
);
userData = {
assembly = "NPUSHB[ ]	/* 15 values pushed */
24 14 2 0 2 2 1 3 4 50 1 6 3 3 76 
MPPEM[ ]	/* MeasurePixelPerEm */
PUSHB[ ]	/* 1 value pushed */
21 
LT[ ]	/* LessThan */
IF[ ]	/* If */
NPUSHB[ ]	/* 45 values pushed */
1 1 0 2 4 2 0 4 128 0 4 3 2 4 3 126 0 6 3 5 3 6 5 128 0 2 2 36 77 0 3 3 33 77 0 5 5 7 98 0 7 7 31 7 78 
ELSE[ ]	/* Else */
MPPEM[ ]	/* MeasurePixelPerEm */
PUSHB[ ]	/* 1 value pushed */
39 
LT[ ]	/* LessThan */
IF[ ]	/* If */
NPUSHB[ ]	/* 40 values pushed */
0 2 0 2 133 1 1 0 4 0 133 0 4 3 4 133 0 6 3 5 3 6 5 128 0 3 3 33 77 0 5 5 7 98 0 7 7 31 7 78 
ELSE[ ]	/* Else */
MPPEM[ ]	/* MeasurePixelPerEm */
PUSHB[ ]	/* 1 value pushed */
41 
LT[ ]	/* LessThan */
IF[ ]	/* If */
NPUSHB[ ]	/* 37 values pushed */
0 2 0 2 133 1 1 0 4 0 133 0 4 3 4 133 0 3 6 3 133 0 6 5 6 133 0 5 5 7 98 0 7 7 31 7 78 
ELSE[ ]	/* Else */
NPUSHB[ ]	/* 42 values pushed */
0 2 0 2 133 1 1 0 4 0 133 0 4 3 4 133 0 3 6 3 133 0 6 5 6 133 0 5 7 7 5 89 0 5 5 7 98 0 7 5 7 82 
EIF[ ]	/* EndIf */
EIF[ ]	/* EndIf */
EIF[ ]	/* EndIf */
NPUSHB[ ]	/* 14 values pushed */
71 69 62 60 58 56 50 28 41 33 19 8 8 27 
CALL[ ]	/* CallFunction */";
};
width = 462;
}
);
note = t;
unicode = 116;
},
{
glyphname = u;
kernLeft = u;
kernRight = u;
lastChange = "2022-05-30 09:55:51 +0000";
layers = (
{
layerId = "D6A4831D-747C-4592-93C0-305F4CD57904";
shapes = (
{
closed = 1;
nodes = (
(380.333,20.333,o),
(395.333,30,o),
(398,34,c),
(411.333,69.333,o),
(418.333,98.667,o),
(419,122,cs),
(420.333,151.333,o),
(422,196,o),
(424,256,cs),
(424.667,275.333,o),
(425,290,o),
(425,300,cs),
(426,347,l),
(415.333,387,o),
(406,382.333,o),
(370,385,cs),
(358.667,385,o),
(350,384.667,o),
(344,384,cs),
(338,383.333,o),
(333.667,381.667,o),
(331,379,cs),
(326.333,373.667,o),
(323,360.667,o),
(321,340,cs),
(315.667,277.333,o),
(293.333,219.667,o),
(244,161,cs),
(233.333,149,o),
(224.667,143,o),
(218,143,cs),
(207.333,143,o),
(201,151,o),
(193,171,cs),
(181.667,199.667,o),
(176.333,231,o),
(177,265,cs),
(177.667,295,o),
(181.667,325,o),
(189,355,cs),
(191,363.667,o),
(192,370.667,o),
(192,376,cs),
(192,398.667,o),
(179.333,410.667,o),
(146,420,cs),
(138.667,422,o),
(131.667,423,o),
(125,423,cs),
(111.667,423,o),
(100,419.333,o),
(90,412,cs),
(78.667,404.667,o),
(72.333,396,o),
(71,386,cs),
(63.667,345.333,o),
(60,311.667,o),
(60,285,cs),
(60,232.333,o),
(71.333,186,o),
(94,146,cs),
(122,94,o),
(173.667,62,o),
(227,62,cs),
(248.333,62,o),
(266.667,66.667,o),
(282,76,c),
(291.333,80,o),
(300,85.333,o),
(308,92,c),
(324,102,l),
(327,105,l),
(329,99,l),
(337,80,ls),
(343,62,o),
(348.333,47.667,o),
(353,37,cs),
(357,30.333,o),
(368.333,19,o),
(371,19,cs)
);
}
);
userData = {
assembly = "NPUSHB[ ]	/* 41 values pushed */
16 1 0 1 43 1 2 0 2 76 35 1 2 73 0 3 1 3 133 0 0 0 2 0 2 101 0 1 1 33 1 78 60 58 49 47 40 42 4 8 24 
CALL[ ]	/* CallFunction */";
};
width = 476;
}
);
note = u;
unicode = 117;
},
{
glyphname = v;
kernLeft = v;
kernRight = v;
lastChange = "2022-05-30 09:55:51 +0000";
layers = (
{
layerId = "D6A4831D-747C-4592-93C0-305F4CD57904";
shapes = (
{
closed = 1;
nodes = (
(269.333,-39,o),
(298,-20.333,o),
(310,13,cs),
(353,124,ls),
(392.333,225.333,o),
(417,289,o),
(427,315,cs),
(432.333,329.667,o),
(435,344.333,o),
(435,359,cs),
(435,365,o),
(434.667,369.333,o),
(434,372,cs),
(431.333,388,o),
(422.333,400,o),
(409,400,cs),
(401.667,400,o),
(395.333,397.333,o),
(390,392,cs),
(363.333,369.333,o),
(340.333,343.333,o),
(321,314,cs),
(310.333,298,o),
(295.333,270,o),
(276,230,cs),
(264,205.333,o),
(251,180.333,o),
(237,155,c),
(235.667,157.667,o),
(231.333,170.333,o),
(224,193,cs),
(220.667,205,o),
(217.667,213.667,o),
(215,219,cs),
(210.333,229.667,o),
(205.333,245.667,o),
(200,267,cs),
(189.333,308.333,o),
(180.667,331,o),
(154,351,cs),
(135.333,363.667,o),
(119.667,370,o),
(107,370,cs),
(95.667,370,o),
(85,366.333,o),
(75,359,cs),
(65,351.667,o),
(60,343.333,o),
(60,334,cs),
(60,328.667,o),
(61.833,321.833,o),
(65.5,313.5,cs),
(69.167,305.167,o),
(72,298.333,o),
(74,293,cs),
(94.667,225.667,o),
(120.333,145,o),
(151,51,cs),
(161.667,21.667,o),
(172,1,o),
(182,-11,cs),
(198.667,-29.667,o),
(218,-39,o),
(240,-39,cs)
);
}
);
userData = {
assembly = "PUSHB[ ]	/* 6 values pushed */
16 1 1 2 1 76 
MPPEM[ ]	/* MeasurePixelPerEm */
PUSHB[ ]	/* 1 value pushed */
24 
LT[ ]	/* LessThan */
IF[ ]	/* If */
NPUSHB[ ]	/* 19 values pushed */
0 2 0 1 0 2 1 128 0 0 0 33 77 0 1 1 31 1 78 
ELSE[ ]	/* Else */
NPUSHB[ ]	/* 18 values pushed */
0 2 0 1 0 2 1 128 0 1 1 132 0 0 0 33 0 78 
EIF[ ]	/* EndIf */
PUSHB[ ]	/* 6 values pushed */
43 43 42 3 8 25 
CALL[ ]	/* CallFunction */";
};
width = 485;
}
);
note = v;
unicode = 118;
},
{
glyphname = w;
kernLeft = w;
kernRight = w;
lastChange = "2022-05-30 09:55:51 +0000";
layers = (
{
layerId = "D6A4831D-747C-4592-93C0-305F4CD57904";
shapes = (
{
closed = 1;
nodes = (
(241.333,-36,o),
(259.333,-19.333,o),
(272,14,cs),
(280.667,41.333,o),
(295.333,87.333,o),
(316,152,c),
(354.651,104.759,o),
(379.506,15.108,o),
(422.5,9.5,cs),
(430.167,8.5,o),
(438.333,8,o),
(447,8,c),
(579.795,124.986,o),
(626,195.02,o),
(626,327,c),
(612.667,361.667,o),
(601.333,376.5,o),
(592,371.5,cs),
(582.667,366.5,o),
(575.333,360.333,o),
(570,353,cs),
(528.667,299.667,o),
(517.667,271.667,o),
(499,225,cs),
(483.667,188.333,o),
(471,161,o),
(461,143,cs),
(451,125,o),
(446,116,o),
(446,116,c),
(427.333,143.333,o),
(412,171.5,o),
(400,200.5,cs),
(388,229.5,o),
(367,260,o),
(337,292,c),
(315.667,292,o),
(294.667,280.333,o),
(280,259,cs),
(270.667,245,o),
(253.333,211.667,o),
(228,159,cs),
(225.333,154.333,o),
(221.5,143.167,o),
(216.5,125.5,cs),
(211.5,107.833,o),
(208.333,98,o),
(207,96,c),
(188.333,98.667,o),
(149,200.333,o),
(149,227,cs),
(147.667,263,o),
(149.333,277,o),
(120,301,cs),
(113.333,306.333,o),
(106,309,o),
(98,309,cs),
(90,309,o),
(84.667,306.333,o),
(82,301,c),
(67.333,292.333,o),
(60,280.667,o),
(60,266,cs),
(60,264,o),
(60.667,260,o),
(62,254,cs),
(72,208.667,o),
(83,165.667,o),
(95,125,cs),
(112.333,66.333,o),
(138,-2,o),
(186,-26,cs),
(200.667,-33.333,o),
(211.333,-36.667,o),
(218,-36,cs)
);
}
);
userData = {
assembly = "NPUSHB[ ]	/* 41 values pushed */
1 1 3 2 1 76 0 1 2 1 133 0 2 3 2 133 0 3 3 4 97 0 4 4 34 77 0 0 0 31 0 78 73 71 40 47 43 36 5 8 26 
CALL[ ]	/* CallFunction */";
};
width = 676;
}
);
note = w;
unicode = 119;
},
{
glyphname = x;
kernLeft = x;
kernRight = x;
lastChange = "2022-05-30 09:55:51 +0000";
layers = (
{
layerId = "D6A4831D-747C-4592-93C0-305F4CD57904";
shapes = (
{
closed = 1;
nodes = (
(156,7,o),
(179.333,17,o),
(194,37,cs),
(227,83,l),
(251,116,l),
(255,112.667,o),
(259.667,108.833,o),
(265,104.5,cs),
(270.333,100.167,o),
(274.333,96.333,o),
(277,93,cs),
(294,71,ls),
(295.333,69.667,o),
(299.5,64.167,o),
(306.5,54.5,cs),
(313.5,44.833,o),
(321.333,37,o),
(330,31,cs),
(343.333,23,o),
(367,21,o),
(371,21,cs),
(377,21,o),
(384.667,20.333,o),
(394,19,c),
(394,24.333,o),
(394.333,29.333,o),
(395,34,cs),
(395.667,38.667,o),
(396,43.667,o),
(396,49,cs),
(396,56.333,o),
(395,62.333,o),
(393,67,cs),
(386.333,84.333,o),
(374,107.333,o),
(356,136,c),
(332,168,ls),
(322,180,o),
(317,188.333,o),
(317,193,cs),
(317,197,o),
(320,201.833,o),
(326,207.5,cs),
(332,213.167,o),
(340,220,o),
(350,228,cs),
(353.333,230.667,o),
(356.5,233.333,o),
(359.5,236,cs),
(362.5,238.667,o),
(365.333,241,o),
(368,243,cs),
(393.333,263.667,o),
(414.333,283.667,o),
(431,303,cs),
(435,308.333,o),
(439,319,o),
(439,327,cs),
(439,329.667,o),
(438.333,332.333,o),
(437,335,c),
(417,357.667,o),
(399.333,370,o),
(378,370,cs),
(368.667,370,o),
(359,367.333,o),
(349,362,cs),
(329,351.333,o),
(307.667,338.667,o),
(293,324,cs),
(283.667,314,o),
(275.833,306,o),
(269.5,300,cs),
(263.167,294,o),
(258.667,291,o),
(256,291,c),
(244,301.667,o),
(240,317.333,o),
(236,328,cs),
(226.667,353.333,o),
(197.333,368.333,o),
(160,383,cs),
(152,385.667,o),
(138.333,382.667,o),
(119,374,cs),
(109.667,370,o),
(102.667,367.333,o),
(98,366,c),
(99.333,362,o),
(101.333,355.333,o),
(104,346,cs),
(106.667,336.667,o),
(110,329,o),
(114,323,cs),
(136,293,ls),
(149.333,277,o),
(157.667,266,o),
(161,260,cs),
(165.667,252,o),
(170.5,245.167,o),
(175.5,239.5,cs),
(180.5,233.833,o),
(183,230.333,o),
(183,229,cs),
(183,225,o),
(168.667,211.667,o),
(158,201,cs),
(129.333,170.333,o),
(99.667,134.333,o),
(69,93,cs),
(63,84.333,o),
(60,74.333,o),
(60,63,cs),
(60,59.667,o),
(60.667,56,o),
(62,52,cs),
(74,22.667,o),
(101.333,7,o),
(132,7,cs)
);
}
);
userData = {
assembly = "NPUSHB[ ]	/* 33 values pushed */
70 52 12 2 4 2 1 1 76 0 1 1 2 97 0 2 2 34 77 0 0 0 40 0 78 75 74 48 46 38 3 8 23 
CALL[ ]	/* CallFunction */";
};
width = 489;
}
);
note = x;
unicode = 120;
},
{
glyphname = y;
lastChange = "2022-05-30 09:55:51 +0000";
layers = (
{
layerId = "D6A4831D-747C-4592-93C0-305F4CD57904";
shapes = (
{
closed = 1;
nodes = (
(271,-330,o),
(328,-292.333,o),
(348,-215,cs),
(364,-153.667,o),
(369,-105.333,o),
(377,4,cs),
(380,44,ls),
(383.333,84.667,o),
(386.333,146.333,o),
(389,229,cs),
(392,322,ls),
(393.333,358,o),
(376.667,379.333,o),
(342,386,cs),
(339.333,386.667,o),
(335,387,o),
(329,387,cs),
(307,387,o),
(290.333,374.333,o),
(279,349,cs),
(269.667,328.333,o),
(256.333,307,o),
(239,285,cs),
(233.667,277.667,o),
(227.333,274,o),
(220,274,cs),
(210.667,274,o),
(204.333,281,o),
(201,295,cs),
(193,330.333,o),
(187.333,363,o),
(184,393,cs),
(180,431.667,o),
(146.333,461,o),
(109,461,cs),
(95,461,o),
(82.667,457.333,o),
(72,450,cs),
(66.667,446,o),
(60,434,o),
(60,426,cs),
(60,424,l),
(63.333,409.333,o),
(69,387.333,o),
(77,358,cs),
(81,342.667,o),
(84.667,329.333,o),
(88,318,cs),
(108,244.667,o),
(164,193,o),
(236,185,cs),
(269.333,181,o),
(280.333,164.667,o),
(279,134,cs),
(275,70,ls),
(269,-24.667,o),
(263,-95.667,o),
(257,-143,cs),
(245,-237.667,o),
(205,-269.333,o),
(109,-272,cs),
(103.667,-272.667,o),
(97.333,-274.167,o),
(90,-276.5,cs),
(82.667,-278.833,o),
(76.667,-280.667,o),
(72,-282,c),
(74,-292,l),
(82,-297.333,o),
(101,-307.667,o),
(113,-313,cs),
(141.667,-324.333,o),
(170.333,-330,o),
(199,-330,cs)
);
}
);
userData = {
assembly = "NPUSHB[ ]	/* 14 values pushed */
18 1 3 1 8 1 0 2 57 1 4 0 3 76 
MPPEM[ ]	/* MeasurePixelPerEm */
PUSHB[ ]	/* 1 value pushed */
39 
LT[ ]	/* LessThan */
IF[ ]	/* If */
NPUSHB[ ]	/* 29 values pushed */
0 1 3 1 133 0 2 3 0 3 2 0 128 0 3 3 33 77 0 0 0 4 97 0 4 4 35 4 78 
ELSE[ ]	/* Else */
NPUSHB[ ]	/* 31 values pushed */
0 1 3 1 133 0 3 2 3 133 0 2 0 2 133 0 0 4 4 0 89 0 0 0 4 97 0 4 0 4 81 
EIF[ ]	/* EndIf */
NPUSHB[ ]	/* 12 values pushed */
52 50 38 36 32 30 25 23 18 5 8 23 
CALL[ ]	/* CallFunction */";
};
width = 442;
}
);
note = y;
unicode = 121;
},
{
glyphname = z;
kernLeft = z;
kernRight = z;
lastChange = "2022-05-30 09:55:51 +0000";
layers = (
{
layerId = "D6A4831D-747C-4592-93C0-305F4CD57904";
shapes = (
{
closed = 1;
nodes = (
(296.667,18,o),
(377.333,42,o),
(452,90,cs),
(457.333,94,o),
(463,107.667,o),
(463,117,cs),
(463,119.667,o),
(462.667,121.333,o),
(462,122,cs),
(452.667,134,o),
(435.667,146.333,o),
(425,145,cs),
(413,142.333,o),
(391.333,136,o),
(360,126,cs),
(340,118.667,o),
(322.333,113,o),
(307,109,cs),
(291,104.333,o),
(268,102,o),
(238,102,cs),
(224.667,102,o),
(212.667,102.667,o),
(202,104,cs),
(191.333,105.333,o),
(185.667,107,o),
(185,109,c),
(193,113,o),
(210.667,122,o),
(220,130,cs),
(281.333,184.667,o),
(326,226,o),
(354,254,cs),
(367.333,268.667,o),
(381.333,300.667,o),
(376,306,cs),
(362,322,l),
(344.667,346,o),
(330.667,359.667,o),
(304,361,cs),
(254,365,o),
(202,374.333,o),
(148,389,cs),
(140,391,o),
(132.333,392,o),
(125,392,cs),
(103.667,392,o),
(89.667,384.333,o),
(71,367,c),
(93.667,329.667,o),
(125.333,320,o),
(176,312,cs),
(202,307,ls),
(212.667,304.333,o),
(229.333,297.667,o),
(236,295,c),
(234,291,o),
(231.5,285.667,o),
(228.5,279,cs),
(225.5,272.333,o),
(222.333,267.333,o),
(219,264,cs),
(210.333,255.333,o),
(181.667,229.333,o),
(133,186,cs),
(90,147,ls),
(70,128.333,o),
(60,112,o),
(60,98,cs),
(60,87.333,o),
(66.667,74.667,o),
(80,60,cs),
(99.333,39.333,o),
(118,27.333,o),
(136,24,cs),
(160.667,20,o),
(185.333,18,o),
(210,18,cs)
);
}
);
userData = {
assembly = "NPUSHB[ ]	/* 45 values pushed */
39 1 3 2 58 50 32 3 0 3 2 76 0 3 2 0 2 3 0 128 0 2 2 33 77 0 0 0 1 98 0 1 1 34 1 78 47 46 43 41 46 33 4 8 24 
CALL[ ]	/* CallFunction */";
};
width = 503;
}
);
note = z;
unicode = 122;
},
